M48
;GenerationSoftware,Autodesk,EAGLE,9.5.2*%
;CreationDate,2026-07-01T16:32:37Z*%
FMAT,2
ICI,OFF
METRIC,TZ,000.000
T3C0.508
T2C0.813
T1C1.016
%
G90
M71
T1
X38240Y23100
X5750Y36480
X15380Y23100
X17920Y23100
X20460Y23100
X23000Y23100
X25540Y23100
X28080Y23100
X30620Y23100
X33160Y23100
X35700Y23100
X23000Y7100
X40780Y23100
X43320Y23100
X43320Y7100
X40780Y7100
X38240Y7100
X35700Y7100
X33160Y7100
X30620Y7100
X28080Y7100
X25540Y7100
X5750Y39020
X20460Y7100
X17920Y7100
X15380Y7100
X43100Y20390
X43100Y17850
X43100Y15310
X9870Y29000
X12410Y29000
X14950Y29000
X17490Y29000
X20030Y29000
X22570Y29000
X25110Y29000
X27650Y29000
X30190Y29000
X32730Y29000
X35270Y29000
X37810Y29000
X40350Y29000
X42890Y29000
X45430Y29000
X47970Y29000
X50510Y29000
X53050Y29000
X55590Y29000
X58130Y29000
X10120Y11000
X12660Y11000
X15200Y11000
X17740Y11000
X20280Y11000
X22820Y11000
X25360Y11000
X27900Y11000
X30440Y11000
X32980Y11000
X35520Y11000
X38060Y11000
X40600Y11000
X43140Y11000
X45680Y11000
X48220Y11000
X50760Y11000
X53300Y11000
X55840Y11000
X58380Y11000
X5750Y41560
X45000Y33920
X45000Y36460
X45000Y39000
X45000Y41540
X45000Y44080
X5750Y33940
T2
X15690Y39020
X23310Y39020
X23310Y41560
X15690Y36480
X38060Y39270
X23310Y36480
X23310Y33940
X30440Y39270
X30440Y41810
X38060Y41810
X30440Y36730
X30440Y34190
X38060Y36730
X38060Y34190
X15690Y41560
X15690Y33940
T3
X34750Y2500
X46930Y24180
M30