G04 EAGLE Gerber RS-274X export*
G75*
%MOMM*%
%FSLAX34Y34*%
%LPD*%
%INTop Copper*%
%IPPOS*%
%AMOC8*
5,1,8,0,0,1.08239X$1,22.5*%
G01*
%ADD10C,1.524000*%
%ADD11C,1.320800*%
%ADD12C,0.800000*%
%ADD13C,0.500000*%
%ADD14C,0.900000*%
%ADD15C,0.914400*%


D10*
X153800Y223380D02*
X153800Y238620D01*
X179200Y238620D02*
X179200Y223380D01*
X204600Y223380D02*
X204600Y238620D01*
X230000Y238620D02*
X230000Y223380D01*
X255400Y223380D02*
X255400Y238620D01*
X280800Y238620D02*
X280800Y223380D01*
X306200Y223380D02*
X306200Y238620D01*
X331600Y238620D02*
X331600Y223380D01*
X357000Y223380D02*
X357000Y238620D01*
X382400Y238620D02*
X382400Y223380D01*
X407800Y223380D02*
X407800Y238620D01*
X433200Y238620D02*
X433200Y223380D01*
X433200Y78620D02*
X433200Y63380D01*
X407800Y63380D02*
X407800Y78620D01*
X382400Y78620D02*
X382400Y63380D01*
X357000Y63380D02*
X357000Y78620D01*
X331600Y78620D02*
X331600Y63380D01*
X306200Y63380D02*
X306200Y78620D01*
X280800Y78620D02*
X280800Y63380D01*
X255400Y63380D02*
X255400Y78620D01*
X230000Y78620D02*
X230000Y63380D01*
X204600Y63380D02*
X204600Y78620D01*
X179200Y78620D02*
X179200Y63380D01*
X153800Y63380D02*
X153800Y78620D01*
X423380Y203900D02*
X438620Y203900D01*
X438620Y178500D02*
X423380Y178500D01*
X423380Y153100D02*
X438620Y153100D01*
X98700Y282380D02*
X98700Y297620D01*
X124100Y297620D02*
X124100Y282380D01*
X149500Y282380D02*
X149500Y297620D01*
X174900Y297620D02*
X174900Y282380D01*
X200300Y282380D02*
X200300Y297620D01*
X225700Y297620D02*
X225700Y282380D01*
X251100Y282380D02*
X251100Y297620D01*
X276500Y297620D02*
X276500Y282380D01*
X301900Y282380D02*
X301900Y297620D01*
X327300Y297620D02*
X327300Y282380D01*
X352700Y282380D02*
X352700Y297620D01*
X378100Y297620D02*
X378100Y282380D01*
X403500Y282380D02*
X403500Y297620D01*
X428900Y297620D02*
X428900Y282380D01*
X454300Y282380D02*
X454300Y297620D01*
X479700Y297620D02*
X479700Y282380D01*
X505100Y282380D02*
X505100Y297620D01*
X530500Y297620D02*
X530500Y282380D01*
X555900Y282380D02*
X555900Y297620D01*
X581300Y297620D02*
X581300Y282380D01*
X101200Y117620D02*
X101200Y102380D01*
X126600Y102380D02*
X126600Y117620D01*
X152000Y117620D02*
X152000Y102380D01*
X177400Y102380D02*
X177400Y117620D01*
X202800Y117620D02*
X202800Y102380D01*
X228200Y102380D02*
X228200Y117620D01*
X253600Y117620D02*
X253600Y102380D01*
X279000Y102380D02*
X279000Y117620D01*
X304400Y117620D02*
X304400Y102380D01*
X329800Y102380D02*
X329800Y117620D01*
X355200Y117620D02*
X355200Y102380D01*
X380600Y102380D02*
X380600Y117620D01*
X406000Y117620D02*
X406000Y102380D01*
X431400Y102380D02*
X431400Y117620D01*
X456800Y117620D02*
X456800Y102380D01*
X482200Y102380D02*
X482200Y117620D01*
X507600Y117620D02*
X507600Y102380D01*
X533000Y102380D02*
X533000Y117620D01*
X558400Y117620D02*
X558400Y102380D01*
X583800Y102380D02*
X583800Y117620D01*
D11*
X304400Y418100D02*
X291192Y418100D01*
X291192Y392700D02*
X304400Y392700D01*
X380600Y392700D02*
X393808Y392700D01*
X393808Y418100D02*
X380600Y418100D01*
X304400Y367300D02*
X291192Y367300D01*
X291192Y341900D02*
X304400Y341900D01*
X380600Y367300D02*
X393808Y367300D01*
X393808Y341900D02*
X380600Y341900D01*
X156900Y415600D02*
X143692Y415600D01*
X143692Y390200D02*
X156900Y390200D01*
X233100Y390200D02*
X246308Y390200D01*
X246308Y415600D02*
X233100Y415600D01*
X156900Y364800D02*
X143692Y364800D01*
X143692Y339400D02*
X156900Y339400D01*
X233100Y364800D02*
X246308Y364800D01*
X246308Y339400D02*
X233100Y339400D01*
D10*
X442380Y339200D02*
X457620Y339200D01*
X457620Y364600D02*
X442380Y364600D01*
X442380Y390000D02*
X457620Y390000D01*
X457620Y415400D02*
X442380Y415400D01*
X442380Y440800D02*
X457620Y440800D01*
X65120Y339400D02*
X49880Y339400D01*
X49880Y364800D02*
X65120Y364800D01*
X65120Y390200D02*
X49880Y390200D01*
X49880Y415600D02*
X65120Y415600D01*
D12*
X153800Y251300D02*
X153800Y231000D01*
X158328Y255828D02*
X190828Y255828D01*
X200300Y265300D02*
X200300Y290000D01*
X158328Y255828D02*
X153800Y251300D01*
X190828Y255828D02*
X200300Y265300D01*
D13*
X301900Y270000D02*
X331600Y240300D01*
X301900Y270000D02*
X301900Y290000D01*
X331600Y240300D02*
X331600Y231000D01*
X461076Y265672D02*
X488328Y238420D01*
X460420Y153100D02*
X431000Y153100D01*
X461076Y265672D02*
X336828Y265672D01*
X460420Y153100D02*
X488328Y181008D01*
X488328Y238420D01*
X327300Y275200D02*
X327300Y290000D01*
X327300Y275200D02*
X336828Y265672D01*
D14*
X304400Y367300D02*
X282986Y367300D01*
X270500Y379786D01*
X270500Y415014D02*
X240514Y445000D01*
X120000Y445000D01*
X270500Y415014D02*
X270500Y379786D01*
X90600Y415600D02*
X57500Y415600D01*
X90600Y415600D02*
X120000Y445000D01*
D13*
X85828Y318328D02*
X183728Y318328D01*
X223100Y390200D02*
X233100Y390200D01*
X223100Y390200D02*
X213100Y380200D01*
X213100Y347700D01*
X183728Y318328D01*
X85828Y318328D02*
X77500Y310000D01*
X77500Y225000D01*
X100000Y202500D01*
X430835Y122500D02*
X430835Y110566D01*
X431400Y110000D01*
X430835Y122500D02*
X350835Y202500D01*
X100000Y202500D01*
X558400Y237266D02*
X597008Y275874D01*
X558400Y237266D02*
X558400Y110000D01*
X597008Y275874D02*
X597008Y304127D01*
X408100Y341900D02*
X380600Y341900D01*
X408100Y341900D02*
X426672Y323328D01*
X426672Y322694D01*
X587807Y313328D02*
X597008Y304127D01*
X436038Y313328D02*
X426672Y322694D01*
X436038Y313328D02*
X587807Y313328D01*
X375667Y305667D02*
X368007Y313328D01*
X269172Y313328D02*
X243100Y339400D01*
X233100Y339400D01*
X269172Y313328D02*
X368007Y313328D01*
X375667Y292433D02*
X378100Y290000D01*
X375667Y292433D02*
X375667Y305667D01*
D15*
X469305Y241805D03*
D13*
X460127Y178192D02*
X431308Y178192D01*
X431000Y178500D01*
X469305Y187370D02*
X469305Y241805D01*
X469305Y187370D02*
X460127Y178192D01*
X177400Y130100D02*
X177400Y110000D01*
X95000Y137500D02*
X80000Y122500D01*
X80000Y88328D01*
X170000Y137500D02*
X177400Y130100D01*
X170000Y137500D02*
X95000Y137500D01*
X280800Y71000D02*
X280800Y55800D01*
X272672Y47672D02*
X120656Y47672D01*
X80000Y88328D01*
X272672Y47672D02*
X280800Y55800D01*
X202800Y110000D02*
X202800Y137200D01*
X91000Y148500D02*
X67500Y125000D01*
X191500Y148500D02*
X202800Y137200D01*
X191500Y148500D02*
X91000Y148500D01*
X306200Y71000D02*
X306200Y48700D01*
X295000Y37500D02*
X95000Y37500D01*
X67500Y65000D01*
X295000Y37500D02*
X306200Y48700D01*
X67500Y65000D02*
X67500Y125000D01*
X57500Y132500D02*
X82500Y157500D01*
X228200Y146800D02*
X228200Y110000D01*
X228200Y146800D02*
X217500Y157500D01*
X82500Y157500D01*
X331600Y71000D02*
X331600Y46600D01*
X313500Y28500D02*
X91272Y28500D01*
X313500Y28500D02*
X331600Y46600D01*
X91272Y28500D02*
X57500Y62272D01*
X57500Y132500D01*
X252500Y111100D02*
X253600Y110000D01*
X252500Y111100D02*
X252500Y155000D01*
X237500Y170000D01*
X80228Y170000D01*
X47500Y137272D01*
X90044Y17000D02*
X319728Y17000D01*
X357000Y54272D02*
X357000Y71000D01*
X357000Y54272D02*
X319728Y17000D01*
X90044Y17000D02*
X47500Y59544D01*
X47500Y137272D01*
X382400Y71000D02*
X382400Y52400D01*
X355000Y25000D01*
X347500Y25000D01*
D15*
X347500Y25000D03*
D13*
X304400Y110000D02*
X305000Y110600D01*
X305000Y145000D01*
X267500Y182500D01*
X80000Y182500D01*
X37500Y140000D01*
X407800Y71000D02*
X407800Y49080D01*
X364220Y5500D01*
X88816Y5500D01*
X37500Y56816D01*
X37500Y140000D01*
X329800Y149800D02*
X329800Y110000D01*
X329800Y149800D02*
X330000Y150000D01*
X287500Y192500D02*
X65000Y192500D01*
X27500Y155000D01*
X27500Y50000D01*
X81000Y-3500D01*
X433200Y51580D02*
X433200Y71000D01*
X433200Y51580D02*
X378120Y-3500D01*
X81000Y-3500D01*
X287500Y192500D02*
X330000Y150000D01*
M02*
