G04 EAGLE Gerber RS-274X export*
G75*
%MOMM*%
%FSLAX34Y34*%
%LPD*%
%INBottom Copper*%
%IPPOS*%
%AMOC8*
5,1,8,0,0,1.08239X$1,22.5*%
G01*
%ADD10C,1.524000*%
%ADD11C,1.320800*%
%ADD12C,0.800000*%
%ADD13C,0.900000*%
%ADD14C,0.500000*%
%ADD15C,0.914400*%

G36*
X606045Y-20967D02*
X606045Y-20967D01*
X606100Y-20970D01*
X606267Y-20948D01*
X606435Y-20934D01*
X606488Y-20920D01*
X606543Y-20912D01*
X606703Y-20861D01*
X606866Y-20817D01*
X606916Y-20794D01*
X606968Y-20777D01*
X607117Y-20698D01*
X607269Y-20626D01*
X607314Y-20594D01*
X607363Y-20568D01*
X607496Y-20463D01*
X607632Y-20365D01*
X607671Y-20326D01*
X607714Y-20292D01*
X607826Y-20166D01*
X607943Y-20045D01*
X607974Y-19999D01*
X608011Y-19957D01*
X608098Y-19814D01*
X608192Y-19674D01*
X608214Y-19623D01*
X608243Y-19576D01*
X608303Y-19419D01*
X608371Y-19264D01*
X608383Y-19210D01*
X608403Y-19159D01*
X608435Y-18993D01*
X608474Y-18830D01*
X608477Y-18774D01*
X608487Y-18720D01*
X608499Y-18473D01*
X608499Y458500D01*
X608495Y458550D01*
X608497Y458600D01*
X608475Y458772D01*
X608459Y458945D01*
X608446Y458993D01*
X608440Y459043D01*
X608387Y459208D01*
X608341Y459376D01*
X608319Y459421D01*
X608304Y459468D01*
X608223Y459622D01*
X608148Y459778D01*
X608118Y459819D01*
X608095Y459863D01*
X607988Y460000D01*
X607886Y460140D01*
X607850Y460175D01*
X607819Y460214D01*
X607689Y460330D01*
X607564Y460450D01*
X607522Y460477D01*
X607484Y460511D01*
X607336Y460601D01*
X607192Y460697D01*
X607146Y460717D01*
X607103Y460743D01*
X606941Y460805D01*
X606781Y460874D01*
X606733Y460885D01*
X606686Y460903D01*
X606515Y460936D01*
X606346Y460975D01*
X606296Y460978D01*
X606247Y460987D01*
X606000Y460999D01*
X19000Y460999D01*
X18950Y460995D01*
X18900Y460997D01*
X18728Y460975D01*
X18555Y460959D01*
X18507Y460946D01*
X18457Y460940D01*
X18292Y460887D01*
X18124Y460841D01*
X18079Y460819D01*
X18032Y460804D01*
X17878Y460723D01*
X17722Y460648D01*
X17681Y460618D01*
X17637Y460595D01*
X17500Y460488D01*
X17360Y460386D01*
X17325Y460350D01*
X17286Y460319D01*
X17170Y460189D01*
X17050Y460064D01*
X17023Y460022D01*
X16989Y459984D01*
X16899Y459836D01*
X16803Y459692D01*
X16783Y459646D01*
X16757Y459603D01*
X16695Y459441D01*
X16626Y459281D01*
X16615Y459233D01*
X16597Y459186D01*
X16564Y459015D01*
X16525Y458846D01*
X16522Y458796D01*
X16513Y458747D01*
X16501Y458500D01*
X16501Y-16027D01*
X16504Y-16058D01*
X16503Y-16073D01*
X16504Y-16084D01*
X16502Y-16116D01*
X16525Y-16294D01*
X16541Y-16472D01*
X16553Y-16515D01*
X16558Y-16560D01*
X16612Y-16730D01*
X16659Y-16903D01*
X16679Y-16943D01*
X16692Y-16986D01*
X16775Y-17144D01*
X16852Y-17305D01*
X16879Y-17342D01*
X16900Y-17381D01*
X17009Y-17522D01*
X17114Y-17667D01*
X17147Y-17698D01*
X17174Y-17734D01*
X17308Y-17853D01*
X17436Y-17977D01*
X17474Y-18002D01*
X17507Y-18031D01*
X17660Y-18125D01*
X17808Y-18224D01*
X17850Y-18242D01*
X17888Y-18265D01*
X18055Y-18330D01*
X18219Y-18401D01*
X18262Y-18411D01*
X18304Y-18427D01*
X18480Y-18462D01*
X18654Y-18502D01*
X18698Y-18504D01*
X18742Y-18513D01*
X18990Y-18526D01*
X605990Y-20972D01*
X606045Y-20967D01*
G37*
%LPC*%
G36*
X135891Y14411D02*
X135891Y14411D01*
X132918Y15643D01*
X55643Y92918D01*
X54411Y95891D01*
X54411Y204109D01*
X55643Y207082D01*
X112918Y264357D01*
X115891Y265589D01*
X117557Y265589D01*
X117736Y265605D01*
X117916Y265615D01*
X117959Y265625D01*
X118002Y265629D01*
X118176Y265676D01*
X118351Y265718D01*
X118391Y265736D01*
X118433Y265747D01*
X118595Y265825D01*
X118760Y265897D01*
X118796Y265922D01*
X118835Y265940D01*
X118982Y266046D01*
X119131Y266146D01*
X119162Y266177D01*
X119197Y266202D01*
X119322Y266332D01*
X119451Y266458D01*
X119477Y266493D01*
X119507Y266524D01*
X119606Y266674D01*
X119711Y266821D01*
X119730Y266860D01*
X119754Y266896D01*
X119825Y267062D01*
X119902Y267225D01*
X119914Y267267D01*
X119931Y267307D01*
X119972Y267481D01*
X120019Y267656D01*
X120022Y267699D01*
X120032Y267742D01*
X120041Y267921D01*
X120056Y268101D01*
X120052Y268144D01*
X120054Y268188D01*
X120031Y268366D01*
X120014Y268546D01*
X120002Y268588D01*
X119997Y268631D01*
X119942Y268802D01*
X119893Y268976D01*
X119874Y269015D01*
X119861Y269056D01*
X119777Y269215D01*
X119698Y269377D01*
X119672Y269413D01*
X119652Y269451D01*
X119541Y269592D01*
X119434Y269738D01*
X119403Y269768D01*
X119376Y269802D01*
X119241Y269922D01*
X119111Y270046D01*
X119074Y270070D01*
X119042Y270099D01*
X118888Y270192D01*
X118737Y270291D01*
X118683Y270317D01*
X118660Y270331D01*
X118625Y270344D01*
X118514Y270397D01*
X116618Y271182D01*
X113167Y274633D01*
X113129Y274665D01*
X113095Y274702D01*
X112958Y274808D01*
X112824Y274919D01*
X112781Y274944D01*
X112741Y274974D01*
X112587Y275054D01*
X112436Y275140D01*
X112389Y275157D01*
X112344Y275180D01*
X112179Y275230D01*
X112015Y275288D01*
X111965Y275296D01*
X111917Y275311D01*
X111745Y275331D01*
X111574Y275359D01*
X111523Y275358D01*
X111474Y275364D01*
X111300Y275353D01*
X111127Y275350D01*
X111078Y275340D01*
X111028Y275337D01*
X110859Y275296D01*
X110689Y275262D01*
X110643Y275243D01*
X110594Y275231D01*
X110435Y275161D01*
X110274Y275097D01*
X110231Y275070D01*
X110186Y275050D01*
X110042Y274952D01*
X109895Y274861D01*
X109858Y274827D01*
X109816Y274799D01*
X109633Y274633D01*
X106182Y271182D01*
X101327Y269171D01*
X96073Y269171D01*
X91218Y271182D01*
X87502Y274898D01*
X85491Y279753D01*
X85491Y300247D01*
X87502Y305102D01*
X91218Y308818D01*
X96073Y310829D01*
X101327Y310829D01*
X106182Y308818D01*
X109633Y305367D01*
X109671Y305335D01*
X109705Y305298D01*
X109843Y305192D01*
X109976Y305081D01*
X110019Y305056D01*
X110059Y305026D01*
X110213Y304946D01*
X110364Y304860D01*
X110411Y304843D01*
X110456Y304820D01*
X110621Y304770D01*
X110785Y304712D01*
X110835Y304704D01*
X110883Y304689D01*
X111055Y304669D01*
X111226Y304641D01*
X111276Y304642D01*
X111326Y304636D01*
X111500Y304647D01*
X111673Y304650D01*
X111722Y304660D01*
X111772Y304663D01*
X111941Y304704D01*
X112111Y304738D01*
X112157Y304757D01*
X112206Y304769D01*
X112365Y304839D01*
X112526Y304903D01*
X112569Y304930D01*
X112614Y304950D01*
X112758Y305048D01*
X112905Y305139D01*
X112942Y305173D01*
X112984Y305201D01*
X113167Y305367D01*
X116618Y308818D01*
X121473Y310829D01*
X126727Y310829D01*
X131582Y308818D01*
X135033Y305367D01*
X135071Y305335D01*
X135105Y305298D01*
X135243Y305192D01*
X135376Y305081D01*
X135419Y305056D01*
X135459Y305026D01*
X135613Y304946D01*
X135764Y304860D01*
X135811Y304843D01*
X135856Y304820D01*
X136021Y304770D01*
X136185Y304712D01*
X136235Y304704D01*
X136283Y304689D01*
X136455Y304669D01*
X136626Y304641D01*
X136676Y304642D01*
X136726Y304636D01*
X136900Y304647D01*
X137073Y304650D01*
X137122Y304660D01*
X137172Y304663D01*
X137341Y304704D01*
X137511Y304738D01*
X137557Y304757D01*
X137606Y304769D01*
X137765Y304839D01*
X137926Y304903D01*
X137969Y304930D01*
X138014Y304950D01*
X138158Y305048D01*
X138305Y305139D01*
X138342Y305173D01*
X138384Y305201D01*
X138567Y305367D01*
X142018Y308818D01*
X146873Y310829D01*
X152127Y310829D01*
X156982Y308818D01*
X160433Y305367D01*
X160471Y305335D01*
X160505Y305298D01*
X160643Y305192D01*
X160776Y305081D01*
X160819Y305056D01*
X160859Y305026D01*
X161013Y304946D01*
X161164Y304860D01*
X161211Y304843D01*
X161256Y304820D01*
X161421Y304770D01*
X161585Y304712D01*
X161635Y304704D01*
X161683Y304689D01*
X161855Y304669D01*
X162026Y304641D01*
X162076Y304642D01*
X162126Y304636D01*
X162300Y304647D01*
X162473Y304650D01*
X162522Y304660D01*
X162572Y304663D01*
X162741Y304704D01*
X162911Y304738D01*
X162957Y304757D01*
X163006Y304769D01*
X163165Y304839D01*
X163326Y304903D01*
X163369Y304930D01*
X163414Y304950D01*
X163558Y305048D01*
X163705Y305139D01*
X163742Y305173D01*
X163784Y305201D01*
X163967Y305367D01*
X167418Y308818D01*
X172273Y310829D01*
X177527Y310829D01*
X182382Y308818D01*
X185833Y305367D01*
X185871Y305335D01*
X185905Y305298D01*
X186043Y305192D01*
X186176Y305081D01*
X186219Y305056D01*
X186259Y305026D01*
X186413Y304946D01*
X186564Y304860D01*
X186611Y304843D01*
X186656Y304820D01*
X186821Y304770D01*
X186985Y304712D01*
X187035Y304704D01*
X187083Y304689D01*
X187255Y304669D01*
X187426Y304641D01*
X187476Y304642D01*
X187526Y304636D01*
X187700Y304647D01*
X187873Y304650D01*
X187922Y304660D01*
X187972Y304663D01*
X188141Y304704D01*
X188311Y304738D01*
X188357Y304757D01*
X188406Y304769D01*
X188565Y304839D01*
X188726Y304903D01*
X188769Y304930D01*
X188814Y304950D01*
X188958Y305048D01*
X189105Y305139D01*
X189142Y305173D01*
X189184Y305201D01*
X189367Y305367D01*
X192818Y308818D01*
X197721Y310849D01*
X197849Y310857D01*
X197885Y310865D01*
X197922Y310869D01*
X198103Y310918D01*
X198283Y310962D01*
X198317Y310977D01*
X198353Y310987D01*
X198521Y311068D01*
X198691Y311144D01*
X198722Y311164D01*
X198756Y311180D01*
X198907Y311290D01*
X199061Y311395D01*
X199098Y311429D01*
X199117Y311442D01*
X199143Y311469D01*
X199244Y311561D01*
X209168Y321484D01*
X209260Y321594D01*
X209358Y321698D01*
X209403Y321765D01*
X209454Y321827D01*
X209525Y321951D01*
X209604Y322071D01*
X209657Y322183D01*
X209675Y322215D01*
X209684Y322241D01*
X209710Y322295D01*
X210019Y323043D01*
X212857Y325881D01*
X216565Y327417D01*
X221806Y327417D01*
X221943Y327429D01*
X222079Y327432D01*
X222165Y327449D01*
X222251Y327457D01*
X222383Y327493D01*
X222517Y327520D01*
X222598Y327552D01*
X222682Y327575D01*
X222806Y327634D01*
X222933Y327685D01*
X223006Y327731D01*
X223085Y327768D01*
X223196Y327849D01*
X223312Y327921D01*
X223376Y327979D01*
X223447Y328030D01*
X223541Y328129D01*
X223643Y328221D01*
X223696Y328290D01*
X223756Y328352D01*
X223832Y328466D01*
X223915Y328575D01*
X223955Y328652D01*
X224003Y328724D01*
X224058Y328850D01*
X224120Y328972D01*
X224146Y329055D01*
X224180Y329135D01*
X224211Y329267D01*
X224252Y329399D01*
X224262Y329485D01*
X224282Y329570D01*
X224288Y329706D01*
X224305Y329842D01*
X224299Y329929D01*
X224304Y330016D01*
X224286Y330151D01*
X224278Y330288D01*
X224257Y330373D01*
X224246Y330459D01*
X224204Y330589D01*
X224172Y330722D01*
X224137Y330802D01*
X224110Y330884D01*
X224046Y331005D01*
X223991Y331130D01*
X223942Y331202D01*
X223901Y331279D01*
X223817Y331387D01*
X223740Y331500D01*
X223648Y331601D01*
X223625Y331630D01*
X223607Y331646D01*
X223574Y331683D01*
X222763Y332493D01*
X220907Y336975D01*
X220907Y341825D01*
X222763Y346307D01*
X226193Y349737D01*
X230342Y351455D01*
X230352Y351460D01*
X230363Y351464D01*
X230550Y351564D01*
X230737Y351662D01*
X230746Y351669D01*
X230756Y351674D01*
X230923Y351806D01*
X231090Y351936D01*
X231098Y351945D01*
X231107Y351952D01*
X231246Y352111D01*
X231388Y352269D01*
X231394Y352279D01*
X231402Y352287D01*
X231511Y352469D01*
X231622Y352649D01*
X231626Y352660D01*
X231632Y352670D01*
X231708Y352868D01*
X231785Y353065D01*
X231787Y353076D01*
X231791Y353087D01*
X231830Y353295D01*
X231871Y353504D01*
X231871Y353515D01*
X231873Y353526D01*
X231874Y353739D01*
X231878Y353950D01*
X231876Y353961D01*
X231876Y353973D01*
X231839Y354181D01*
X231805Y354391D01*
X231801Y354402D01*
X231799Y354413D01*
X231725Y354613D01*
X231654Y354812D01*
X231649Y354821D01*
X231645Y354832D01*
X231537Y355016D01*
X231431Y355199D01*
X231424Y355208D01*
X231418Y355217D01*
X231280Y355379D01*
X231143Y355540D01*
X231135Y355547D01*
X231127Y355556D01*
X230961Y355691D01*
X230799Y355825D01*
X230789Y355830D01*
X230780Y355837D01*
X230593Y355941D01*
X230410Y356044D01*
X230399Y356047D01*
X230389Y356053D01*
X230158Y356141D01*
X229590Y356325D01*
X228307Y356979D01*
X227143Y357825D01*
X226125Y358843D01*
X225279Y360007D01*
X224625Y361290D01*
X224297Y362301D01*
X233100Y362301D01*
X233150Y362305D01*
X233199Y362303D01*
X233371Y362325D01*
X233545Y362340D01*
X233593Y362354D01*
X233642Y362360D01*
X233808Y362413D01*
X233975Y362459D01*
X234020Y362481D01*
X234068Y362496D01*
X234221Y362577D01*
X234378Y362652D01*
X234419Y362682D01*
X234463Y362705D01*
X234599Y362812D01*
X234740Y362914D01*
X234775Y362950D01*
X234814Y362981D01*
X234929Y363111D01*
X235049Y363236D01*
X235077Y363278D01*
X235110Y363315D01*
X235200Y363464D01*
X235297Y363608D01*
X235316Y363654D01*
X235342Y363697D01*
X235405Y363859D01*
X235474Y364018D01*
X235485Y364067D01*
X235503Y364114D01*
X235536Y364285D01*
X235575Y364453D01*
X235577Y364503D01*
X235587Y364553D01*
X235599Y364800D01*
X235594Y364850D01*
X235597Y364899D01*
X235597Y364900D01*
X235575Y365072D01*
X235559Y365245D01*
X235546Y365293D01*
X235539Y365343D01*
X235487Y365508D01*
X235441Y365676D01*
X235419Y365721D01*
X235404Y365769D01*
X235323Y365922D01*
X235247Y366078D01*
X235218Y366119D01*
X235194Y366163D01*
X235087Y366300D01*
X234985Y366440D01*
X234949Y366475D01*
X234918Y366514D01*
X234788Y366630D01*
X234663Y366750D01*
X234622Y366778D01*
X234584Y366811D01*
X234436Y366901D01*
X234291Y366997D01*
X234245Y367017D01*
X234203Y367043D01*
X234040Y367105D01*
X233881Y367174D01*
X233833Y367185D01*
X233786Y367203D01*
X233615Y367236D01*
X233446Y367275D01*
X233396Y367278D01*
X233347Y367287D01*
X233100Y367299D01*
X224297Y367299D01*
X224625Y368310D01*
X225279Y369593D01*
X226125Y370757D01*
X227143Y371775D01*
X228307Y372621D01*
X229590Y373275D01*
X230158Y373459D01*
X230168Y373464D01*
X230179Y373466D01*
X230371Y373551D01*
X230568Y373635D01*
X230578Y373641D01*
X230588Y373646D01*
X230763Y373763D01*
X230941Y373880D01*
X230950Y373888D01*
X230959Y373895D01*
X231112Y374043D01*
X231265Y374189D01*
X231271Y374198D01*
X231280Y374206D01*
X231402Y374377D01*
X231528Y374550D01*
X231533Y374560D01*
X231539Y374569D01*
X231629Y374757D01*
X231723Y374952D01*
X231726Y374963D01*
X231731Y374973D01*
X231786Y375179D01*
X231843Y375382D01*
X231844Y375393D01*
X231847Y375404D01*
X231865Y375617D01*
X231885Y375827D01*
X231884Y375838D01*
X231885Y375849D01*
X231864Y376060D01*
X231846Y376272D01*
X231843Y376283D01*
X231842Y376294D01*
X231785Y376497D01*
X231729Y376703D01*
X231725Y376713D01*
X231722Y376724D01*
X231628Y376916D01*
X231538Y377106D01*
X231531Y377115D01*
X231526Y377126D01*
X231400Y377298D01*
X231277Y377469D01*
X231269Y377477D01*
X231262Y377486D01*
X231110Y377632D01*
X230956Y377780D01*
X230947Y377786D01*
X230939Y377794D01*
X230762Y377910D01*
X230585Y378029D01*
X230575Y378033D01*
X230565Y378039D01*
X230342Y378145D01*
X226193Y379863D01*
X222763Y383293D01*
X220907Y387775D01*
X220907Y392625D01*
X222763Y397107D01*
X226193Y400537D01*
X230342Y402255D01*
X230352Y402260D01*
X230363Y402264D01*
X230550Y402364D01*
X230737Y402462D01*
X230746Y402469D01*
X230756Y402474D01*
X230923Y402606D01*
X231090Y402736D01*
X231098Y402745D01*
X231107Y402752D01*
X231246Y402911D01*
X231388Y403069D01*
X231394Y403079D01*
X231402Y403087D01*
X231511Y403269D01*
X231622Y403449D01*
X231626Y403460D01*
X231632Y403470D01*
X231708Y403668D01*
X231785Y403865D01*
X231787Y403876D01*
X231791Y403887D01*
X231830Y404095D01*
X231871Y404304D01*
X231871Y404315D01*
X231873Y404326D01*
X231874Y404539D01*
X231878Y404750D01*
X231876Y404761D01*
X231876Y404773D01*
X231839Y404982D01*
X231805Y405191D01*
X231801Y405202D01*
X231799Y405213D01*
X231725Y405413D01*
X231654Y405612D01*
X231649Y405621D01*
X231645Y405632D01*
X231537Y405816D01*
X231431Y405999D01*
X231424Y406008D01*
X231418Y406017D01*
X231280Y406179D01*
X231143Y406340D01*
X231135Y406347D01*
X231127Y406356D01*
X230961Y406491D01*
X230799Y406625D01*
X230789Y406630D01*
X230780Y406637D01*
X230593Y406741D01*
X230410Y406844D01*
X230399Y406847D01*
X230389Y406853D01*
X230158Y406941D01*
X229590Y407125D01*
X228307Y407779D01*
X227143Y408625D01*
X226125Y409643D01*
X225279Y410807D01*
X224625Y412090D01*
X224297Y413101D01*
X233100Y413101D01*
X233150Y413105D01*
X233199Y413103D01*
X233371Y413125D01*
X233545Y413140D01*
X233593Y413154D01*
X233642Y413160D01*
X233808Y413213D01*
X233975Y413259D01*
X234020Y413281D01*
X234068Y413296D01*
X234221Y413377D01*
X234378Y413452D01*
X234419Y413482D01*
X234463Y413505D01*
X234599Y413612D01*
X234740Y413714D01*
X234775Y413750D01*
X234814Y413781D01*
X234814Y413782D01*
X234930Y413912D01*
X235012Y413997D01*
X235050Y414037D01*
X235078Y414078D01*
X235111Y414116D01*
X235201Y414264D01*
X235297Y414409D01*
X235317Y414455D01*
X235343Y414497D01*
X235405Y414660D01*
X235474Y414819D01*
X235485Y414867D01*
X235503Y414914D01*
X235536Y415085D01*
X235575Y415254D01*
X235578Y415304D01*
X235587Y415353D01*
X235599Y415600D01*
X235599Y424745D01*
X247028Y424745D01*
X248449Y424520D01*
X249981Y424022D01*
X250117Y423967D01*
X250171Y423956D01*
X250223Y423938D01*
X250390Y423911D01*
X250555Y423877D01*
X250610Y423876D01*
X250664Y423867D01*
X250833Y423871D01*
X251001Y423867D01*
X251056Y423875D01*
X251111Y423876D01*
X251276Y423909D01*
X251443Y423936D01*
X251495Y423954D01*
X251548Y423964D01*
X251705Y424027D01*
X251865Y424082D01*
X251912Y424109D01*
X251964Y424129D01*
X252107Y424218D01*
X252254Y424301D01*
X252296Y424336D01*
X252343Y424365D01*
X252468Y424479D01*
X252598Y424586D01*
X252633Y424628D01*
X252674Y424665D01*
X252777Y424799D01*
X252885Y424928D01*
X252913Y424976D01*
X252946Y425019D01*
X253024Y425169D01*
X253108Y425315D01*
X253126Y425367D01*
X253151Y425416D01*
X253201Y425577D01*
X253258Y425736D01*
X253266Y425791D01*
X253283Y425843D01*
X253303Y426010D01*
X253330Y426177D01*
X253329Y426232D01*
X253336Y426287D01*
X253326Y426455D01*
X253323Y426624D01*
X253312Y426678D01*
X253309Y426732D01*
X253269Y426897D01*
X253236Y427062D01*
X253216Y427113D01*
X253203Y427166D01*
X253135Y427320D01*
X253073Y427478D01*
X253044Y427525D01*
X253022Y427575D01*
X252927Y427714D01*
X252839Y427858D01*
X252802Y427899D01*
X252771Y427944D01*
X252625Y428105D01*
X252623Y428108D01*
X252621Y428109D01*
X252605Y428128D01*
X249053Y431679D01*
X248910Y431799D01*
X248770Y431923D01*
X248739Y431942D01*
X248710Y431966D01*
X248548Y432058D01*
X248389Y432155D01*
X248354Y432168D01*
X248322Y432186D01*
X248146Y432248D01*
X247972Y432315D01*
X247935Y432322D01*
X247901Y432335D01*
X247716Y432364D01*
X247533Y432399D01*
X247483Y432402D01*
X247459Y432405D01*
X247423Y432404D01*
X247286Y432411D01*
X224814Y432411D01*
X224628Y432395D01*
X224442Y432383D01*
X224406Y432375D01*
X224369Y432371D01*
X224189Y432322D01*
X224008Y432278D01*
X223974Y432263D01*
X223938Y432253D01*
X223770Y432172D01*
X223600Y432096D01*
X223569Y432076D01*
X223536Y432060D01*
X223385Y431950D01*
X223230Y431845D01*
X223193Y431811D01*
X223174Y431798D01*
X223148Y431771D01*
X223047Y431679D01*
X183335Y391967D01*
X183303Y391929D01*
X183266Y391895D01*
X183160Y391758D01*
X183048Y391624D01*
X183024Y391581D01*
X182993Y391541D01*
X182913Y391387D01*
X182828Y391236D01*
X182811Y391189D01*
X182788Y391144D01*
X182737Y390979D01*
X182680Y390815D01*
X182672Y390765D01*
X182657Y390717D01*
X182636Y390545D01*
X182609Y390374D01*
X182610Y390323D01*
X182604Y390274D01*
X182614Y390100D01*
X182618Y389927D01*
X182628Y389878D01*
X182631Y389828D01*
X182672Y389659D01*
X182706Y389489D01*
X182725Y389443D01*
X182736Y389394D01*
X182807Y389235D01*
X182871Y389074D01*
X182897Y389031D01*
X182918Y388986D01*
X183015Y388842D01*
X183107Y388695D01*
X183141Y388658D01*
X183169Y388616D01*
X183335Y388433D01*
X187863Y383905D01*
X187863Y383904D01*
X191053Y380715D01*
X192589Y377007D01*
X192589Y350493D01*
X191053Y346785D01*
X175115Y330847D01*
X171407Y329311D01*
X164902Y329311D01*
X164759Y329298D01*
X164616Y329295D01*
X164537Y329279D01*
X164457Y329271D01*
X164319Y329233D01*
X164179Y329204D01*
X164063Y329163D01*
X164026Y329153D01*
X164002Y329141D01*
X163946Y329121D01*
X159325Y327207D01*
X141267Y327207D01*
X136646Y329121D01*
X136510Y329164D01*
X136376Y329215D01*
X136297Y329230D01*
X136220Y329254D01*
X136078Y329272D01*
X135937Y329299D01*
X135814Y329305D01*
X135777Y329310D01*
X135750Y329308D01*
X135690Y329311D01*
X74746Y329311D01*
X74560Y329295D01*
X74374Y329283D01*
X74339Y329275D01*
X74302Y329271D01*
X74121Y329222D01*
X73940Y329178D01*
X73907Y329163D01*
X73871Y329153D01*
X73702Y329072D01*
X73532Y328996D01*
X73502Y328976D01*
X73468Y328960D01*
X73317Y328850D01*
X73163Y328745D01*
X73125Y328711D01*
X73106Y328698D01*
X73081Y328671D01*
X72979Y328579D01*
X72602Y328202D01*
X67747Y326191D01*
X47253Y326191D01*
X42398Y328202D01*
X38682Y331918D01*
X36671Y336773D01*
X36671Y342027D01*
X38682Y346882D01*
X42133Y350333D01*
X42165Y350371D01*
X42202Y350405D01*
X42308Y350543D01*
X42419Y350676D01*
X42444Y350719D01*
X42474Y350759D01*
X42554Y350913D01*
X42640Y351064D01*
X42657Y351111D01*
X42680Y351156D01*
X42730Y351321D01*
X42788Y351485D01*
X42796Y351535D01*
X42811Y351583D01*
X42831Y351755D01*
X42859Y351926D01*
X42858Y351976D01*
X42864Y352026D01*
X42853Y352200D01*
X42850Y352373D01*
X42840Y352422D01*
X42837Y352472D01*
X42796Y352641D01*
X42762Y352811D01*
X42743Y352857D01*
X42731Y352906D01*
X42661Y353065D01*
X42597Y353226D01*
X42570Y353269D01*
X42550Y353314D01*
X42452Y353458D01*
X42361Y353605D01*
X42327Y353642D01*
X42299Y353684D01*
X42133Y353867D01*
X38682Y357318D01*
X36671Y362173D01*
X36671Y367427D01*
X38682Y372282D01*
X42133Y375733D01*
X42165Y375771D01*
X42202Y375805D01*
X42308Y375943D01*
X42419Y376076D01*
X42444Y376119D01*
X42474Y376159D01*
X42554Y376313D01*
X42640Y376464D01*
X42657Y376511D01*
X42680Y376556D01*
X42730Y376721D01*
X42788Y376885D01*
X42796Y376935D01*
X42811Y376983D01*
X42831Y377155D01*
X42859Y377326D01*
X42858Y377376D01*
X42864Y377426D01*
X42853Y377600D01*
X42850Y377773D01*
X42840Y377822D01*
X42837Y377872D01*
X42796Y378041D01*
X42762Y378211D01*
X42743Y378257D01*
X42731Y378306D01*
X42661Y378465D01*
X42597Y378626D01*
X42570Y378669D01*
X42550Y378714D01*
X42452Y378858D01*
X42361Y379005D01*
X42327Y379042D01*
X42299Y379084D01*
X42133Y379267D01*
X38682Y382718D01*
X36671Y387573D01*
X36671Y392827D01*
X38682Y397682D01*
X42133Y401133D01*
X42165Y401171D01*
X42202Y401205D01*
X42308Y401343D01*
X42419Y401476D01*
X42444Y401519D01*
X42474Y401559D01*
X42554Y401713D01*
X42640Y401864D01*
X42657Y401911D01*
X42680Y401956D01*
X42730Y402121D01*
X42788Y402285D01*
X42796Y402335D01*
X42811Y402383D01*
X42831Y402555D01*
X42859Y402726D01*
X42858Y402776D01*
X42864Y402826D01*
X42853Y403000D01*
X42850Y403173D01*
X42840Y403222D01*
X42837Y403272D01*
X42796Y403441D01*
X42762Y403611D01*
X42743Y403657D01*
X42731Y403706D01*
X42661Y403865D01*
X42597Y404026D01*
X42570Y404069D01*
X42550Y404114D01*
X42452Y404258D01*
X42361Y404405D01*
X42327Y404442D01*
X42299Y404484D01*
X42133Y404667D01*
X38682Y408118D01*
X36671Y412973D01*
X36671Y418227D01*
X38682Y423082D01*
X42398Y426798D01*
X47253Y428809D01*
X67747Y428809D01*
X72602Y426798D01*
X76318Y423082D01*
X78329Y418227D01*
X78329Y412973D01*
X76318Y408118D01*
X72867Y404667D01*
X72835Y404629D01*
X72798Y404595D01*
X72692Y404457D01*
X72581Y404324D01*
X72556Y404281D01*
X72525Y404241D01*
X72446Y404086D01*
X72360Y403936D01*
X72343Y403889D01*
X72320Y403844D01*
X72270Y403678D01*
X72212Y403515D01*
X72204Y403465D01*
X72189Y403417D01*
X72169Y403245D01*
X72141Y403074D01*
X72142Y403023D01*
X72136Y402973D01*
X72147Y402801D01*
X72150Y402627D01*
X72160Y402578D01*
X72163Y402528D01*
X72204Y402359D01*
X72238Y402189D01*
X72257Y402142D01*
X72269Y402094D01*
X72339Y401935D01*
X72403Y401774D01*
X72430Y401731D01*
X72450Y401685D01*
X72548Y401542D01*
X72639Y401395D01*
X72673Y401358D01*
X72701Y401316D01*
X72867Y401133D01*
X72979Y401021D01*
X73122Y400901D01*
X73262Y400777D01*
X73294Y400758D01*
X73322Y400734D01*
X73485Y400642D01*
X73644Y400545D01*
X73678Y400532D01*
X73711Y400513D01*
X73886Y400452D01*
X74060Y400385D01*
X74097Y400378D01*
X74132Y400365D01*
X74316Y400336D01*
X74499Y400301D01*
X74550Y400298D01*
X74573Y400295D01*
X74610Y400295D01*
X74746Y400289D01*
X84786Y400289D01*
X84972Y400305D01*
X85158Y400317D01*
X85194Y400325D01*
X85231Y400329D01*
X85411Y400378D01*
X85592Y400422D01*
X85626Y400437D01*
X85662Y400447D01*
X85830Y400528D01*
X86000Y400604D01*
X86031Y400624D01*
X86064Y400640D01*
X86215Y400750D01*
X86370Y400855D01*
X86407Y400889D01*
X86426Y400902D01*
X86452Y400929D01*
X86553Y401021D01*
X106785Y421253D01*
X110493Y422789D01*
X132602Y422789D01*
X132788Y422805D01*
X132974Y422817D01*
X133010Y422825D01*
X133047Y422829D01*
X133228Y422878D01*
X133408Y422922D01*
X133442Y422937D01*
X133478Y422947D01*
X133646Y423028D01*
X133817Y423104D01*
X133847Y423124D01*
X133881Y423140D01*
X134032Y423250D01*
X134186Y423355D01*
X134224Y423389D01*
X134243Y423402D01*
X134268Y423429D01*
X134370Y423521D01*
X136785Y425937D01*
X141267Y427793D01*
X159325Y427793D01*
X163807Y425937D01*
X167237Y422507D01*
X169093Y418025D01*
X169093Y413175D01*
X169012Y412979D01*
X168958Y412808D01*
X168898Y412638D01*
X168891Y412595D01*
X168878Y412553D01*
X168856Y412374D01*
X168828Y412196D01*
X168828Y412153D01*
X168823Y412110D01*
X168833Y411930D01*
X168836Y411750D01*
X168845Y411707D01*
X168847Y411664D01*
X168889Y411488D01*
X168925Y411312D01*
X168941Y411272D01*
X168951Y411229D01*
X169023Y411064D01*
X169090Y410897D01*
X169113Y410860D01*
X169130Y410820D01*
X169231Y410670D01*
X169326Y410518D01*
X169355Y410485D01*
X169379Y410449D01*
X169505Y410320D01*
X169626Y410186D01*
X169660Y410160D01*
X169690Y410129D01*
X169837Y410024D01*
X169980Y409914D01*
X170018Y409894D01*
X170054Y409869D01*
X170216Y409792D01*
X170376Y409709D01*
X170418Y409696D01*
X170457Y409678D01*
X170632Y409631D01*
X170803Y409578D01*
X170846Y409573D01*
X170889Y409561D01*
X171068Y409546D01*
X171247Y409525D01*
X171290Y409527D01*
X171334Y409524D01*
X171513Y409541D01*
X171693Y409551D01*
X171735Y409562D01*
X171778Y409566D01*
X171952Y409615D01*
X172127Y409657D01*
X172167Y409675D01*
X172208Y409687D01*
X172370Y409765D01*
X172535Y409838D01*
X172571Y409863D01*
X172610Y409882D01*
X172755Y409988D01*
X172905Y410089D01*
X172949Y410130D01*
X172971Y410146D01*
X172996Y410173D01*
X173088Y410256D01*
X213885Y451053D01*
X217593Y452589D01*
X254507Y452589D01*
X258215Y451053D01*
X273553Y435715D01*
X275089Y432007D01*
X275089Y423649D01*
X275105Y423470D01*
X275115Y423290D01*
X275125Y423247D01*
X275129Y423204D01*
X275176Y423030D01*
X275218Y422855D01*
X275236Y422815D01*
X275247Y422773D01*
X275325Y422611D01*
X275397Y422446D01*
X275422Y422410D01*
X275440Y422371D01*
X275546Y422225D01*
X275646Y422075D01*
X275677Y422044D01*
X275702Y422009D01*
X275832Y421884D01*
X275958Y421755D01*
X275993Y421729D01*
X276024Y421699D01*
X276174Y421600D01*
X276321Y421495D01*
X276360Y421476D01*
X276396Y421452D01*
X276562Y421381D01*
X276725Y421304D01*
X276767Y421292D01*
X276807Y421275D01*
X276981Y421234D01*
X277156Y421187D01*
X277199Y421184D01*
X277242Y421174D01*
X277421Y421165D01*
X277601Y421150D01*
X277644Y421154D01*
X277688Y421152D01*
X277866Y421175D01*
X278046Y421192D01*
X278088Y421204D01*
X278131Y421209D01*
X278302Y421264D01*
X278476Y421313D01*
X278515Y421332D01*
X278556Y421345D01*
X278715Y421429D01*
X278877Y421508D01*
X278913Y421534D01*
X278951Y421554D01*
X279092Y421665D01*
X279238Y421772D01*
X279268Y421803D01*
X279302Y421830D01*
X279422Y421965D01*
X279546Y422096D01*
X279570Y422132D01*
X279599Y422164D01*
X279692Y422318D01*
X279791Y422469D01*
X279817Y422523D01*
X279831Y422546D01*
X279844Y422581D01*
X279897Y422693D01*
X280855Y425007D01*
X284285Y428437D01*
X288767Y430293D01*
X306825Y430293D01*
X311307Y428437D01*
X314737Y425007D01*
X316593Y420525D01*
X316593Y415675D01*
X314737Y411193D01*
X311307Y407764D01*
X311175Y407709D01*
X311054Y407646D01*
X310929Y407591D01*
X310856Y407542D01*
X310779Y407502D01*
X310671Y407418D01*
X310558Y407342D01*
X310495Y407281D01*
X310427Y407228D01*
X310335Y407126D01*
X310237Y407030D01*
X310187Y406960D01*
X310129Y406895D01*
X310057Y406778D01*
X309977Y406667D01*
X309940Y406589D01*
X309895Y406515D01*
X309845Y406387D01*
X309786Y406263D01*
X309763Y406179D01*
X309732Y406099D01*
X309706Y405964D01*
X309670Y405832D01*
X309663Y405746D01*
X309646Y405660D01*
X309644Y405523D01*
X309632Y405387D01*
X309640Y405300D01*
X309639Y405214D01*
X309662Y405079D01*
X309674Y404942D01*
X309698Y404858D01*
X309712Y404773D01*
X309758Y404644D01*
X309795Y404512D01*
X309833Y404434D01*
X309862Y404352D01*
X309931Y404234D01*
X309991Y404111D01*
X310042Y404040D01*
X310085Y403965D01*
X310174Y403860D01*
X310254Y403750D01*
X310317Y403690D01*
X310373Y403624D01*
X310479Y403536D01*
X310578Y403442D01*
X310651Y403395D01*
X310718Y403339D01*
X310837Y403272D01*
X310951Y403197D01*
X311075Y403138D01*
X311107Y403120D01*
X311129Y403113D01*
X311175Y403091D01*
X311307Y403037D01*
X314737Y399607D01*
X316593Y395125D01*
X316593Y390275D01*
X314737Y385793D01*
X311307Y382364D01*
X311175Y382309D01*
X311054Y382246D01*
X310929Y382191D01*
X310856Y382142D01*
X310779Y382102D01*
X310671Y382018D01*
X310558Y381942D01*
X310495Y381881D01*
X310427Y381828D01*
X310335Y381726D01*
X310237Y381630D01*
X310187Y381560D01*
X310129Y381495D01*
X310057Y381378D01*
X309977Y381267D01*
X309940Y381189D01*
X309895Y381115D01*
X309845Y380987D01*
X309786Y380863D01*
X309763Y380779D01*
X309732Y380699D01*
X309706Y380564D01*
X309670Y380432D01*
X309663Y380346D01*
X309646Y380260D01*
X309644Y380123D01*
X309632Y379987D01*
X309640Y379900D01*
X309639Y379814D01*
X309662Y379679D01*
X309674Y379542D01*
X309698Y379458D01*
X309712Y379373D01*
X309758Y379244D01*
X309795Y379112D01*
X309833Y379034D01*
X309862Y378952D01*
X309931Y378834D01*
X309991Y378711D01*
X310042Y378640D01*
X310085Y378565D01*
X310174Y378460D01*
X310254Y378350D01*
X310317Y378290D01*
X310373Y378224D01*
X310479Y378136D01*
X310578Y378042D01*
X310651Y377995D01*
X310718Y377939D01*
X310837Y377872D01*
X310951Y377797D01*
X311075Y377738D01*
X311107Y377720D01*
X311129Y377713D01*
X311175Y377691D01*
X311307Y377637D01*
X314737Y374207D01*
X316593Y369725D01*
X316593Y364875D01*
X314737Y360393D01*
X311307Y356964D01*
X311175Y356909D01*
X311054Y356846D01*
X310929Y356791D01*
X310856Y356742D01*
X310779Y356702D01*
X310671Y356618D01*
X310558Y356542D01*
X310495Y356481D01*
X310427Y356428D01*
X310335Y356326D01*
X310237Y356230D01*
X310187Y356160D01*
X310129Y356095D01*
X310057Y355978D01*
X309977Y355867D01*
X309940Y355789D01*
X309895Y355715D01*
X309845Y355587D01*
X309786Y355463D01*
X309763Y355379D01*
X309732Y355299D01*
X309706Y355164D01*
X309670Y355032D01*
X309663Y354946D01*
X309646Y354860D01*
X309644Y354723D01*
X309632Y354587D01*
X309640Y354500D01*
X309639Y354414D01*
X309662Y354279D01*
X309674Y354142D01*
X309698Y354058D01*
X309712Y353973D01*
X309758Y353844D01*
X309795Y353712D01*
X309833Y353634D01*
X309862Y353552D01*
X309931Y353434D01*
X309991Y353311D01*
X310042Y353240D01*
X310085Y353165D01*
X310174Y353060D01*
X310254Y352950D01*
X310317Y352890D01*
X310373Y352824D01*
X310479Y352736D01*
X310578Y352642D01*
X310651Y352595D01*
X310718Y352539D01*
X310837Y352472D01*
X310951Y352397D01*
X311075Y352338D01*
X311107Y352320D01*
X311129Y352313D01*
X311175Y352291D01*
X311307Y352237D01*
X314737Y348807D01*
X316593Y344325D01*
X316593Y339475D01*
X314737Y334993D01*
X311426Y331683D01*
X311339Y331578D01*
X311244Y331480D01*
X311196Y331407D01*
X311140Y331340D01*
X311072Y331222D01*
X310997Y331108D01*
X310962Y331028D01*
X310919Y330952D01*
X310874Y330823D01*
X310820Y330697D01*
X310800Y330613D01*
X310771Y330531D01*
X310749Y330395D01*
X310718Y330262D01*
X310714Y330176D01*
X310700Y330090D01*
X310703Y329953D01*
X310696Y329816D01*
X310708Y329730D01*
X310709Y329643D01*
X310736Y329509D01*
X310754Y329373D01*
X310780Y329290D01*
X310798Y329205D01*
X310848Y329078D01*
X310890Y328948D01*
X310930Y328871D01*
X310962Y328790D01*
X311035Y328674D01*
X311099Y328553D01*
X311153Y328485D01*
X311198Y328411D01*
X311290Y328309D01*
X311375Y328202D01*
X311440Y328144D01*
X311498Y328080D01*
X311607Y327996D01*
X311709Y327905D01*
X311783Y327860D01*
X311852Y327807D01*
X311974Y327744D01*
X312091Y327673D01*
X312172Y327642D01*
X312249Y327602D01*
X312380Y327562D01*
X312508Y327513D01*
X312593Y327496D01*
X312676Y327471D01*
X312812Y327455D01*
X312946Y327429D01*
X313083Y327422D01*
X313120Y327418D01*
X313143Y327419D01*
X313194Y327417D01*
X371806Y327417D01*
X371943Y327429D01*
X372079Y327432D01*
X372165Y327449D01*
X372251Y327457D01*
X372383Y327493D01*
X372517Y327520D01*
X372598Y327552D01*
X372682Y327575D01*
X372805Y327634D01*
X372933Y327685D01*
X373006Y327731D01*
X373085Y327768D01*
X373196Y327849D01*
X373312Y327921D01*
X373376Y327979D01*
X373447Y328030D01*
X373542Y328129D01*
X373643Y328221D01*
X373696Y328290D01*
X373756Y328352D01*
X373832Y328466D01*
X373915Y328575D01*
X373955Y328652D01*
X374003Y328724D01*
X374058Y328850D01*
X374120Y328972D01*
X374146Y329055D01*
X374180Y329135D01*
X374211Y329268D01*
X374252Y329399D01*
X374262Y329485D01*
X374282Y329570D01*
X374288Y329706D01*
X374305Y329842D01*
X374299Y329929D01*
X374304Y330016D01*
X374286Y330151D01*
X374278Y330288D01*
X374257Y330373D01*
X374246Y330459D01*
X374204Y330589D01*
X374172Y330722D01*
X374137Y330801D01*
X374110Y330884D01*
X374046Y331005D01*
X373991Y331130D01*
X373942Y331202D01*
X373901Y331279D01*
X373817Y331387D01*
X373740Y331500D01*
X373648Y331601D01*
X373625Y331630D01*
X373607Y331646D01*
X373574Y331683D01*
X370263Y334993D01*
X368407Y339475D01*
X368407Y344325D01*
X370263Y348807D01*
X373693Y352237D01*
X377842Y353955D01*
X377852Y353960D01*
X377863Y353964D01*
X378050Y354064D01*
X378237Y354162D01*
X378246Y354169D01*
X378256Y354174D01*
X378423Y354306D01*
X378590Y354436D01*
X378598Y354445D01*
X378607Y354452D01*
X378746Y354611D01*
X378888Y354769D01*
X378894Y354779D01*
X378902Y354787D01*
X379011Y354969D01*
X379122Y355149D01*
X379126Y355160D01*
X379132Y355170D01*
X379208Y355368D01*
X379285Y355565D01*
X379287Y355576D01*
X379291Y355587D01*
X379330Y355795D01*
X379371Y356004D01*
X379371Y356015D01*
X379373Y356026D01*
X379374Y356239D01*
X379378Y356450D01*
X379376Y356461D01*
X379376Y356473D01*
X379339Y356682D01*
X379305Y356891D01*
X379301Y356902D01*
X379299Y356913D01*
X379225Y357113D01*
X379154Y357312D01*
X379149Y357321D01*
X379145Y357332D01*
X379037Y357516D01*
X378931Y357699D01*
X378924Y357708D01*
X378918Y357717D01*
X378780Y357879D01*
X378643Y358040D01*
X378635Y358047D01*
X378627Y358056D01*
X378461Y358191D01*
X378299Y358325D01*
X378289Y358330D01*
X378280Y358337D01*
X378093Y358441D01*
X377910Y358544D01*
X377899Y358547D01*
X377889Y358553D01*
X377658Y358641D01*
X377090Y358825D01*
X375807Y359479D01*
X374643Y360325D01*
X373625Y361343D01*
X372779Y362507D01*
X372125Y363790D01*
X371797Y364801D01*
X380600Y364801D01*
X402611Y364801D01*
X402283Y363790D01*
X401629Y362507D01*
X400783Y361343D01*
X399765Y360325D01*
X398601Y359479D01*
X397318Y358825D01*
X396750Y358641D01*
X396740Y358636D01*
X396729Y358634D01*
X396537Y358549D01*
X396340Y358465D01*
X396330Y358459D01*
X396320Y358454D01*
X396145Y358337D01*
X395967Y358220D01*
X395958Y358212D01*
X395949Y358205D01*
X395795Y358056D01*
X395643Y357911D01*
X395637Y357902D01*
X395628Y357894D01*
X395505Y357722D01*
X395380Y357550D01*
X395375Y357540D01*
X395369Y357531D01*
X395278Y357340D01*
X395185Y357148D01*
X395182Y357137D01*
X395177Y357127D01*
X395122Y356921D01*
X395065Y356718D01*
X395064Y356707D01*
X395061Y356696D01*
X395043Y356483D01*
X395023Y356273D01*
X395024Y356262D01*
X395023Y356251D01*
X395044Y356040D01*
X395062Y355828D01*
X395065Y355817D01*
X395066Y355806D01*
X395123Y355603D01*
X395179Y355397D01*
X395183Y355387D01*
X395186Y355376D01*
X395280Y355184D01*
X395370Y354994D01*
X395377Y354985D01*
X395382Y354974D01*
X395508Y354802D01*
X395631Y354631D01*
X395639Y354623D01*
X395646Y354614D01*
X395798Y354468D01*
X395952Y354320D01*
X395961Y354314D01*
X395969Y354306D01*
X396146Y354190D01*
X396323Y354071D01*
X396333Y354067D01*
X396343Y354061D01*
X396566Y353955D01*
X400715Y352237D01*
X404145Y348807D01*
X406001Y344325D01*
X406001Y339475D01*
X404145Y334993D01*
X400834Y331683D01*
X400747Y331578D01*
X400652Y331480D01*
X400604Y331407D01*
X400548Y331340D01*
X400480Y331222D01*
X400405Y331108D01*
X400370Y331028D01*
X400327Y330952D01*
X400282Y330823D01*
X400228Y330697D01*
X400208Y330613D01*
X400179Y330531D01*
X400157Y330395D01*
X400126Y330262D01*
X400122Y330176D01*
X400108Y330090D01*
X400111Y329953D01*
X400104Y329816D01*
X400116Y329730D01*
X400117Y329643D01*
X400144Y329509D01*
X400162Y329373D01*
X400188Y329290D01*
X400206Y329205D01*
X400256Y329078D01*
X400298Y328948D01*
X400338Y328871D01*
X400370Y328790D01*
X400443Y328674D01*
X400507Y328553D01*
X400561Y328485D01*
X400606Y328411D01*
X400698Y328309D01*
X400783Y328202D01*
X400848Y328144D01*
X400906Y328080D01*
X401015Y327996D01*
X401117Y327905D01*
X401191Y327860D01*
X401260Y327807D01*
X401382Y327744D01*
X401499Y327673D01*
X401580Y327642D01*
X401657Y327602D01*
X401788Y327562D01*
X401916Y327513D01*
X402001Y327496D01*
X402084Y327471D01*
X402220Y327455D01*
X402354Y327429D01*
X402491Y327422D01*
X402528Y327418D01*
X402551Y327419D01*
X402602Y327417D01*
X422914Y327417D01*
X423100Y327433D01*
X423286Y327445D01*
X423322Y327453D01*
X423359Y327457D01*
X423539Y327506D01*
X423720Y327550D01*
X423754Y327565D01*
X423790Y327575D01*
X423958Y327656D01*
X424128Y327732D01*
X424159Y327752D01*
X424192Y327768D01*
X424343Y327878D01*
X424498Y327983D01*
X424535Y328017D01*
X424554Y328030D01*
X424580Y328057D01*
X424681Y328149D01*
X429143Y332610D01*
X429147Y332615D01*
X429152Y332619D01*
X429290Y332787D01*
X429429Y332953D01*
X429432Y332959D01*
X429436Y332964D01*
X429543Y333154D01*
X429650Y333341D01*
X429652Y333348D01*
X429655Y333353D01*
X429726Y333558D01*
X429798Y333763D01*
X429799Y333769D01*
X429801Y333775D01*
X429834Y333989D01*
X429869Y334204D01*
X429868Y334210D01*
X429869Y334217D01*
X429864Y334435D01*
X429860Y334650D01*
X429858Y334657D01*
X429858Y334663D01*
X429814Y334879D01*
X429771Y335088D01*
X429769Y335094D01*
X429768Y335101D01*
X429684Y335334D01*
X429171Y336573D01*
X429171Y341827D01*
X431182Y346682D01*
X434633Y350133D01*
X434665Y350171D01*
X434702Y350205D01*
X434808Y350343D01*
X434919Y350476D01*
X434944Y350519D01*
X434974Y350559D01*
X435054Y350713D01*
X435140Y350864D01*
X435157Y350911D01*
X435180Y350956D01*
X435230Y351121D01*
X435288Y351285D01*
X435296Y351335D01*
X435311Y351383D01*
X435331Y351555D01*
X435359Y351726D01*
X435358Y351776D01*
X435364Y351826D01*
X435353Y352000D01*
X435350Y352173D01*
X435340Y352222D01*
X435337Y352272D01*
X435296Y352441D01*
X435262Y352611D01*
X435243Y352657D01*
X435231Y352706D01*
X435161Y352865D01*
X435097Y353026D01*
X435070Y353069D01*
X435050Y353114D01*
X434952Y353258D01*
X434861Y353405D01*
X434827Y353442D01*
X434799Y353484D01*
X434633Y353667D01*
X431182Y357118D01*
X429171Y361973D01*
X429171Y367227D01*
X431182Y372082D01*
X434633Y375533D01*
X434665Y375571D01*
X434702Y375605D01*
X434808Y375743D01*
X434919Y375876D01*
X434944Y375919D01*
X434974Y375959D01*
X435054Y376113D01*
X435140Y376264D01*
X435157Y376311D01*
X435180Y376356D01*
X435230Y376521D01*
X435288Y376685D01*
X435296Y376735D01*
X435311Y376783D01*
X435331Y376955D01*
X435359Y377126D01*
X435358Y377176D01*
X435364Y377226D01*
X435353Y377400D01*
X435350Y377573D01*
X435340Y377622D01*
X435337Y377672D01*
X435296Y377841D01*
X435262Y378011D01*
X435243Y378057D01*
X435231Y378106D01*
X435161Y378265D01*
X435097Y378426D01*
X435070Y378469D01*
X435050Y378514D01*
X434952Y378658D01*
X434861Y378805D01*
X434827Y378842D01*
X434799Y378884D01*
X434633Y379067D01*
X431182Y382518D01*
X429171Y387373D01*
X429171Y392627D01*
X431182Y397482D01*
X434633Y400933D01*
X434665Y400971D01*
X434702Y401005D01*
X434808Y401143D01*
X434919Y401276D01*
X434944Y401319D01*
X434974Y401359D01*
X435054Y401513D01*
X435140Y401664D01*
X435157Y401711D01*
X435180Y401756D01*
X435230Y401921D01*
X435288Y402085D01*
X435296Y402135D01*
X435311Y402183D01*
X435331Y402355D01*
X435359Y402526D01*
X435358Y402576D01*
X435364Y402626D01*
X435353Y402800D01*
X435350Y402973D01*
X435340Y403022D01*
X435337Y403072D01*
X435296Y403241D01*
X435262Y403411D01*
X435243Y403457D01*
X435231Y403506D01*
X435161Y403665D01*
X435097Y403826D01*
X435070Y403869D01*
X435050Y403914D01*
X434952Y404058D01*
X434861Y404205D01*
X434827Y404242D01*
X434799Y404284D01*
X434633Y404467D01*
X431182Y407918D01*
X429171Y412773D01*
X429171Y418027D01*
X431182Y422882D01*
X434898Y426598D01*
X437046Y427488D01*
X437080Y427506D01*
X437117Y427518D01*
X437278Y427609D01*
X437442Y427695D01*
X437472Y427719D01*
X437506Y427738D01*
X437648Y427855D01*
X437794Y427969D01*
X437820Y427998D01*
X437850Y428023D01*
X437969Y428164D01*
X438092Y428302D01*
X438113Y428335D01*
X438138Y428364D01*
X438230Y428525D01*
X438326Y428682D01*
X438341Y428718D01*
X438360Y428752D01*
X438422Y428926D01*
X438489Y429098D01*
X438497Y429136D01*
X438510Y429173D01*
X438540Y429355D01*
X438575Y429536D01*
X438576Y429575D01*
X438582Y429613D01*
X438579Y429798D01*
X438582Y429983D01*
X438575Y430021D01*
X438575Y430060D01*
X438539Y430241D01*
X438509Y430424D01*
X438496Y430460D01*
X438488Y430498D01*
X438421Y430670D01*
X438358Y430844D01*
X438339Y430878D01*
X438325Y430914D01*
X438228Y431071D01*
X438136Y431232D01*
X438111Y431261D01*
X438090Y431294D01*
X437967Y431432D01*
X437847Y431573D01*
X437818Y431598D01*
X437792Y431626D01*
X437645Y431740D01*
X437503Y431858D01*
X437469Y431876D01*
X437439Y431900D01*
X437224Y432023D01*
X437055Y432110D01*
X435761Y433050D01*
X434630Y434181D01*
X433690Y435475D01*
X432964Y436900D01*
X432521Y438261D01*
X449960Y438261D01*
X449988Y438263D01*
X450040Y438261D01*
X467479Y438261D01*
X467036Y436900D01*
X466310Y435475D01*
X465370Y434181D01*
X464239Y433050D01*
X462945Y432110D01*
X462776Y432023D01*
X462743Y432003D01*
X462708Y431987D01*
X462554Y431884D01*
X462398Y431786D01*
X462369Y431760D01*
X462337Y431738D01*
X462204Y431609D01*
X462068Y431485D01*
X462044Y431454D01*
X462016Y431427D01*
X461908Y431276D01*
X461797Y431130D01*
X461779Y431095D01*
X461756Y431064D01*
X461677Y430896D01*
X461593Y430732D01*
X461582Y430695D01*
X461565Y430660D01*
X461517Y430481D01*
X461463Y430305D01*
X461459Y430266D01*
X461449Y430229D01*
X461433Y430044D01*
X461412Y429861D01*
X461415Y429822D01*
X461411Y429784D01*
X461429Y429600D01*
X461441Y429415D01*
X461450Y429377D01*
X461454Y429339D01*
X461503Y429161D01*
X461548Y428981D01*
X461564Y428946D01*
X461574Y428909D01*
X461655Y428742D01*
X461731Y428574D01*
X461753Y428542D01*
X461770Y428507D01*
X461879Y428358D01*
X461983Y428205D01*
X462010Y428178D01*
X462033Y428147D01*
X462167Y428019D01*
X462297Y427888D01*
X462329Y427865D01*
X462357Y427839D01*
X462512Y427737D01*
X462663Y427631D01*
X462698Y427615D01*
X462730Y427593D01*
X462954Y427488D01*
X465102Y426598D01*
X468818Y422882D01*
X470829Y418027D01*
X470829Y412773D01*
X468818Y407918D01*
X465367Y404467D01*
X465335Y404429D01*
X465298Y404395D01*
X465192Y404258D01*
X465081Y404124D01*
X465056Y404081D01*
X465026Y404041D01*
X464946Y403887D01*
X464860Y403736D01*
X464843Y403689D01*
X464820Y403644D01*
X464770Y403479D01*
X464712Y403315D01*
X464704Y403265D01*
X464689Y403217D01*
X464669Y403045D01*
X464641Y402874D01*
X464642Y402823D01*
X464636Y402774D01*
X464647Y402600D01*
X464650Y402427D01*
X464660Y402378D01*
X464663Y402328D01*
X464704Y402159D01*
X464738Y401989D01*
X464757Y401943D01*
X464769Y401894D01*
X464839Y401735D01*
X464903Y401574D01*
X464930Y401531D01*
X464950Y401486D01*
X465048Y401342D01*
X465139Y401195D01*
X465173Y401158D01*
X465201Y401116D01*
X465367Y400933D01*
X468818Y397482D01*
X468840Y397428D01*
X468907Y397301D01*
X468965Y397170D01*
X469010Y397104D01*
X469047Y397032D01*
X469135Y396919D01*
X469216Y396801D01*
X469299Y396709D01*
X469322Y396680D01*
X469342Y396662D01*
X469382Y396617D01*
X471768Y394231D01*
X471769Y394230D01*
X482917Y383082D01*
X482921Y383074D01*
X482966Y383008D01*
X483003Y382936D01*
X483091Y382823D01*
X483172Y382705D01*
X483255Y382613D01*
X483277Y382584D01*
X483297Y382566D01*
X483338Y382521D01*
X499357Y366502D01*
X500589Y363529D01*
X500589Y318391D01*
X499357Y315418D01*
X498204Y314265D01*
X498089Y314127D01*
X497969Y313993D01*
X497946Y313956D01*
X497918Y313922D01*
X497829Y313765D01*
X497735Y313612D01*
X497719Y313572D01*
X497697Y313534D01*
X497637Y313364D01*
X497572Y313196D01*
X497563Y313153D01*
X497549Y313113D01*
X497521Y312935D01*
X497486Y312758D01*
X497485Y312714D01*
X497478Y312672D01*
X497482Y312492D01*
X497479Y312311D01*
X497486Y312268D01*
X497487Y312225D01*
X497523Y312049D01*
X497552Y311871D01*
X497567Y311830D01*
X497576Y311787D01*
X497642Y311620D01*
X497703Y311450D01*
X497724Y311412D01*
X497740Y311372D01*
X497836Y311219D01*
X497925Y311063D01*
X497953Y311030D01*
X497976Y310993D01*
X498098Y310859D01*
X498214Y310721D01*
X498247Y310694D01*
X498276Y310661D01*
X498419Y310551D01*
X498558Y310437D01*
X498596Y310416D01*
X498630Y310389D01*
X498790Y310306D01*
X498947Y310218D01*
X498988Y310204D01*
X499027Y310184D01*
X499199Y310131D01*
X499369Y310072D01*
X499413Y310066D01*
X499454Y310053D01*
X499633Y310031D01*
X499811Y310004D01*
X499855Y310005D01*
X499898Y310000D01*
X500077Y310011D01*
X500257Y310015D01*
X500300Y310024D01*
X500344Y310026D01*
X500518Y310069D01*
X500695Y310106D01*
X500751Y310126D01*
X500778Y310132D01*
X500812Y310147D01*
X500928Y310189D01*
X502473Y310829D01*
X507727Y310829D01*
X512582Y308818D01*
X516033Y305367D01*
X516071Y305335D01*
X516105Y305298D01*
X516243Y305192D01*
X516376Y305081D01*
X516419Y305056D01*
X516459Y305026D01*
X516613Y304946D01*
X516764Y304860D01*
X516811Y304843D01*
X516856Y304820D01*
X517021Y304770D01*
X517185Y304712D01*
X517235Y304704D01*
X517283Y304689D01*
X517455Y304669D01*
X517626Y304641D01*
X517676Y304642D01*
X517726Y304636D01*
X517900Y304647D01*
X518073Y304650D01*
X518122Y304660D01*
X518172Y304663D01*
X518341Y304704D01*
X518511Y304738D01*
X518557Y304757D01*
X518606Y304769D01*
X518765Y304839D01*
X518926Y304903D01*
X518969Y304930D01*
X519014Y304950D01*
X519158Y305048D01*
X519305Y305139D01*
X519342Y305173D01*
X519384Y305201D01*
X519567Y305367D01*
X523018Y308818D01*
X527873Y310829D01*
X533127Y310829D01*
X537982Y308818D01*
X541433Y305367D01*
X541471Y305335D01*
X541505Y305298D01*
X541643Y305192D01*
X541776Y305081D01*
X541819Y305056D01*
X541859Y305026D01*
X542013Y304946D01*
X542164Y304860D01*
X542211Y304843D01*
X542256Y304820D01*
X542421Y304770D01*
X542585Y304712D01*
X542635Y304704D01*
X542683Y304689D01*
X542855Y304669D01*
X543026Y304641D01*
X543076Y304642D01*
X543126Y304636D01*
X543300Y304647D01*
X543473Y304650D01*
X543522Y304660D01*
X543572Y304663D01*
X543741Y304704D01*
X543911Y304738D01*
X543957Y304757D01*
X544006Y304769D01*
X544165Y304839D01*
X544326Y304903D01*
X544369Y304930D01*
X544414Y304950D01*
X544558Y305048D01*
X544705Y305139D01*
X544742Y305173D01*
X544784Y305201D01*
X544967Y305367D01*
X548418Y308818D01*
X553273Y310829D01*
X558527Y310829D01*
X563382Y308818D01*
X566833Y305367D01*
X566871Y305335D01*
X566905Y305298D01*
X567043Y305192D01*
X567176Y305081D01*
X567219Y305056D01*
X567259Y305026D01*
X567413Y304946D01*
X567564Y304860D01*
X567611Y304843D01*
X567656Y304820D01*
X567821Y304770D01*
X567985Y304712D01*
X568035Y304704D01*
X568083Y304689D01*
X568255Y304669D01*
X568426Y304641D01*
X568476Y304642D01*
X568526Y304636D01*
X568700Y304647D01*
X568873Y304650D01*
X568922Y304660D01*
X568972Y304663D01*
X569141Y304704D01*
X569311Y304738D01*
X569357Y304757D01*
X569406Y304769D01*
X569565Y304839D01*
X569726Y304903D01*
X569769Y304930D01*
X569814Y304950D01*
X569958Y305048D01*
X570105Y305139D01*
X570142Y305173D01*
X570184Y305201D01*
X570367Y305367D01*
X573818Y308818D01*
X578673Y310829D01*
X583927Y310829D01*
X588782Y308818D01*
X592498Y305102D01*
X594509Y300247D01*
X594509Y279753D01*
X592498Y274898D01*
X588782Y271182D01*
X583927Y269171D01*
X578673Y269171D01*
X573818Y271182D01*
X570367Y274633D01*
X570329Y274665D01*
X570295Y274702D01*
X570158Y274808D01*
X570024Y274919D01*
X569981Y274944D01*
X569941Y274974D01*
X569787Y275054D01*
X569636Y275140D01*
X569589Y275157D01*
X569544Y275180D01*
X569379Y275230D01*
X569215Y275288D01*
X569165Y275296D01*
X569117Y275311D01*
X568945Y275331D01*
X568774Y275359D01*
X568723Y275358D01*
X568674Y275364D01*
X568500Y275353D01*
X568327Y275350D01*
X568278Y275340D01*
X568228Y275337D01*
X568059Y275296D01*
X567889Y275262D01*
X567843Y275243D01*
X567794Y275231D01*
X567635Y275161D01*
X567474Y275097D01*
X567431Y275070D01*
X567386Y275050D01*
X567242Y274952D01*
X567095Y274861D01*
X567058Y274827D01*
X567016Y274799D01*
X566833Y274633D01*
X563382Y271182D01*
X558527Y269171D01*
X553273Y269171D01*
X548418Y271182D01*
X544967Y274633D01*
X544929Y274665D01*
X544895Y274702D01*
X544758Y274808D01*
X544624Y274919D01*
X544581Y274944D01*
X544541Y274974D01*
X544387Y275054D01*
X544236Y275140D01*
X544189Y275157D01*
X544144Y275180D01*
X543979Y275230D01*
X543815Y275288D01*
X543765Y275296D01*
X543717Y275311D01*
X543545Y275331D01*
X543374Y275359D01*
X543323Y275358D01*
X543274Y275364D01*
X543100Y275353D01*
X542927Y275350D01*
X542878Y275340D01*
X542828Y275337D01*
X542659Y275296D01*
X542489Y275262D01*
X542443Y275243D01*
X542394Y275231D01*
X542235Y275161D01*
X542074Y275097D01*
X542031Y275070D01*
X541986Y275050D01*
X541842Y274952D01*
X541695Y274861D01*
X541658Y274827D01*
X541616Y274799D01*
X541433Y274633D01*
X537982Y271182D01*
X533127Y269171D01*
X527873Y269171D01*
X523018Y271182D01*
X519567Y274633D01*
X519529Y274665D01*
X519495Y274702D01*
X519358Y274808D01*
X519224Y274919D01*
X519181Y274944D01*
X519141Y274974D01*
X518987Y275054D01*
X518836Y275140D01*
X518789Y275157D01*
X518744Y275180D01*
X518579Y275230D01*
X518415Y275288D01*
X518365Y275296D01*
X518317Y275311D01*
X518145Y275331D01*
X517974Y275359D01*
X517923Y275358D01*
X517874Y275364D01*
X517700Y275353D01*
X517527Y275350D01*
X517478Y275340D01*
X517428Y275337D01*
X517259Y275296D01*
X517089Y275262D01*
X517043Y275243D01*
X516994Y275231D01*
X516835Y275161D01*
X516674Y275097D01*
X516631Y275070D01*
X516586Y275050D01*
X516442Y274952D01*
X516295Y274861D01*
X516258Y274827D01*
X516216Y274799D01*
X516033Y274633D01*
X512582Y271182D01*
X507727Y269171D01*
X502473Y269171D01*
X497618Y271182D01*
X494167Y274633D01*
X494129Y274665D01*
X494095Y274702D01*
X493958Y274808D01*
X493824Y274919D01*
X493781Y274944D01*
X493741Y274974D01*
X493587Y275054D01*
X493436Y275140D01*
X493389Y275157D01*
X493344Y275180D01*
X493179Y275230D01*
X493015Y275288D01*
X492965Y275296D01*
X492917Y275311D01*
X492745Y275331D01*
X492574Y275359D01*
X492523Y275358D01*
X492474Y275364D01*
X492300Y275353D01*
X492127Y275350D01*
X492078Y275340D01*
X492028Y275337D01*
X491859Y275296D01*
X491689Y275262D01*
X491643Y275243D01*
X491594Y275231D01*
X491435Y275161D01*
X491274Y275097D01*
X491231Y275070D01*
X491186Y275050D01*
X491042Y274952D01*
X490895Y274861D01*
X490858Y274827D01*
X490816Y274799D01*
X490633Y274633D01*
X487182Y271182D01*
X482327Y269171D01*
X477073Y269171D01*
X472218Y271182D01*
X468767Y274633D01*
X468729Y274665D01*
X468695Y274702D01*
X468558Y274808D01*
X468424Y274919D01*
X468381Y274944D01*
X468341Y274974D01*
X468187Y275054D01*
X468036Y275140D01*
X467989Y275157D01*
X467944Y275180D01*
X467779Y275230D01*
X467615Y275288D01*
X467565Y275296D01*
X467517Y275311D01*
X467345Y275331D01*
X467174Y275359D01*
X467123Y275358D01*
X467074Y275364D01*
X466900Y275353D01*
X466727Y275350D01*
X466678Y275340D01*
X466628Y275337D01*
X466459Y275296D01*
X466289Y275262D01*
X466243Y275243D01*
X466194Y275231D01*
X466035Y275161D01*
X465874Y275097D01*
X465831Y275070D01*
X465786Y275050D01*
X465642Y274952D01*
X465495Y274861D01*
X465458Y274827D01*
X465416Y274799D01*
X465233Y274633D01*
X461782Y271182D01*
X456927Y269171D01*
X456750Y269171D01*
X456613Y269159D01*
X456477Y269156D01*
X456391Y269139D01*
X456305Y269131D01*
X456172Y269095D01*
X456039Y269068D01*
X455958Y269036D01*
X455874Y269013D01*
X455751Y268954D01*
X455623Y268903D01*
X455550Y268857D01*
X455471Y268820D01*
X455360Y268739D01*
X455244Y268667D01*
X455180Y268609D01*
X455109Y268558D01*
X455015Y268459D01*
X454913Y268367D01*
X454860Y268298D01*
X454800Y268236D01*
X454724Y268122D01*
X454641Y268013D01*
X454601Y267936D01*
X454553Y267864D01*
X454498Y267738D01*
X454436Y267616D01*
X454410Y267533D01*
X454376Y267453D01*
X454345Y267320D01*
X454304Y267189D01*
X454294Y267103D01*
X454274Y267018D01*
X454268Y266882D01*
X454251Y266746D01*
X454257Y266659D01*
X454252Y266572D01*
X454270Y266437D01*
X454278Y266300D01*
X454299Y266215D01*
X454310Y266129D01*
X454351Y265999D01*
X454384Y265866D01*
X454419Y265787D01*
X454446Y265704D01*
X454510Y265583D01*
X454565Y265458D01*
X454614Y265386D01*
X454655Y265309D01*
X454739Y265201D01*
X454816Y265088D01*
X454908Y264987D01*
X454931Y264958D01*
X454948Y264942D01*
X454982Y264905D01*
X467190Y252697D01*
X467333Y252578D01*
X467472Y252454D01*
X467504Y252435D01*
X467532Y252411D01*
X467695Y252319D01*
X467854Y252222D01*
X467889Y252209D01*
X467921Y252190D01*
X468097Y252129D01*
X468271Y252061D01*
X468307Y252055D01*
X468342Y252042D01*
X468526Y252013D01*
X468710Y251978D01*
X468760Y251975D01*
X468783Y251972D01*
X468820Y251972D01*
X468957Y251965D01*
X471326Y251965D01*
X475060Y250419D01*
X477919Y247560D01*
X479465Y243826D01*
X479465Y239784D01*
X477919Y236049D01*
X475586Y233716D01*
X475553Y233678D01*
X475516Y233644D01*
X475410Y233506D01*
X475299Y233373D01*
X475275Y233330D01*
X475244Y233290D01*
X475164Y233136D01*
X475078Y232985D01*
X475062Y232938D01*
X475039Y232893D01*
X474988Y232728D01*
X474930Y232564D01*
X474922Y232514D01*
X474908Y232466D01*
X474887Y232294D01*
X474860Y232122D01*
X474861Y232072D01*
X474855Y232023D01*
X474865Y231849D01*
X474868Y231676D01*
X474878Y231627D01*
X474881Y231577D01*
X474922Y231408D01*
X474957Y231238D01*
X474975Y231191D01*
X474987Y231143D01*
X475057Y230984D01*
X475122Y230823D01*
X475148Y230780D01*
X475168Y230735D01*
X475266Y230590D01*
X475358Y230444D01*
X475391Y230407D01*
X475419Y230365D01*
X475586Y230182D01*
X554782Y150985D01*
X554926Y150865D01*
X555065Y150741D01*
X555097Y150722D01*
X555125Y150698D01*
X555287Y150606D01*
X555447Y150509D01*
X555481Y150496D01*
X555514Y150478D01*
X555690Y150416D01*
X555864Y150349D01*
X555900Y150342D01*
X555935Y150329D01*
X556119Y150300D01*
X556302Y150265D01*
X556353Y150262D01*
X556376Y150259D01*
X556413Y150260D01*
X556550Y150253D01*
X574445Y150253D01*
X577418Y149021D01*
X590657Y135782D01*
X591889Y132809D01*
X591889Y129246D01*
X591905Y129060D01*
X591917Y128874D01*
X591925Y128839D01*
X591929Y128802D01*
X591978Y128621D01*
X592022Y128440D01*
X592037Y128407D01*
X592047Y128371D01*
X592128Y128202D01*
X592204Y128032D01*
X592224Y128002D01*
X592240Y127968D01*
X592350Y127817D01*
X592455Y127663D01*
X592489Y127625D01*
X592502Y127606D01*
X592529Y127581D01*
X592621Y127479D01*
X594998Y125102D01*
X597009Y120247D01*
X597009Y99753D01*
X594998Y94898D01*
X591282Y91182D01*
X586427Y89171D01*
X581173Y89171D01*
X576318Y91182D01*
X572867Y94633D01*
X572829Y94665D01*
X572795Y94702D01*
X572658Y94808D01*
X572524Y94919D01*
X572481Y94944D01*
X572441Y94974D01*
X572287Y95054D01*
X572136Y95140D01*
X572089Y95157D01*
X572044Y95180D01*
X571879Y95230D01*
X571715Y95288D01*
X571665Y95296D01*
X571617Y95311D01*
X571445Y95331D01*
X571274Y95359D01*
X571223Y95358D01*
X571174Y95364D01*
X571000Y95353D01*
X570827Y95350D01*
X570778Y95340D01*
X570728Y95337D01*
X570559Y95296D01*
X570389Y95262D01*
X570343Y95243D01*
X570294Y95231D01*
X570135Y95161D01*
X569974Y95097D01*
X569931Y95070D01*
X569886Y95050D01*
X569742Y94952D01*
X569595Y94861D01*
X569558Y94827D01*
X569516Y94799D01*
X569333Y94633D01*
X565882Y91182D01*
X561027Y89171D01*
X555773Y89171D01*
X550918Y91182D01*
X547202Y94898D01*
X546312Y97046D01*
X546294Y97080D01*
X546282Y97117D01*
X546191Y97278D01*
X546105Y97442D01*
X546081Y97472D01*
X546062Y97506D01*
X545945Y97648D01*
X545831Y97794D01*
X545802Y97820D01*
X545777Y97850D01*
X545636Y97969D01*
X545498Y98092D01*
X545465Y98113D01*
X545436Y98138D01*
X545275Y98230D01*
X545118Y98326D01*
X545082Y98341D01*
X545048Y98360D01*
X544874Y98422D01*
X544702Y98489D01*
X544664Y98497D01*
X544627Y98510D01*
X544445Y98540D01*
X544264Y98575D01*
X544225Y98576D01*
X544187Y98582D01*
X544002Y98579D01*
X543817Y98582D01*
X543779Y98575D01*
X543740Y98575D01*
X543559Y98539D01*
X543376Y98509D01*
X543340Y98496D01*
X543302Y98488D01*
X543130Y98421D01*
X542956Y98358D01*
X542922Y98339D01*
X542886Y98325D01*
X542729Y98228D01*
X542568Y98136D01*
X542539Y98111D01*
X542506Y98090D01*
X542368Y97967D01*
X542227Y97847D01*
X542202Y97818D01*
X542174Y97792D01*
X542060Y97645D01*
X541942Y97503D01*
X541924Y97469D01*
X541900Y97439D01*
X541777Y97224D01*
X541690Y97055D01*
X540750Y95761D01*
X539619Y94630D01*
X538325Y93690D01*
X536900Y92964D01*
X535539Y92521D01*
X535539Y109960D01*
X535537Y109988D01*
X535539Y110040D01*
X535539Y127479D01*
X536900Y127036D01*
X538325Y126310D01*
X539619Y125370D01*
X540750Y124239D01*
X541690Y122945D01*
X541777Y122776D01*
X541797Y122743D01*
X541813Y122708D01*
X541916Y122554D01*
X542014Y122398D01*
X542040Y122369D01*
X542062Y122337D01*
X542191Y122204D01*
X542315Y122068D01*
X542346Y122044D01*
X542373Y122016D01*
X542524Y121908D01*
X542670Y121797D01*
X542705Y121779D01*
X542736Y121756D01*
X542904Y121677D01*
X543068Y121593D01*
X543105Y121582D01*
X543140Y121565D01*
X543319Y121517D01*
X543495Y121463D01*
X543534Y121459D01*
X543571Y121449D01*
X543756Y121433D01*
X543939Y121412D01*
X543978Y121415D01*
X544016Y121411D01*
X544200Y121429D01*
X544385Y121441D01*
X544423Y121450D01*
X544461Y121454D01*
X544639Y121503D01*
X544819Y121548D01*
X544854Y121564D01*
X544891Y121574D01*
X545058Y121655D01*
X545226Y121731D01*
X545258Y121753D01*
X545293Y121770D01*
X545442Y121879D01*
X545595Y121983D01*
X545622Y122010D01*
X545653Y122033D01*
X545781Y122167D01*
X545912Y122297D01*
X545935Y122329D01*
X545961Y122357D01*
X546063Y122512D01*
X546169Y122663D01*
X546185Y122698D01*
X546207Y122730D01*
X546312Y122954D01*
X547202Y125102D01*
X550918Y128818D01*
X552002Y129267D01*
X552162Y129350D01*
X552324Y129428D01*
X552360Y129454D01*
X552398Y129474D01*
X552540Y129584D01*
X552686Y129690D01*
X552716Y129722D01*
X552751Y129748D01*
X552871Y129882D01*
X552996Y130012D01*
X553020Y130049D01*
X553049Y130081D01*
X553143Y130234D01*
X553243Y130384D01*
X553260Y130425D01*
X553283Y130461D01*
X553349Y130629D01*
X553420Y130795D01*
X553430Y130837D01*
X553446Y130878D01*
X553480Y131055D01*
X553521Y131230D01*
X553523Y131273D01*
X553532Y131316D01*
X553534Y131496D01*
X553543Y131676D01*
X553538Y131719D01*
X553538Y131763D01*
X553509Y131940D01*
X553486Y132119D01*
X553472Y132160D01*
X553465Y132203D01*
X553405Y132373D01*
X553350Y132544D01*
X553330Y132583D01*
X553315Y132624D01*
X553225Y132780D01*
X553141Y132939D01*
X553114Y132973D01*
X553092Y133011D01*
X552976Y133149D01*
X552865Y133290D01*
X552832Y133319D01*
X552804Y133352D01*
X552665Y133467D01*
X552530Y133587D01*
X552493Y133609D01*
X552460Y133637D01*
X552302Y133725D01*
X552149Y133819D01*
X552108Y133834D01*
X552070Y133856D01*
X551900Y133915D01*
X551732Y133979D01*
X551689Y133987D01*
X551648Y134002D01*
X551470Y134029D01*
X551293Y134063D01*
X551233Y134066D01*
X551207Y134070D01*
X551169Y134069D01*
X551046Y134075D01*
X550555Y134075D01*
X547582Y135307D01*
X544956Y137933D01*
X544955Y137934D01*
X465321Y217567D01*
X465183Y217683D01*
X465049Y217803D01*
X465012Y217826D01*
X464979Y217854D01*
X464822Y217943D01*
X464669Y218037D01*
X464628Y218053D01*
X464590Y218075D01*
X464420Y218134D01*
X464253Y218200D01*
X464210Y218208D01*
X464169Y218223D01*
X463991Y218251D01*
X463814Y218286D01*
X463771Y218287D01*
X463728Y218293D01*
X463548Y218290D01*
X463368Y218292D01*
X463325Y218285D01*
X463281Y218284D01*
X463105Y218249D01*
X462927Y218219D01*
X462886Y218205D01*
X462843Y218196D01*
X462676Y218130D01*
X462506Y218069D01*
X462469Y218047D01*
X462428Y218031D01*
X462276Y217936D01*
X462119Y217846D01*
X462086Y217818D01*
X462049Y217795D01*
X461916Y217675D01*
X461778Y217558D01*
X461750Y217525D01*
X461718Y217495D01*
X461608Y217353D01*
X461493Y217214D01*
X461472Y217176D01*
X461445Y217141D01*
X461363Y216982D01*
X461274Y216824D01*
X461260Y216783D01*
X461240Y216745D01*
X461188Y216573D01*
X461129Y216402D01*
X461122Y216359D01*
X461109Y216318D01*
X461088Y216139D01*
X461060Y215961D01*
X461061Y215917D01*
X461056Y215874D01*
X461067Y215694D01*
X461071Y215514D01*
X461080Y215472D01*
X461083Y215428D01*
X461125Y215253D01*
X461162Y215077D01*
X461182Y215020D01*
X461189Y214994D01*
X461204Y214960D01*
X461245Y214844D01*
X462417Y212015D01*
X462417Y147499D01*
X461185Y144526D01*
X451646Y134986D01*
X451530Y134848D01*
X451410Y134714D01*
X451387Y134677D01*
X451359Y134644D01*
X451270Y134487D01*
X451176Y134333D01*
X451160Y134293D01*
X451138Y134255D01*
X451079Y134085D01*
X451013Y133917D01*
X451005Y133875D01*
X450990Y133834D01*
X450962Y133656D01*
X450927Y133479D01*
X450926Y133436D01*
X450920Y133393D01*
X450923Y133213D01*
X450921Y133032D01*
X450928Y132990D01*
X450929Y132946D01*
X450964Y132770D01*
X450994Y132592D01*
X451008Y132551D01*
X451017Y132508D01*
X451083Y132341D01*
X451144Y132171D01*
X451166Y132133D01*
X451182Y132093D01*
X451277Y131940D01*
X451367Y131784D01*
X451395Y131751D01*
X451418Y131714D01*
X451539Y131580D01*
X451655Y131443D01*
X451688Y131415D01*
X451718Y131383D01*
X451861Y131273D01*
X451999Y131158D01*
X452037Y131137D01*
X452072Y131110D01*
X452232Y131028D01*
X452389Y130939D01*
X452430Y130925D01*
X452468Y130905D01*
X452640Y130852D01*
X452811Y130793D01*
X452854Y130787D01*
X452895Y130774D01*
X453074Y130753D01*
X453252Y130725D01*
X453296Y130726D01*
X453339Y130721D01*
X453519Y130732D01*
X453699Y130736D01*
X453742Y130745D01*
X453785Y130748D01*
X453960Y130790D01*
X454136Y130827D01*
X454141Y130829D01*
X459427Y130829D01*
X464282Y128818D01*
X467733Y125367D01*
X467771Y125335D01*
X467805Y125298D01*
X467943Y125192D01*
X468076Y125081D01*
X468119Y125056D01*
X468159Y125026D01*
X468313Y124946D01*
X468464Y124860D01*
X468511Y124843D01*
X468556Y124820D01*
X468721Y124770D01*
X468885Y124712D01*
X468935Y124704D01*
X468983Y124689D01*
X469155Y124669D01*
X469326Y124641D01*
X469376Y124642D01*
X469426Y124636D01*
X469600Y124647D01*
X469773Y124650D01*
X469822Y124660D01*
X469872Y124663D01*
X470041Y124704D01*
X470211Y124738D01*
X470257Y124757D01*
X470306Y124769D01*
X470465Y124839D01*
X470626Y124903D01*
X470669Y124930D01*
X470714Y124950D01*
X470858Y125048D01*
X471005Y125139D01*
X471042Y125173D01*
X471084Y125201D01*
X471267Y125367D01*
X474718Y128818D01*
X479573Y130829D01*
X484827Y130829D01*
X489682Y128818D01*
X493133Y125367D01*
X493171Y125335D01*
X493205Y125298D01*
X493343Y125192D01*
X493476Y125081D01*
X493519Y125056D01*
X493559Y125026D01*
X493713Y124946D01*
X493864Y124860D01*
X493911Y124843D01*
X493956Y124820D01*
X494121Y124770D01*
X494285Y124712D01*
X494335Y124704D01*
X494383Y124689D01*
X494555Y124669D01*
X494726Y124641D01*
X494776Y124642D01*
X494826Y124636D01*
X495000Y124647D01*
X495173Y124650D01*
X495222Y124660D01*
X495272Y124663D01*
X495441Y124704D01*
X495611Y124738D01*
X495657Y124757D01*
X495706Y124769D01*
X495865Y124839D01*
X496026Y124903D01*
X496069Y124930D01*
X496114Y124950D01*
X496258Y125048D01*
X496405Y125139D01*
X496442Y125173D01*
X496484Y125201D01*
X496667Y125367D01*
X500118Y128818D01*
X504973Y130829D01*
X510227Y130829D01*
X515082Y128818D01*
X518798Y125102D01*
X519688Y122954D01*
X519706Y122920D01*
X519718Y122883D01*
X519809Y122722D01*
X519895Y122558D01*
X519918Y122528D01*
X519938Y122494D01*
X520056Y122351D01*
X520169Y122206D01*
X520198Y122180D01*
X520223Y122150D01*
X520364Y122031D01*
X520502Y121908D01*
X520535Y121887D01*
X520564Y121862D01*
X520724Y121771D01*
X520882Y121674D01*
X520918Y121659D01*
X520952Y121640D01*
X521126Y121578D01*
X521298Y121511D01*
X521336Y121503D01*
X521373Y121490D01*
X521555Y121460D01*
X521736Y121425D01*
X521775Y121424D01*
X521814Y121418D01*
X521998Y121421D01*
X522183Y121418D01*
X522221Y121425D01*
X522260Y121425D01*
X522441Y121461D01*
X522624Y121491D01*
X522660Y121504D01*
X522698Y121512D01*
X522870Y121579D01*
X523044Y121642D01*
X523078Y121661D01*
X523114Y121675D01*
X523272Y121772D01*
X523432Y121864D01*
X523461Y121889D01*
X523494Y121910D01*
X523632Y122033D01*
X523773Y122152D01*
X523798Y122182D01*
X523827Y122208D01*
X523940Y122354D01*
X524058Y122497D01*
X524077Y122531D01*
X524100Y122561D01*
X524223Y122776D01*
X524310Y122945D01*
X525250Y124239D01*
X526381Y125370D01*
X527675Y126310D01*
X529100Y127036D01*
X530461Y127479D01*
X530461Y110040D01*
X530463Y110012D01*
X530461Y109960D01*
X530461Y92521D01*
X529100Y92964D01*
X527675Y93690D01*
X526381Y94630D01*
X525250Y95761D01*
X524310Y97055D01*
X524223Y97224D01*
X524203Y97257D01*
X524187Y97292D01*
X524084Y97446D01*
X523986Y97602D01*
X523960Y97631D01*
X523938Y97663D01*
X523809Y97796D01*
X523685Y97932D01*
X523654Y97956D01*
X523627Y97984D01*
X523477Y98091D01*
X523330Y98203D01*
X523295Y98221D01*
X523264Y98244D01*
X523097Y98323D01*
X522932Y98407D01*
X522895Y98418D01*
X522860Y98435D01*
X522681Y98483D01*
X522505Y98537D01*
X522466Y98541D01*
X522429Y98551D01*
X522244Y98567D01*
X522061Y98588D01*
X522022Y98585D01*
X521984Y98589D01*
X521799Y98571D01*
X521615Y98559D01*
X521577Y98550D01*
X521539Y98546D01*
X521361Y98497D01*
X521182Y98452D01*
X521146Y98436D01*
X521109Y98426D01*
X520943Y98345D01*
X520774Y98269D01*
X520742Y98247D01*
X520707Y98230D01*
X520558Y98121D01*
X520405Y98017D01*
X520378Y97990D01*
X520347Y97967D01*
X520219Y97832D01*
X520088Y97703D01*
X520066Y97671D01*
X520039Y97643D01*
X519937Y97488D01*
X519831Y97337D01*
X519815Y97302D01*
X519793Y97270D01*
X519688Y97046D01*
X518798Y94898D01*
X515082Y91182D01*
X510227Y89171D01*
X504973Y89171D01*
X500118Y91182D01*
X496667Y94633D01*
X496629Y94665D01*
X496595Y94702D01*
X496458Y94808D01*
X496324Y94919D01*
X496281Y94944D01*
X496241Y94974D01*
X496087Y95054D01*
X495936Y95140D01*
X495889Y95157D01*
X495844Y95180D01*
X495679Y95230D01*
X495515Y95288D01*
X495465Y95296D01*
X495417Y95311D01*
X495245Y95331D01*
X495074Y95359D01*
X495023Y95358D01*
X494974Y95364D01*
X494800Y95353D01*
X494627Y95350D01*
X494578Y95340D01*
X494528Y95337D01*
X494359Y95296D01*
X494189Y95262D01*
X494143Y95243D01*
X494094Y95231D01*
X493935Y95161D01*
X493774Y95097D01*
X493731Y95070D01*
X493686Y95050D01*
X493542Y94952D01*
X493395Y94861D01*
X493358Y94827D01*
X493316Y94799D01*
X493133Y94633D01*
X489682Y91182D01*
X484827Y89171D01*
X479573Y89171D01*
X474718Y91182D01*
X471267Y94633D01*
X471229Y94665D01*
X471195Y94702D01*
X471058Y94808D01*
X470924Y94919D01*
X470881Y94944D01*
X470841Y94974D01*
X470687Y95054D01*
X470536Y95140D01*
X470489Y95157D01*
X470444Y95180D01*
X470279Y95230D01*
X470115Y95288D01*
X470065Y95296D01*
X470017Y95311D01*
X469845Y95331D01*
X469674Y95359D01*
X469623Y95358D01*
X469574Y95364D01*
X469400Y95353D01*
X469227Y95350D01*
X469178Y95340D01*
X469128Y95337D01*
X468959Y95296D01*
X468789Y95262D01*
X468743Y95243D01*
X468694Y95231D01*
X468535Y95161D01*
X468374Y95097D01*
X468331Y95070D01*
X468286Y95050D01*
X468142Y94952D01*
X467995Y94861D01*
X467958Y94827D01*
X467916Y94799D01*
X467733Y94633D01*
X464282Y91182D01*
X459427Y89171D01*
X454173Y89171D01*
X449318Y91182D01*
X445867Y94633D01*
X445829Y94665D01*
X445795Y94702D01*
X445658Y94808D01*
X445524Y94919D01*
X445481Y94944D01*
X445441Y94974D01*
X445287Y95054D01*
X445136Y95140D01*
X445089Y95157D01*
X445044Y95180D01*
X444879Y95230D01*
X444715Y95288D01*
X444665Y95296D01*
X444617Y95311D01*
X444445Y95331D01*
X444274Y95359D01*
X444224Y95358D01*
X444174Y95364D01*
X444000Y95353D01*
X443827Y95350D01*
X443778Y95340D01*
X443728Y95337D01*
X443559Y95296D01*
X443389Y95262D01*
X443343Y95243D01*
X443294Y95231D01*
X443135Y95161D01*
X442974Y95097D01*
X442931Y95070D01*
X442886Y95050D01*
X442742Y94952D01*
X442595Y94861D01*
X442558Y94827D01*
X442516Y94799D01*
X442333Y94633D01*
X440867Y93167D01*
X440835Y93129D01*
X440798Y93095D01*
X440692Y92958D01*
X440581Y92824D01*
X440556Y92781D01*
X440526Y92741D01*
X440446Y92587D01*
X440360Y92436D01*
X440343Y92389D01*
X440320Y92344D01*
X440270Y92179D01*
X440212Y92015D01*
X440204Y91965D01*
X440189Y91917D01*
X440169Y91745D01*
X440141Y91574D01*
X440142Y91524D01*
X440136Y91474D01*
X440147Y91300D01*
X440150Y91127D01*
X440160Y91078D01*
X440163Y91028D01*
X440204Y90859D01*
X440238Y90689D01*
X440257Y90643D01*
X440269Y90594D01*
X440339Y90435D01*
X440403Y90274D01*
X440430Y90231D01*
X440450Y90186D01*
X440548Y90041D01*
X440639Y89895D01*
X440673Y89858D01*
X440701Y89816D01*
X440867Y89633D01*
X444398Y86102D01*
X446409Y81247D01*
X446409Y60753D01*
X444398Y55898D01*
X440682Y52182D01*
X435827Y50171D01*
X430573Y50171D01*
X425718Y52182D01*
X422267Y55633D01*
X422229Y55665D01*
X422195Y55702D01*
X422057Y55808D01*
X421924Y55919D01*
X421881Y55944D01*
X421841Y55974D01*
X421687Y56054D01*
X421536Y56140D01*
X421489Y56157D01*
X421444Y56180D01*
X421279Y56230D01*
X421115Y56288D01*
X421065Y56296D01*
X421017Y56311D01*
X420845Y56331D01*
X420674Y56359D01*
X420624Y56358D01*
X420574Y56364D01*
X420400Y56353D01*
X420227Y56350D01*
X420178Y56340D01*
X420128Y56337D01*
X419959Y56296D01*
X419789Y56262D01*
X419743Y56243D01*
X419694Y56231D01*
X419535Y56161D01*
X419374Y56097D01*
X419331Y56070D01*
X419286Y56050D01*
X419142Y55952D01*
X418995Y55861D01*
X418958Y55827D01*
X418916Y55799D01*
X418733Y55633D01*
X415282Y52182D01*
X410427Y50171D01*
X405173Y50171D01*
X400318Y52182D01*
X396867Y55633D01*
X396829Y55665D01*
X396795Y55702D01*
X396657Y55808D01*
X396524Y55919D01*
X396481Y55944D01*
X396441Y55974D01*
X396287Y56054D01*
X396136Y56140D01*
X396089Y56157D01*
X396044Y56180D01*
X395879Y56230D01*
X395715Y56288D01*
X395665Y56296D01*
X395617Y56311D01*
X395445Y56331D01*
X395274Y56359D01*
X395224Y56358D01*
X395174Y56364D01*
X395000Y56353D01*
X394827Y56350D01*
X394778Y56340D01*
X394728Y56337D01*
X394559Y56296D01*
X394389Y56262D01*
X394343Y56243D01*
X394294Y56231D01*
X394135Y56161D01*
X393974Y56097D01*
X393931Y56070D01*
X393886Y56050D01*
X393742Y55952D01*
X393595Y55861D01*
X393558Y55827D01*
X393516Y55799D01*
X393333Y55633D01*
X389882Y52182D01*
X385027Y50171D01*
X379773Y50171D01*
X374918Y52182D01*
X371467Y55633D01*
X371429Y55665D01*
X371395Y55702D01*
X371257Y55808D01*
X371124Y55919D01*
X371081Y55944D01*
X371041Y55974D01*
X370887Y56054D01*
X370736Y56140D01*
X370689Y56157D01*
X370644Y56180D01*
X370479Y56230D01*
X370315Y56288D01*
X370265Y56296D01*
X370217Y56311D01*
X370045Y56331D01*
X369874Y56359D01*
X369824Y56358D01*
X369774Y56364D01*
X369600Y56353D01*
X369427Y56350D01*
X369378Y56340D01*
X369328Y56337D01*
X369159Y56296D01*
X368989Y56262D01*
X368943Y56243D01*
X368894Y56231D01*
X368735Y56161D01*
X368574Y56097D01*
X368531Y56070D01*
X368486Y56050D01*
X368342Y55952D01*
X368195Y55861D01*
X368158Y55827D01*
X368116Y55799D01*
X367933Y55633D01*
X364482Y52182D01*
X359627Y50171D01*
X354373Y50171D01*
X349518Y52182D01*
X346067Y55633D01*
X346029Y55665D01*
X345995Y55702D01*
X345857Y55808D01*
X345724Y55919D01*
X345681Y55944D01*
X345641Y55974D01*
X345487Y56054D01*
X345336Y56140D01*
X345289Y56157D01*
X345244Y56180D01*
X345079Y56230D01*
X344915Y56288D01*
X344865Y56296D01*
X344817Y56311D01*
X344645Y56331D01*
X344474Y56359D01*
X344424Y56358D01*
X344374Y56364D01*
X344200Y56353D01*
X344027Y56350D01*
X343978Y56340D01*
X343928Y56337D01*
X343759Y56296D01*
X343589Y56262D01*
X343543Y56243D01*
X343494Y56231D01*
X343335Y56161D01*
X343174Y56097D01*
X343131Y56070D01*
X343086Y56050D01*
X342942Y55952D01*
X342795Y55861D01*
X342758Y55827D01*
X342716Y55799D01*
X342533Y55633D01*
X339082Y52182D01*
X334227Y50171D01*
X328973Y50171D01*
X324118Y52182D01*
X320667Y55633D01*
X320629Y55665D01*
X320595Y55702D01*
X320457Y55808D01*
X320324Y55919D01*
X320281Y55944D01*
X320241Y55974D01*
X320087Y56054D01*
X319936Y56140D01*
X319889Y56157D01*
X319844Y56180D01*
X319679Y56230D01*
X319515Y56288D01*
X319465Y56296D01*
X319417Y56311D01*
X319245Y56331D01*
X319074Y56359D01*
X319024Y56358D01*
X318974Y56364D01*
X318800Y56353D01*
X318627Y56350D01*
X318578Y56340D01*
X318528Y56337D01*
X318359Y56296D01*
X318189Y56262D01*
X318143Y56243D01*
X318094Y56231D01*
X317935Y56161D01*
X317774Y56097D01*
X317731Y56070D01*
X317686Y56050D01*
X317542Y55952D01*
X317395Y55861D01*
X317358Y55827D01*
X317316Y55799D01*
X317133Y55633D01*
X313682Y52182D01*
X308827Y50171D01*
X303573Y50171D01*
X298718Y52182D01*
X295267Y55633D01*
X295229Y55665D01*
X295195Y55702D01*
X295057Y55808D01*
X294924Y55919D01*
X294881Y55944D01*
X294841Y55974D01*
X294687Y56054D01*
X294536Y56140D01*
X294489Y56157D01*
X294444Y56180D01*
X294279Y56230D01*
X294115Y56288D01*
X294065Y56296D01*
X294017Y56311D01*
X293845Y56331D01*
X293674Y56359D01*
X293624Y56358D01*
X293574Y56364D01*
X293400Y56353D01*
X293227Y56350D01*
X293178Y56340D01*
X293128Y56337D01*
X292959Y56296D01*
X292789Y56262D01*
X292743Y56243D01*
X292694Y56231D01*
X292535Y56161D01*
X292374Y56097D01*
X292331Y56070D01*
X292286Y56050D01*
X292142Y55952D01*
X291995Y55861D01*
X291958Y55827D01*
X291916Y55799D01*
X291733Y55633D01*
X288282Y52182D01*
X283427Y50171D01*
X278173Y50171D01*
X273318Y52182D01*
X269867Y55633D01*
X269829Y55665D01*
X269795Y55702D01*
X269657Y55808D01*
X269524Y55919D01*
X269481Y55944D01*
X269441Y55974D01*
X269287Y56054D01*
X269136Y56140D01*
X269089Y56157D01*
X269044Y56180D01*
X268879Y56230D01*
X268715Y56288D01*
X268665Y56296D01*
X268617Y56311D01*
X268445Y56331D01*
X268274Y56359D01*
X268224Y56358D01*
X268174Y56364D01*
X268000Y56353D01*
X267827Y56350D01*
X267778Y56340D01*
X267728Y56337D01*
X267559Y56296D01*
X267389Y56262D01*
X267343Y56243D01*
X267294Y56231D01*
X267135Y56161D01*
X266974Y56097D01*
X266931Y56070D01*
X266886Y56050D01*
X266742Y55952D01*
X266595Y55861D01*
X266558Y55827D01*
X266516Y55799D01*
X266333Y55633D01*
X262882Y52182D01*
X258027Y50171D01*
X252773Y50171D01*
X247918Y52182D01*
X244202Y55898D01*
X243312Y58046D01*
X243294Y58080D01*
X243282Y58117D01*
X243191Y58278D01*
X243105Y58442D01*
X243081Y58472D01*
X243062Y58506D01*
X242945Y58648D01*
X242831Y58794D01*
X242802Y58820D01*
X242777Y58850D01*
X242636Y58969D01*
X242498Y59092D01*
X242465Y59113D01*
X242436Y59138D01*
X242275Y59230D01*
X242118Y59326D01*
X242082Y59341D01*
X242048Y59360D01*
X241874Y59422D01*
X241702Y59489D01*
X241664Y59497D01*
X241627Y59510D01*
X241445Y59540D01*
X241264Y59575D01*
X241225Y59576D01*
X241187Y59582D01*
X241002Y59579D01*
X240817Y59582D01*
X240779Y59575D01*
X240740Y59575D01*
X240559Y59539D01*
X240376Y59509D01*
X240340Y59496D01*
X240302Y59488D01*
X240130Y59421D01*
X239956Y59358D01*
X239922Y59339D01*
X239886Y59325D01*
X239729Y59228D01*
X239568Y59136D01*
X239539Y59111D01*
X239506Y59090D01*
X239368Y58967D01*
X239227Y58847D01*
X239202Y58818D01*
X239174Y58792D01*
X239060Y58645D01*
X238942Y58503D01*
X238924Y58469D01*
X238900Y58439D01*
X238777Y58224D01*
X238690Y58055D01*
X237750Y56761D01*
X236619Y55630D01*
X235325Y54690D01*
X233900Y53964D01*
X232539Y53521D01*
X232539Y70960D01*
X232535Y71010D01*
X232537Y71060D01*
X232515Y71231D01*
X232499Y71405D01*
X232486Y71453D01*
X232480Y71503D01*
X232427Y71668D01*
X232381Y71835D01*
X232359Y71881D01*
X232344Y71928D01*
X232263Y72081D01*
X232188Y72238D01*
X232158Y72279D01*
X232135Y72323D01*
X232028Y72459D01*
X231926Y72600D01*
X231890Y72635D01*
X231859Y72674D01*
X231729Y72789D01*
X231604Y72910D01*
X231562Y72937D01*
X231524Y72970D01*
X231376Y73061D01*
X231232Y73157D01*
X231186Y73177D01*
X231143Y73203D01*
X230981Y73265D01*
X230821Y73334D01*
X230773Y73345D01*
X230726Y73363D01*
X230555Y73396D01*
X230386Y73435D01*
X230336Y73437D01*
X230287Y73447D01*
X230040Y73459D01*
X229960Y73459D01*
X229910Y73455D01*
X229860Y73457D01*
X229688Y73435D01*
X229515Y73419D01*
X229467Y73406D01*
X229417Y73399D01*
X229252Y73347D01*
X229084Y73301D01*
X229039Y73279D01*
X228992Y73264D01*
X228838Y73183D01*
X228682Y73107D01*
X228641Y73078D01*
X228597Y73055D01*
X228460Y72947D01*
X228320Y72846D01*
X228285Y72809D01*
X228246Y72778D01*
X228130Y72648D01*
X228010Y72523D01*
X227983Y72482D01*
X227949Y72444D01*
X227859Y72296D01*
X227763Y72151D01*
X227743Y72105D01*
X227717Y72063D01*
X227655Y71901D01*
X227586Y71741D01*
X227575Y71693D01*
X227557Y71646D01*
X227524Y71475D01*
X227485Y71306D01*
X227482Y71256D01*
X227473Y71207D01*
X227461Y70960D01*
X227461Y53521D01*
X226100Y53964D01*
X224675Y54690D01*
X223381Y55630D01*
X222250Y56761D01*
X221310Y58055D01*
X221223Y58224D01*
X221203Y58257D01*
X221187Y58292D01*
X221084Y58446D01*
X220986Y58602D01*
X220960Y58631D01*
X220938Y58663D01*
X220809Y58796D01*
X220685Y58932D01*
X220654Y58956D01*
X220627Y58984D01*
X220476Y59092D01*
X220330Y59203D01*
X220295Y59221D01*
X220264Y59244D01*
X220096Y59323D01*
X219932Y59407D01*
X219895Y59418D01*
X219860Y59435D01*
X219681Y59483D01*
X219505Y59537D01*
X219466Y59541D01*
X219429Y59551D01*
X219244Y59567D01*
X219061Y59588D01*
X219022Y59585D01*
X218984Y59589D01*
X218800Y59571D01*
X218615Y59559D01*
X218577Y59550D01*
X218539Y59546D01*
X218361Y59497D01*
X218181Y59452D01*
X218146Y59436D01*
X218109Y59426D01*
X217942Y59345D01*
X217774Y59269D01*
X217742Y59247D01*
X217707Y59230D01*
X217558Y59121D01*
X217405Y59017D01*
X217378Y58990D01*
X217347Y58967D01*
X217219Y58833D01*
X217088Y58703D01*
X217065Y58671D01*
X217039Y58643D01*
X216937Y58488D01*
X216831Y58337D01*
X216815Y58302D01*
X216793Y58270D01*
X216688Y58046D01*
X215798Y55898D01*
X212082Y52182D01*
X207227Y50171D01*
X201973Y50171D01*
X197118Y52182D01*
X193667Y55633D01*
X193629Y55665D01*
X193595Y55702D01*
X193457Y55808D01*
X193324Y55919D01*
X193281Y55944D01*
X193241Y55974D01*
X193087Y56054D01*
X192936Y56140D01*
X192889Y56157D01*
X192844Y56180D01*
X192679Y56230D01*
X192515Y56288D01*
X192465Y56296D01*
X192417Y56311D01*
X192245Y56331D01*
X192074Y56359D01*
X192024Y56358D01*
X191974Y56364D01*
X191800Y56353D01*
X191627Y56350D01*
X191578Y56340D01*
X191528Y56337D01*
X191359Y56296D01*
X191189Y56262D01*
X191143Y56243D01*
X191094Y56231D01*
X190935Y56161D01*
X190774Y56097D01*
X190731Y56070D01*
X190686Y56050D01*
X190542Y55952D01*
X190395Y55861D01*
X190358Y55827D01*
X190316Y55799D01*
X190133Y55633D01*
X186682Y52182D01*
X181827Y50171D01*
X176573Y50171D01*
X171718Y52182D01*
X168267Y55633D01*
X168229Y55665D01*
X168195Y55702D01*
X168057Y55808D01*
X167924Y55919D01*
X167881Y55944D01*
X167841Y55974D01*
X167687Y56054D01*
X167536Y56140D01*
X167489Y56157D01*
X167444Y56180D01*
X167279Y56230D01*
X167115Y56288D01*
X167065Y56296D01*
X167017Y56311D01*
X166845Y56331D01*
X166674Y56359D01*
X166624Y56358D01*
X166574Y56364D01*
X166400Y56353D01*
X166227Y56350D01*
X166178Y56340D01*
X166128Y56337D01*
X165959Y56296D01*
X165789Y56262D01*
X165743Y56243D01*
X165694Y56231D01*
X165535Y56161D01*
X165374Y56097D01*
X165331Y56070D01*
X165286Y56050D01*
X165142Y55952D01*
X164995Y55861D01*
X164958Y55827D01*
X164916Y55799D01*
X164733Y55633D01*
X161282Y52182D01*
X156427Y50171D01*
X151173Y50171D01*
X146318Y52182D01*
X142602Y55898D01*
X140591Y60753D01*
X140591Y81247D01*
X142602Y86102D01*
X146641Y90141D01*
X146656Y90159D01*
X146673Y90174D01*
X146799Y90330D01*
X146928Y90484D01*
X146939Y90504D01*
X146953Y90521D01*
X147050Y90699D01*
X147149Y90873D01*
X147156Y90894D01*
X147167Y90914D01*
X147230Y91105D01*
X147297Y91294D01*
X147300Y91316D01*
X147307Y91338D01*
X147336Y91536D01*
X147367Y91735D01*
X147367Y91758D01*
X147370Y91780D01*
X147362Y91981D01*
X147358Y92182D01*
X147354Y92204D01*
X147353Y92226D01*
X147310Y92423D01*
X147270Y92620D01*
X147262Y92641D01*
X147257Y92663D01*
X147179Y92848D01*
X147105Y93035D01*
X147093Y93054D01*
X147085Y93075D01*
X146975Y93244D01*
X146869Y93414D01*
X146854Y93431D01*
X146842Y93450D01*
X146704Y93597D01*
X146569Y93745D01*
X146551Y93759D01*
X146536Y93775D01*
X146343Y93931D01*
X145381Y94630D01*
X144250Y95761D01*
X143310Y97055D01*
X143223Y97224D01*
X143203Y97257D01*
X143187Y97292D01*
X143084Y97446D01*
X142986Y97602D01*
X142960Y97631D01*
X142938Y97663D01*
X142809Y97796D01*
X142685Y97932D01*
X142654Y97956D01*
X142627Y97984D01*
X142476Y98092D01*
X142330Y98203D01*
X142295Y98221D01*
X142264Y98244D01*
X142096Y98323D01*
X141932Y98407D01*
X141895Y98418D01*
X141860Y98435D01*
X141681Y98483D01*
X141505Y98537D01*
X141466Y98541D01*
X141429Y98551D01*
X141244Y98567D01*
X141061Y98588D01*
X141022Y98585D01*
X140984Y98589D01*
X140800Y98571D01*
X140615Y98559D01*
X140577Y98550D01*
X140539Y98546D01*
X140361Y98497D01*
X140181Y98452D01*
X140146Y98436D01*
X140109Y98426D01*
X139942Y98345D01*
X139774Y98269D01*
X139742Y98247D01*
X139707Y98230D01*
X139558Y98121D01*
X139405Y98017D01*
X139378Y97990D01*
X139347Y97967D01*
X139219Y97833D01*
X139088Y97703D01*
X139065Y97671D01*
X139039Y97643D01*
X138937Y97488D01*
X138831Y97337D01*
X138815Y97302D01*
X138793Y97270D01*
X138688Y97046D01*
X137798Y94898D01*
X134082Y91182D01*
X129227Y89171D01*
X123973Y89171D01*
X119118Y91182D01*
X115667Y94633D01*
X115629Y94665D01*
X115595Y94702D01*
X115458Y94808D01*
X115324Y94919D01*
X115281Y94944D01*
X115241Y94974D01*
X115087Y95054D01*
X114936Y95140D01*
X114889Y95157D01*
X114844Y95180D01*
X114679Y95230D01*
X114515Y95288D01*
X114465Y95296D01*
X114417Y95311D01*
X114245Y95331D01*
X114074Y95359D01*
X114023Y95358D01*
X113974Y95364D01*
X113800Y95353D01*
X113627Y95350D01*
X113578Y95340D01*
X113528Y95337D01*
X113359Y95296D01*
X113189Y95262D01*
X113143Y95243D01*
X113094Y95231D01*
X112935Y95161D01*
X112774Y95097D01*
X112731Y95070D01*
X112686Y95050D01*
X112542Y94952D01*
X112395Y94861D01*
X112358Y94827D01*
X112316Y94799D01*
X112133Y94633D01*
X108682Y91182D01*
X103827Y89171D01*
X98573Y89171D01*
X93718Y91182D01*
X90002Y94898D01*
X87991Y99753D01*
X87991Y120247D01*
X90002Y125102D01*
X93718Y128818D01*
X98573Y130829D01*
X103827Y130829D01*
X108682Y128818D01*
X112133Y125367D01*
X112171Y125335D01*
X112205Y125298D01*
X112343Y125192D01*
X112476Y125081D01*
X112519Y125056D01*
X112559Y125026D01*
X112713Y124946D01*
X112864Y124860D01*
X112911Y124843D01*
X112956Y124820D01*
X113121Y124770D01*
X113285Y124712D01*
X113335Y124704D01*
X113383Y124689D01*
X113555Y124669D01*
X113726Y124641D01*
X113776Y124642D01*
X113826Y124636D01*
X114000Y124647D01*
X114173Y124650D01*
X114222Y124660D01*
X114272Y124663D01*
X114441Y124704D01*
X114611Y124738D01*
X114657Y124757D01*
X114706Y124769D01*
X114865Y124839D01*
X115026Y124903D01*
X115069Y124930D01*
X115114Y124950D01*
X115258Y125048D01*
X115405Y125139D01*
X115442Y125173D01*
X115484Y125201D01*
X115667Y125367D01*
X119118Y128818D01*
X123973Y130829D01*
X129227Y130829D01*
X134082Y128818D01*
X137798Y125102D01*
X138688Y122954D01*
X138706Y122920D01*
X138718Y122883D01*
X138809Y122722D01*
X138895Y122558D01*
X138919Y122528D01*
X138938Y122494D01*
X139055Y122352D01*
X139169Y122206D01*
X139198Y122180D01*
X139223Y122150D01*
X139364Y122031D01*
X139502Y121908D01*
X139535Y121887D01*
X139564Y121862D01*
X139725Y121770D01*
X139882Y121674D01*
X139918Y121659D01*
X139952Y121640D01*
X140126Y121578D01*
X140298Y121511D01*
X140336Y121503D01*
X140373Y121490D01*
X140555Y121460D01*
X140736Y121425D01*
X140775Y121424D01*
X140813Y121418D01*
X140998Y121421D01*
X141183Y121418D01*
X141221Y121425D01*
X141260Y121425D01*
X141441Y121461D01*
X141624Y121491D01*
X141660Y121504D01*
X141698Y121512D01*
X141870Y121579D01*
X142044Y121642D01*
X142078Y121661D01*
X142114Y121675D01*
X142271Y121772D01*
X142432Y121864D01*
X142461Y121889D01*
X142494Y121910D01*
X142632Y122033D01*
X142773Y122153D01*
X142798Y122182D01*
X142826Y122208D01*
X142940Y122355D01*
X143058Y122497D01*
X143076Y122531D01*
X143100Y122561D01*
X143223Y122776D01*
X143310Y122945D01*
X144250Y124239D01*
X145381Y125370D01*
X146675Y126310D01*
X148100Y127036D01*
X149461Y127479D01*
X149461Y110040D01*
X149465Y109990D01*
X149463Y109940D01*
X149485Y109769D01*
X149501Y109595D01*
X149514Y109547D01*
X149520Y109497D01*
X149573Y109332D01*
X149619Y109165D01*
X149641Y109119D01*
X149656Y109072D01*
X149737Y108919D01*
X149812Y108762D01*
X149842Y108721D01*
X149865Y108677D01*
X149972Y108541D01*
X150074Y108400D01*
X150110Y108365D01*
X150141Y108326D01*
X150271Y108211D01*
X150396Y108090D01*
X150438Y108063D01*
X150475Y108030D01*
X150624Y107939D01*
X150768Y107843D01*
X150814Y107823D01*
X150857Y107797D01*
X151019Y107735D01*
X151179Y107666D01*
X151227Y107655D01*
X151274Y107637D01*
X151445Y107604D01*
X151614Y107565D01*
X151663Y107563D01*
X151713Y107553D01*
X151960Y107541D01*
X152040Y107541D01*
X152090Y107545D01*
X152140Y107543D01*
X152312Y107565D01*
X152485Y107581D01*
X152533Y107594D01*
X152583Y107601D01*
X152748Y107653D01*
X152916Y107699D01*
X152961Y107721D01*
X153008Y107736D01*
X153162Y107817D01*
X153318Y107893D01*
X153359Y107922D01*
X153403Y107945D01*
X153540Y108053D01*
X153680Y108154D01*
X153715Y108191D01*
X153754Y108222D01*
X153870Y108352D01*
X153990Y108477D01*
X154017Y108518D01*
X154051Y108556D01*
X154141Y108704D01*
X154237Y108849D01*
X154257Y108895D01*
X154283Y108937D01*
X154345Y109099D01*
X154414Y109259D01*
X154425Y109307D01*
X154443Y109354D01*
X154476Y109525D01*
X154515Y109694D01*
X154518Y109744D01*
X154527Y109793D01*
X154539Y110040D01*
X154539Y127479D01*
X155900Y127036D01*
X157325Y126310D01*
X158619Y125370D01*
X159750Y124239D01*
X160690Y122945D01*
X160777Y122776D01*
X160797Y122743D01*
X160813Y122708D01*
X160916Y122554D01*
X161014Y122398D01*
X161040Y122369D01*
X161062Y122337D01*
X161191Y122204D01*
X161315Y122068D01*
X161346Y122044D01*
X161373Y122016D01*
X161524Y121908D01*
X161670Y121797D01*
X161705Y121779D01*
X161736Y121756D01*
X161904Y121677D01*
X162068Y121593D01*
X162105Y121582D01*
X162140Y121565D01*
X162319Y121517D01*
X162495Y121463D01*
X162534Y121459D01*
X162571Y121449D01*
X162756Y121433D01*
X162939Y121412D01*
X162978Y121415D01*
X163016Y121411D01*
X163200Y121429D01*
X163385Y121441D01*
X163423Y121450D01*
X163461Y121454D01*
X163639Y121503D01*
X163819Y121548D01*
X163854Y121564D01*
X163891Y121574D01*
X164058Y121655D01*
X164226Y121731D01*
X164258Y121753D01*
X164293Y121770D01*
X164442Y121879D01*
X164595Y121983D01*
X164622Y122010D01*
X164653Y122033D01*
X164781Y122167D01*
X164912Y122297D01*
X164935Y122329D01*
X164961Y122357D01*
X165063Y122512D01*
X165169Y122663D01*
X165185Y122698D01*
X165207Y122730D01*
X165312Y122954D01*
X166202Y125102D01*
X169918Y128818D01*
X174773Y130829D01*
X180027Y130829D01*
X184882Y128818D01*
X188333Y125367D01*
X188371Y125335D01*
X188405Y125298D01*
X188543Y125192D01*
X188676Y125081D01*
X188719Y125056D01*
X188759Y125026D01*
X188913Y124946D01*
X189064Y124860D01*
X189111Y124843D01*
X189156Y124820D01*
X189321Y124770D01*
X189485Y124712D01*
X189535Y124704D01*
X189583Y124689D01*
X189755Y124669D01*
X189926Y124641D01*
X189976Y124642D01*
X190026Y124636D01*
X190200Y124647D01*
X190373Y124650D01*
X190422Y124660D01*
X190472Y124663D01*
X190641Y124704D01*
X190811Y124738D01*
X190857Y124757D01*
X190906Y124769D01*
X191065Y124839D01*
X191226Y124903D01*
X191269Y124930D01*
X191314Y124950D01*
X191458Y125048D01*
X191605Y125139D01*
X191642Y125173D01*
X191684Y125201D01*
X191867Y125367D01*
X195318Y128818D01*
X200173Y130829D01*
X205427Y130829D01*
X210282Y128818D01*
X213733Y125367D01*
X213771Y125335D01*
X213805Y125298D01*
X213943Y125192D01*
X214076Y125081D01*
X214119Y125056D01*
X214159Y125026D01*
X214313Y124946D01*
X214464Y124860D01*
X214511Y124843D01*
X214556Y124820D01*
X214721Y124770D01*
X214885Y124712D01*
X214935Y124704D01*
X214983Y124689D01*
X215155Y124669D01*
X215326Y124641D01*
X215376Y124642D01*
X215426Y124636D01*
X215600Y124647D01*
X215773Y124650D01*
X215822Y124660D01*
X215872Y124663D01*
X216041Y124704D01*
X216211Y124738D01*
X216257Y124757D01*
X216306Y124769D01*
X216465Y124839D01*
X216626Y124903D01*
X216669Y124930D01*
X216714Y124950D01*
X216858Y125048D01*
X217005Y125139D01*
X217042Y125173D01*
X217084Y125201D01*
X217267Y125367D01*
X220718Y128818D01*
X225573Y130829D01*
X230827Y130829D01*
X235682Y128818D01*
X239133Y125367D01*
X239171Y125335D01*
X239205Y125298D01*
X239343Y125192D01*
X239476Y125081D01*
X239519Y125056D01*
X239559Y125026D01*
X239713Y124946D01*
X239864Y124860D01*
X239911Y124843D01*
X239956Y124820D01*
X240121Y124770D01*
X240285Y124712D01*
X240335Y124704D01*
X240383Y124689D01*
X240555Y124669D01*
X240726Y124641D01*
X240776Y124642D01*
X240826Y124636D01*
X241000Y124647D01*
X241173Y124650D01*
X241222Y124660D01*
X241272Y124663D01*
X241441Y124704D01*
X241611Y124738D01*
X241657Y124757D01*
X241706Y124769D01*
X241865Y124839D01*
X242026Y124903D01*
X242069Y124930D01*
X242114Y124950D01*
X242258Y125048D01*
X242405Y125139D01*
X242442Y125173D01*
X242484Y125201D01*
X242667Y125367D01*
X246118Y128818D01*
X250973Y130829D01*
X256227Y130829D01*
X261082Y128818D01*
X264533Y125367D01*
X264571Y125335D01*
X264605Y125298D01*
X264743Y125192D01*
X264876Y125081D01*
X264919Y125056D01*
X264959Y125026D01*
X265113Y124946D01*
X265264Y124860D01*
X265311Y124843D01*
X265356Y124820D01*
X265521Y124770D01*
X265685Y124712D01*
X265735Y124704D01*
X265783Y124689D01*
X265955Y124669D01*
X266126Y124641D01*
X266176Y124642D01*
X266226Y124636D01*
X266400Y124647D01*
X266573Y124650D01*
X266622Y124660D01*
X266672Y124663D01*
X266841Y124704D01*
X267011Y124738D01*
X267057Y124757D01*
X267106Y124769D01*
X267265Y124839D01*
X267426Y124903D01*
X267469Y124930D01*
X267514Y124950D01*
X267658Y125048D01*
X267805Y125139D01*
X267842Y125173D01*
X267884Y125201D01*
X268067Y125367D01*
X271518Y128818D01*
X276373Y130829D01*
X281627Y130829D01*
X286482Y128818D01*
X289933Y125367D01*
X289971Y125335D01*
X290005Y125298D01*
X290143Y125192D01*
X290276Y125081D01*
X290319Y125056D01*
X290359Y125026D01*
X290513Y124946D01*
X290664Y124860D01*
X290711Y124843D01*
X290756Y124820D01*
X290921Y124770D01*
X291085Y124712D01*
X291135Y124704D01*
X291183Y124689D01*
X291355Y124669D01*
X291526Y124641D01*
X291576Y124642D01*
X291626Y124636D01*
X291800Y124647D01*
X291973Y124650D01*
X292022Y124660D01*
X292072Y124663D01*
X292241Y124704D01*
X292411Y124738D01*
X292457Y124757D01*
X292506Y124769D01*
X292665Y124839D01*
X292826Y124903D01*
X292869Y124930D01*
X292914Y124950D01*
X293058Y125048D01*
X293205Y125139D01*
X293242Y125173D01*
X293284Y125201D01*
X293467Y125367D01*
X296918Y128818D01*
X301773Y130829D01*
X307027Y130829D01*
X311882Y128818D01*
X315333Y125367D01*
X315371Y125335D01*
X315405Y125298D01*
X315543Y125192D01*
X315676Y125081D01*
X315719Y125056D01*
X315759Y125026D01*
X315913Y124946D01*
X316064Y124860D01*
X316111Y124843D01*
X316156Y124820D01*
X316321Y124770D01*
X316485Y124712D01*
X316535Y124704D01*
X316583Y124689D01*
X316755Y124669D01*
X316926Y124641D01*
X316976Y124642D01*
X317026Y124636D01*
X317200Y124647D01*
X317373Y124650D01*
X317422Y124660D01*
X317472Y124663D01*
X317641Y124704D01*
X317811Y124738D01*
X317857Y124757D01*
X317906Y124769D01*
X318065Y124839D01*
X318226Y124903D01*
X318269Y124930D01*
X318314Y124950D01*
X318458Y125048D01*
X318605Y125139D01*
X318642Y125173D01*
X318684Y125201D01*
X318867Y125367D01*
X322318Y128818D01*
X327173Y130829D01*
X332427Y130829D01*
X337282Y128818D01*
X340733Y125367D01*
X340771Y125335D01*
X340805Y125298D01*
X340942Y125192D01*
X341076Y125081D01*
X341119Y125056D01*
X341159Y125026D01*
X341313Y124946D01*
X341464Y124860D01*
X341511Y124843D01*
X341556Y124820D01*
X341721Y124770D01*
X341885Y124712D01*
X341935Y124704D01*
X341983Y124689D01*
X342155Y124669D01*
X342326Y124641D01*
X342376Y124642D01*
X342426Y124636D01*
X342600Y124647D01*
X342773Y124650D01*
X342822Y124660D01*
X342872Y124663D01*
X343041Y124704D01*
X343211Y124738D01*
X343257Y124757D01*
X343306Y124769D01*
X343465Y124839D01*
X343626Y124903D01*
X343669Y124930D01*
X343714Y124950D01*
X343858Y125048D01*
X344005Y125139D01*
X344042Y125173D01*
X344084Y125201D01*
X344267Y125367D01*
X346379Y127479D01*
X346499Y127622D01*
X346623Y127762D01*
X346642Y127794D01*
X346666Y127822D01*
X346758Y127984D01*
X346855Y128144D01*
X346868Y128178D01*
X346886Y128210D01*
X346948Y128386D01*
X347015Y128560D01*
X347022Y128597D01*
X347035Y128632D01*
X347064Y128816D01*
X347099Y128999D01*
X347102Y129050D01*
X347105Y129073D01*
X347104Y129110D01*
X347111Y129246D01*
X347111Y159543D01*
X348343Y162516D01*
X350970Y165143D01*
X397396Y211570D01*
X397428Y211608D01*
X397465Y211642D01*
X397571Y211779D01*
X397682Y211912D01*
X397707Y211956D01*
X397738Y211996D01*
X397817Y212150D01*
X397903Y212301D01*
X397920Y212348D01*
X397943Y212393D01*
X397994Y212558D01*
X398051Y212722D01*
X398059Y212772D01*
X398074Y212820D01*
X398094Y212992D01*
X398122Y213163D01*
X398121Y213213D01*
X398127Y213263D01*
X398116Y213437D01*
X398113Y213610D01*
X398103Y213659D01*
X398100Y213709D01*
X398059Y213878D01*
X398025Y214048D01*
X398006Y214094D01*
X397994Y214143D01*
X397924Y214302D01*
X397860Y214463D01*
X397833Y214506D01*
X397813Y214551D01*
X397716Y214695D01*
X397624Y214842D01*
X397590Y214879D01*
X397562Y214921D01*
X397396Y215104D01*
X396867Y215633D01*
X396829Y215665D01*
X396795Y215702D01*
X396658Y215808D01*
X396524Y215919D01*
X396481Y215944D01*
X396441Y215974D01*
X396287Y216054D01*
X396136Y216140D01*
X396089Y216157D01*
X396044Y216180D01*
X395878Y216231D01*
X395715Y216288D01*
X395665Y216296D01*
X395617Y216311D01*
X395445Y216331D01*
X395273Y216359D01*
X395223Y216358D01*
X395174Y216364D01*
X395000Y216353D01*
X394827Y216350D01*
X394778Y216340D01*
X394728Y216337D01*
X394560Y216296D01*
X394389Y216262D01*
X394342Y216243D01*
X394294Y216231D01*
X394136Y216161D01*
X393974Y216097D01*
X393931Y216070D01*
X393886Y216050D01*
X393742Y215953D01*
X393595Y215861D01*
X393558Y215827D01*
X393516Y215799D01*
X393333Y215633D01*
X389882Y212182D01*
X385027Y210171D01*
X379773Y210171D01*
X374918Y212182D01*
X371467Y215633D01*
X371429Y215665D01*
X371395Y215702D01*
X371258Y215808D01*
X371124Y215919D01*
X371081Y215944D01*
X371041Y215974D01*
X370887Y216054D01*
X370736Y216140D01*
X370689Y216157D01*
X370644Y216180D01*
X370479Y216230D01*
X370315Y216288D01*
X370265Y216296D01*
X370217Y216311D01*
X370045Y216331D01*
X369874Y216359D01*
X369823Y216358D01*
X369774Y216364D01*
X369600Y216353D01*
X369427Y216350D01*
X369378Y216340D01*
X369328Y216337D01*
X369159Y216296D01*
X368989Y216262D01*
X368943Y216243D01*
X368894Y216231D01*
X368735Y216161D01*
X368574Y216097D01*
X368531Y216070D01*
X368486Y216050D01*
X368342Y215952D01*
X368195Y215861D01*
X368158Y215827D01*
X368116Y215799D01*
X367933Y215633D01*
X364482Y212182D01*
X359627Y210171D01*
X354373Y210171D01*
X349518Y212182D01*
X346067Y215633D01*
X346029Y215665D01*
X345995Y215702D01*
X345858Y215808D01*
X345724Y215919D01*
X345681Y215944D01*
X345641Y215974D01*
X345487Y216054D01*
X345336Y216140D01*
X345289Y216157D01*
X345244Y216180D01*
X345079Y216230D01*
X344915Y216288D01*
X344865Y216296D01*
X344817Y216311D01*
X344645Y216331D01*
X344474Y216359D01*
X344423Y216358D01*
X344374Y216364D01*
X344200Y216353D01*
X344027Y216350D01*
X343978Y216340D01*
X343928Y216337D01*
X343759Y216296D01*
X343589Y216262D01*
X343543Y216243D01*
X343494Y216231D01*
X343335Y216161D01*
X343174Y216097D01*
X343131Y216070D01*
X343086Y216050D01*
X342942Y215952D01*
X342795Y215861D01*
X342758Y215827D01*
X342716Y215799D01*
X342533Y215633D01*
X339082Y212182D01*
X334227Y210171D01*
X328973Y210171D01*
X324118Y212182D01*
X320667Y215633D01*
X320629Y215665D01*
X320595Y215702D01*
X320458Y215808D01*
X320324Y215919D01*
X320281Y215944D01*
X320241Y215974D01*
X320087Y216054D01*
X319936Y216140D01*
X319889Y216157D01*
X319844Y216180D01*
X319679Y216230D01*
X319515Y216288D01*
X319465Y216296D01*
X319417Y216311D01*
X319245Y216331D01*
X319074Y216359D01*
X319023Y216358D01*
X318974Y216364D01*
X318800Y216353D01*
X318627Y216350D01*
X318578Y216340D01*
X318528Y216337D01*
X318359Y216296D01*
X318189Y216262D01*
X318143Y216243D01*
X318094Y216231D01*
X317935Y216161D01*
X317774Y216097D01*
X317731Y216070D01*
X317686Y216050D01*
X317542Y215952D01*
X317395Y215861D01*
X317358Y215827D01*
X317316Y215799D01*
X317133Y215633D01*
X313682Y212182D01*
X308827Y210171D01*
X303573Y210171D01*
X298718Y212182D01*
X295267Y215633D01*
X295229Y215665D01*
X295195Y215702D01*
X295058Y215808D01*
X294924Y215919D01*
X294881Y215944D01*
X294841Y215974D01*
X294687Y216054D01*
X294536Y216140D01*
X294489Y216157D01*
X294444Y216180D01*
X294279Y216230D01*
X294115Y216288D01*
X294065Y216296D01*
X294017Y216311D01*
X293845Y216331D01*
X293674Y216359D01*
X293623Y216358D01*
X293574Y216364D01*
X293400Y216353D01*
X293227Y216350D01*
X293178Y216340D01*
X293128Y216337D01*
X292959Y216296D01*
X292789Y216262D01*
X292743Y216243D01*
X292694Y216231D01*
X292535Y216161D01*
X292374Y216097D01*
X292331Y216070D01*
X292286Y216050D01*
X292142Y215952D01*
X291995Y215861D01*
X291958Y215827D01*
X291916Y215799D01*
X291733Y215633D01*
X288282Y212182D01*
X283427Y210171D01*
X278173Y210171D01*
X273318Y212182D01*
X269867Y215633D01*
X269829Y215665D01*
X269795Y215702D01*
X269658Y215808D01*
X269524Y215919D01*
X269481Y215944D01*
X269441Y215974D01*
X269287Y216054D01*
X269136Y216140D01*
X269089Y216157D01*
X269044Y216180D01*
X268879Y216230D01*
X268715Y216288D01*
X268665Y216296D01*
X268617Y216311D01*
X268445Y216331D01*
X268274Y216359D01*
X268223Y216358D01*
X268174Y216364D01*
X268000Y216353D01*
X267827Y216350D01*
X267778Y216340D01*
X267728Y216337D01*
X267559Y216296D01*
X267389Y216262D01*
X267343Y216243D01*
X267294Y216231D01*
X267135Y216161D01*
X266974Y216097D01*
X266931Y216070D01*
X266886Y216050D01*
X266742Y215952D01*
X266595Y215861D01*
X266558Y215827D01*
X266516Y215799D01*
X266333Y215633D01*
X262882Y212182D01*
X258027Y210171D01*
X252773Y210171D01*
X247918Y212182D01*
X244467Y215633D01*
X244429Y215665D01*
X244395Y215702D01*
X244258Y215808D01*
X244124Y215919D01*
X244081Y215944D01*
X244041Y215974D01*
X243887Y216054D01*
X243736Y216140D01*
X243689Y216157D01*
X243644Y216180D01*
X243479Y216230D01*
X243315Y216288D01*
X243265Y216296D01*
X243217Y216311D01*
X243045Y216331D01*
X242874Y216359D01*
X242823Y216358D01*
X242774Y216364D01*
X242600Y216353D01*
X242427Y216350D01*
X242378Y216340D01*
X242328Y216337D01*
X242159Y216296D01*
X241989Y216262D01*
X241943Y216243D01*
X241894Y216231D01*
X241735Y216161D01*
X241574Y216097D01*
X241531Y216070D01*
X241486Y216050D01*
X241342Y215952D01*
X241195Y215861D01*
X241158Y215827D01*
X241116Y215799D01*
X240933Y215633D01*
X237482Y212182D01*
X232627Y210171D01*
X227373Y210171D01*
X222518Y212182D01*
X219067Y215633D01*
X219029Y215665D01*
X218995Y215702D01*
X218858Y215808D01*
X218724Y215919D01*
X218681Y215944D01*
X218641Y215974D01*
X218487Y216054D01*
X218336Y216140D01*
X218289Y216157D01*
X218244Y216180D01*
X218079Y216230D01*
X217915Y216288D01*
X217865Y216296D01*
X217817Y216311D01*
X217645Y216331D01*
X217474Y216359D01*
X217423Y216358D01*
X217374Y216364D01*
X217200Y216353D01*
X217027Y216350D01*
X216978Y216340D01*
X216928Y216337D01*
X216759Y216296D01*
X216589Y216262D01*
X216543Y216243D01*
X216494Y216231D01*
X216335Y216161D01*
X216174Y216097D01*
X216131Y216070D01*
X216086Y216050D01*
X215942Y215952D01*
X215795Y215861D01*
X215758Y215827D01*
X215716Y215799D01*
X215533Y215633D01*
X212082Y212182D01*
X207227Y210171D01*
X201973Y210171D01*
X197118Y212182D01*
X193402Y215898D01*
X192512Y218046D01*
X192494Y218080D01*
X192482Y218117D01*
X192391Y218278D01*
X192305Y218442D01*
X192282Y218472D01*
X192262Y218506D01*
X192144Y218649D01*
X192031Y218794D01*
X192002Y218820D01*
X191977Y218850D01*
X191836Y218969D01*
X191698Y219092D01*
X191665Y219113D01*
X191636Y219138D01*
X191476Y219229D01*
X191318Y219326D01*
X191282Y219341D01*
X191248Y219360D01*
X191074Y219422D01*
X190902Y219489D01*
X190864Y219497D01*
X190827Y219510D01*
X190645Y219540D01*
X190464Y219575D01*
X190425Y219576D01*
X190386Y219582D01*
X190202Y219579D01*
X190017Y219582D01*
X189979Y219575D01*
X189940Y219575D01*
X189759Y219539D01*
X189576Y219509D01*
X189540Y219496D01*
X189502Y219488D01*
X189330Y219421D01*
X189156Y219358D01*
X189122Y219339D01*
X189086Y219325D01*
X188928Y219228D01*
X188768Y219136D01*
X188739Y219111D01*
X188706Y219090D01*
X188568Y218966D01*
X188427Y218848D01*
X188402Y218818D01*
X188373Y218792D01*
X188260Y218646D01*
X188142Y218503D01*
X188123Y218469D01*
X188100Y218439D01*
X187977Y218224D01*
X187890Y218055D01*
X186950Y216761D01*
X185819Y215630D01*
X184525Y214690D01*
X183100Y213964D01*
X181739Y213521D01*
X181739Y230960D01*
X181735Y231010D01*
X181737Y231060D01*
X181715Y231231D01*
X181699Y231405D01*
X181686Y231453D01*
X181680Y231503D01*
X181627Y231668D01*
X181581Y231835D01*
X181559Y231881D01*
X181544Y231928D01*
X181463Y232081D01*
X181388Y232238D01*
X181358Y232279D01*
X181335Y232323D01*
X181228Y232459D01*
X181126Y232600D01*
X181090Y232635D01*
X181059Y232674D01*
X180929Y232789D01*
X180804Y232910D01*
X180762Y232937D01*
X180724Y232970D01*
X180576Y233061D01*
X180432Y233157D01*
X180386Y233177D01*
X180343Y233203D01*
X180181Y233265D01*
X180021Y233334D01*
X179973Y233345D01*
X179926Y233363D01*
X179755Y233396D01*
X179586Y233435D01*
X179536Y233437D01*
X179487Y233447D01*
X179240Y233459D01*
X179160Y233459D01*
X179110Y233455D01*
X179060Y233457D01*
X178888Y233435D01*
X178715Y233419D01*
X178667Y233406D01*
X178617Y233399D01*
X178452Y233347D01*
X178284Y233301D01*
X178239Y233279D01*
X178192Y233264D01*
X178038Y233183D01*
X177882Y233107D01*
X177841Y233078D01*
X177797Y233055D01*
X177660Y232947D01*
X177520Y232846D01*
X177485Y232809D01*
X177446Y232778D01*
X177330Y232648D01*
X177210Y232523D01*
X177183Y232482D01*
X177149Y232444D01*
X177059Y232296D01*
X176963Y232151D01*
X176943Y232105D01*
X176917Y232063D01*
X176855Y231901D01*
X176786Y231741D01*
X176775Y231693D01*
X176757Y231646D01*
X176724Y231475D01*
X176685Y231306D01*
X176682Y231256D01*
X176673Y231207D01*
X176661Y230960D01*
X176661Y213521D01*
X175300Y213964D01*
X173875Y214690D01*
X172581Y215630D01*
X171450Y216761D01*
X170510Y218055D01*
X170423Y218224D01*
X170403Y218257D01*
X170387Y218292D01*
X170284Y218446D01*
X170186Y218602D01*
X170160Y218631D01*
X170138Y218663D01*
X170009Y218796D01*
X169885Y218932D01*
X169854Y218956D01*
X169827Y218984D01*
X169677Y219091D01*
X169530Y219203D01*
X169495Y219221D01*
X169464Y219244D01*
X169297Y219323D01*
X169132Y219407D01*
X169095Y219418D01*
X169060Y219435D01*
X168881Y219483D01*
X168705Y219537D01*
X168666Y219541D01*
X168629Y219551D01*
X168444Y219567D01*
X168261Y219588D01*
X168222Y219585D01*
X168184Y219589D01*
X167999Y219571D01*
X167815Y219559D01*
X167777Y219550D01*
X167739Y219546D01*
X167561Y219497D01*
X167382Y219452D01*
X167346Y219436D01*
X167309Y219426D01*
X167143Y219345D01*
X166974Y219269D01*
X166942Y219247D01*
X166907Y219230D01*
X166758Y219121D01*
X166605Y219017D01*
X166578Y218990D01*
X166547Y218967D01*
X166419Y218832D01*
X166288Y218703D01*
X166266Y218671D01*
X166239Y218643D01*
X166137Y218488D01*
X166031Y218337D01*
X166015Y218302D01*
X165993Y218270D01*
X165888Y218046D01*
X164998Y215898D01*
X161282Y212182D01*
X156427Y210171D01*
X151173Y210171D01*
X146318Y212182D01*
X142602Y215898D01*
X140591Y220753D01*
X140591Y241247D01*
X142541Y245956D01*
X142569Y246045D01*
X142606Y246131D01*
X142636Y246257D01*
X142675Y246382D01*
X142686Y246475D01*
X142708Y246566D01*
X142714Y246696D01*
X142730Y246825D01*
X142725Y246919D01*
X142730Y247012D01*
X142713Y247141D01*
X142706Y247271D01*
X142684Y247362D01*
X142672Y247455D01*
X142633Y247579D01*
X142602Y247706D01*
X142565Y247791D01*
X142536Y247880D01*
X142476Y247995D01*
X142423Y248115D01*
X142371Y248193D01*
X142327Y248275D01*
X142247Y248378D01*
X142174Y248486D01*
X142109Y248553D01*
X142051Y248626D01*
X141954Y248713D01*
X141863Y248806D01*
X141787Y248861D01*
X141717Y248923D01*
X141606Y248990D01*
X141500Y249066D01*
X141415Y249106D01*
X141335Y249155D01*
X141214Y249202D01*
X141096Y249257D01*
X141006Y249282D01*
X140918Y249315D01*
X140790Y249340D01*
X140665Y249374D01*
X140572Y249381D01*
X140480Y249399D01*
X140232Y249411D01*
X121886Y249411D01*
X121700Y249395D01*
X121514Y249383D01*
X121478Y249375D01*
X121441Y249371D01*
X121260Y249322D01*
X121080Y249278D01*
X121046Y249263D01*
X121010Y249253D01*
X120842Y249172D01*
X120671Y249096D01*
X120641Y249076D01*
X120607Y249060D01*
X120456Y248950D01*
X120302Y248845D01*
X120264Y248811D01*
X120245Y248798D01*
X120220Y248771D01*
X120118Y248679D01*
X71321Y199882D01*
X71201Y199738D01*
X71077Y199599D01*
X71058Y199567D01*
X71034Y199539D01*
X70942Y199377D01*
X70845Y199217D01*
X70832Y199183D01*
X70814Y199150D01*
X70752Y198974D01*
X70685Y198800D01*
X70678Y198764D01*
X70665Y198729D01*
X70636Y198545D01*
X70601Y198362D01*
X70598Y198311D01*
X70595Y198288D01*
X70596Y198251D01*
X70589Y198114D01*
X70589Y101886D01*
X70605Y101700D01*
X70617Y101514D01*
X70625Y101478D01*
X70629Y101441D01*
X70678Y101260D01*
X70722Y101080D01*
X70737Y101046D01*
X70747Y101010D01*
X70828Y100842D01*
X70904Y100671D01*
X70924Y100641D01*
X70940Y100607D01*
X71050Y100456D01*
X71155Y100302D01*
X71189Y100264D01*
X71202Y100245D01*
X71229Y100220D01*
X71321Y100118D01*
X140118Y31321D01*
X140262Y31201D01*
X140401Y31077D01*
X140433Y31058D01*
X140461Y31034D01*
X140623Y30942D01*
X140783Y30845D01*
X140817Y30832D01*
X140850Y30814D01*
X141026Y30752D01*
X141200Y30685D01*
X141236Y30678D01*
X141271Y30665D01*
X141455Y30636D01*
X141638Y30601D01*
X141689Y30598D01*
X141712Y30595D01*
X141749Y30596D01*
X141886Y30589D01*
X337684Y30589D01*
X337870Y30605D01*
X338056Y30617D01*
X338092Y30625D01*
X338129Y30629D01*
X338309Y30678D01*
X338490Y30722D01*
X338524Y30737D01*
X338560Y30747D01*
X338728Y30828D01*
X338898Y30904D01*
X338929Y30924D01*
X338962Y30940D01*
X339113Y31050D01*
X339268Y31155D01*
X339305Y31189D01*
X339324Y31202D01*
X339350Y31229D01*
X339451Y31321D01*
X341744Y33614D01*
X345479Y35161D01*
X349521Y35161D01*
X353256Y33614D01*
X356114Y30756D01*
X357661Y27021D01*
X357661Y22979D01*
X356114Y19244D01*
X353256Y16386D01*
X349521Y14839D01*
X348139Y14839D01*
X347997Y14826D01*
X347853Y14823D01*
X347775Y14807D01*
X347694Y14799D01*
X347556Y14761D01*
X347416Y14732D01*
X347300Y14691D01*
X347264Y14681D01*
X347239Y14669D01*
X347183Y14649D01*
X346609Y14411D01*
X135891Y14411D01*
G37*
%LPD*%
%LPC*%
G36*
X380600Y369799D02*
X380600Y369799D01*
X371797Y369799D01*
X372125Y370810D01*
X372779Y372093D01*
X373625Y373257D01*
X374643Y374275D01*
X375807Y375121D01*
X377090Y375775D01*
X377658Y375959D01*
X377668Y375964D01*
X377679Y375966D01*
X377871Y376051D01*
X378068Y376135D01*
X378078Y376141D01*
X378088Y376146D01*
X378262Y376263D01*
X378441Y376380D01*
X378450Y376388D01*
X378459Y376395D01*
X378612Y376543D01*
X378765Y376689D01*
X378771Y376698D01*
X378780Y376706D01*
X378902Y376877D01*
X379028Y377050D01*
X379033Y377060D01*
X379039Y377069D01*
X379130Y377260D01*
X379223Y377452D01*
X379226Y377463D01*
X379231Y377473D01*
X379286Y377679D01*
X379343Y377882D01*
X379344Y377893D01*
X379347Y377904D01*
X379365Y378117D01*
X379385Y378327D01*
X379384Y378338D01*
X379385Y378349D01*
X379364Y378560D01*
X379346Y378772D01*
X379343Y378783D01*
X379342Y378794D01*
X379285Y378997D01*
X379229Y379203D01*
X379225Y379213D01*
X379222Y379224D01*
X379128Y379416D01*
X379038Y379606D01*
X379031Y379615D01*
X379026Y379626D01*
X378900Y379798D01*
X378777Y379969D01*
X378769Y379977D01*
X378762Y379986D01*
X378610Y380132D01*
X378456Y380280D01*
X378447Y380286D01*
X378439Y380294D01*
X378262Y380410D01*
X378085Y380529D01*
X378075Y380533D01*
X378065Y380539D01*
X377842Y380645D01*
X373693Y382363D01*
X370263Y385793D01*
X368407Y390275D01*
X368407Y395125D01*
X370263Y399607D01*
X373693Y403036D01*
X373825Y403091D01*
X373946Y403154D01*
X374071Y403209D01*
X374144Y403258D01*
X374221Y403298D01*
X374329Y403382D01*
X374442Y403458D01*
X374505Y403519D01*
X374573Y403572D01*
X374665Y403674D01*
X374763Y403770D01*
X374813Y403840D01*
X374871Y403905D01*
X374943Y404022D01*
X375023Y404133D01*
X375060Y404211D01*
X375105Y404285D01*
X375155Y404413D01*
X375214Y404537D01*
X375237Y404621D01*
X375268Y404701D01*
X375294Y404836D01*
X375330Y404968D01*
X375337Y405054D01*
X375354Y405140D01*
X375356Y405277D01*
X375368Y405413D01*
X375360Y405500D01*
X375361Y405586D01*
X375338Y405721D01*
X375326Y405858D01*
X375302Y405942D01*
X375288Y406027D01*
X375242Y406156D01*
X375205Y406288D01*
X375167Y406366D01*
X375138Y406448D01*
X375069Y406566D01*
X375009Y406689D01*
X374958Y406760D01*
X374915Y406835D01*
X374826Y406940D01*
X374746Y407050D01*
X374683Y407110D01*
X374627Y407176D01*
X374521Y407264D01*
X374422Y407358D01*
X374349Y407405D01*
X374282Y407461D01*
X374163Y407528D01*
X374049Y407603D01*
X373925Y407662D01*
X373893Y407680D01*
X373871Y407687D01*
X373825Y407709D01*
X373693Y407763D01*
X370263Y411193D01*
X368407Y415675D01*
X368407Y420525D01*
X370263Y425007D01*
X373693Y428437D01*
X378175Y430293D01*
X396233Y430293D01*
X400715Y428437D01*
X404145Y425007D01*
X406001Y420525D01*
X406001Y415675D01*
X404145Y411193D01*
X400715Y407763D01*
X400583Y407709D01*
X400462Y407645D01*
X400336Y407591D01*
X400264Y407542D01*
X400187Y407502D01*
X400079Y407418D01*
X399966Y407341D01*
X399903Y407281D01*
X399835Y407228D01*
X399743Y407126D01*
X399645Y407030D01*
X399595Y406960D01*
X399537Y406895D01*
X399465Y406778D01*
X399385Y406667D01*
X399348Y406588D01*
X399302Y406514D01*
X399253Y406387D01*
X399194Y406263D01*
X399171Y406179D01*
X399140Y406098D01*
X399114Y405964D01*
X399078Y405832D01*
X399071Y405745D01*
X399054Y405660D01*
X399052Y405523D01*
X399040Y405387D01*
X399048Y405300D01*
X399047Y405213D01*
X399070Y405079D01*
X399083Y404942D01*
X399106Y404858D01*
X399120Y404773D01*
X399166Y404644D01*
X399203Y404512D01*
X399241Y404434D01*
X399271Y404352D01*
X399339Y404233D01*
X399399Y404110D01*
X399450Y404040D01*
X399493Y403965D01*
X399582Y403860D01*
X399662Y403750D01*
X399725Y403690D01*
X399781Y403624D01*
X399887Y403536D01*
X399986Y403442D01*
X400059Y403394D01*
X400126Y403339D01*
X400245Y403272D01*
X400359Y403197D01*
X400483Y403138D01*
X400515Y403120D01*
X400537Y403113D01*
X400583Y403091D01*
X400715Y403036D01*
X404145Y399607D01*
X406001Y395125D01*
X406001Y390275D01*
X404145Y385793D01*
X400715Y382363D01*
X396566Y380645D01*
X396556Y380640D01*
X396545Y380636D01*
X396358Y380536D01*
X396171Y380438D01*
X396162Y380431D01*
X396152Y380426D01*
X395985Y380294D01*
X395818Y380164D01*
X395810Y380155D01*
X395801Y380148D01*
X395662Y379989D01*
X395520Y379831D01*
X395514Y379821D01*
X395506Y379813D01*
X395397Y379631D01*
X395286Y379451D01*
X395282Y379440D01*
X395276Y379430D01*
X395200Y379232D01*
X395123Y379035D01*
X395121Y379024D01*
X395117Y379013D01*
X395078Y378805D01*
X395037Y378596D01*
X395037Y378585D01*
X395035Y378574D01*
X395034Y378361D01*
X395030Y378150D01*
X395032Y378139D01*
X395032Y378127D01*
X395069Y377918D01*
X395103Y377709D01*
X395107Y377698D01*
X395109Y377687D01*
X395183Y377487D01*
X395254Y377288D01*
X395259Y377279D01*
X395263Y377268D01*
X395371Y377084D01*
X395477Y376901D01*
X395484Y376892D01*
X395490Y376883D01*
X395628Y376721D01*
X395765Y376560D01*
X395773Y376553D01*
X395781Y376544D01*
X395948Y376409D01*
X396109Y376275D01*
X396119Y376270D01*
X396128Y376263D01*
X396315Y376159D01*
X396498Y376056D01*
X396509Y376053D01*
X396519Y376047D01*
X396750Y375959D01*
X397318Y375775D01*
X398601Y375121D01*
X399765Y374275D01*
X400783Y373257D01*
X401629Y372093D01*
X402283Y370810D01*
X402611Y369799D01*
X380600Y369799D01*
X380600Y369799D01*
G37*
%LPD*%
%LPC*%
G36*
X452539Y443339D02*
X452539Y443339D01*
X452539Y450961D01*
X458420Y450961D01*
X459999Y450711D01*
X461520Y450216D01*
X462945Y449490D01*
X464239Y448550D01*
X465370Y447419D01*
X466310Y446125D01*
X467036Y444700D01*
X467479Y443339D01*
X452539Y443339D01*
G37*
%LPD*%
%LPC*%
G36*
X432521Y443339D02*
X432521Y443339D01*
X432964Y444700D01*
X433690Y446125D01*
X434630Y447419D01*
X435761Y448550D01*
X437055Y449490D01*
X438480Y450216D01*
X440001Y450711D01*
X441580Y450961D01*
X447461Y450961D01*
X447461Y443339D01*
X432521Y443339D01*
G37*
%LPD*%
%LPC*%
G36*
X224297Y418099D02*
X224297Y418099D01*
X224625Y419110D01*
X225279Y420393D01*
X226125Y421557D01*
X227143Y422575D01*
X228307Y423421D01*
X229590Y424075D01*
X230601Y424403D01*
X230601Y418099D01*
X224297Y418099D01*
G37*
%LPD*%
D10*
X153800Y223380D02*
X153800Y238620D01*
X179200Y238620D02*
X179200Y223380D01*
X204600Y223380D02*
X204600Y238620D01*
X230000Y238620D02*
X230000Y223380D01*
X255400Y223380D02*
X255400Y238620D01*
X280800Y238620D02*
X280800Y223380D01*
X306200Y223380D02*
X306200Y238620D01*
X331600Y238620D02*
X331600Y223380D01*
X357000Y223380D02*
X357000Y238620D01*
X382400Y238620D02*
X382400Y223380D01*
X407800Y223380D02*
X407800Y238620D01*
X433200Y238620D02*
X433200Y223380D01*
X433200Y78620D02*
X433200Y63380D01*
X407800Y63380D02*
X407800Y78620D01*
X382400Y78620D02*
X382400Y63380D01*
X357000Y63380D02*
X357000Y78620D01*
X331600Y78620D02*
X331600Y63380D01*
X306200Y63380D02*
X306200Y78620D01*
X280800Y78620D02*
X280800Y63380D01*
X255400Y63380D02*
X255400Y78620D01*
X230000Y78620D02*
X230000Y63380D01*
X204600Y63380D02*
X204600Y78620D01*
X179200Y78620D02*
X179200Y63380D01*
X153800Y63380D02*
X153800Y78620D01*
X423380Y203900D02*
X438620Y203900D01*
X438620Y178500D02*
X423380Y178500D01*
X423380Y153100D02*
X438620Y153100D01*
X98700Y282380D02*
X98700Y297620D01*
X124100Y297620D02*
X124100Y282380D01*
X149500Y282380D02*
X149500Y297620D01*
X174900Y297620D02*
X174900Y282380D01*
X200300Y282380D02*
X200300Y297620D01*
X225700Y297620D02*
X225700Y282380D01*
X251100Y282380D02*
X251100Y297620D01*
X276500Y297620D02*
X276500Y282380D01*
X301900Y282380D02*
X301900Y297620D01*
X327300Y297620D02*
X327300Y282380D01*
X352700Y282380D02*
X352700Y297620D01*
X378100Y297620D02*
X378100Y282380D01*
X403500Y282380D02*
X403500Y297620D01*
X428900Y297620D02*
X428900Y282380D01*
X454300Y282380D02*
X454300Y297620D01*
X479700Y297620D02*
X479700Y282380D01*
X505100Y282380D02*
X505100Y297620D01*
X530500Y297620D02*
X530500Y282380D01*
X555900Y282380D02*
X555900Y297620D01*
X581300Y297620D02*
X581300Y282380D01*
X101200Y117620D02*
X101200Y102380D01*
X126600Y102380D02*
X126600Y117620D01*
X152000Y117620D02*
X152000Y102380D01*
X177400Y102380D02*
X177400Y117620D01*
X202800Y117620D02*
X202800Y102380D01*
X228200Y102380D02*
X228200Y117620D01*
X253600Y117620D02*
X253600Y102380D01*
X279000Y102380D02*
X279000Y117620D01*
X304400Y117620D02*
X304400Y102380D01*
X329800Y102380D02*
X329800Y117620D01*
X355200Y117620D02*
X355200Y102380D01*
X380600Y102380D02*
X380600Y117620D01*
X406000Y117620D02*
X406000Y102380D01*
X431400Y102380D02*
X431400Y117620D01*
X456800Y117620D02*
X456800Y102380D01*
X482200Y102380D02*
X482200Y117620D01*
X507600Y117620D02*
X507600Y102380D01*
X533000Y102380D02*
X533000Y117620D01*
X558400Y117620D02*
X558400Y102380D01*
X583800Y102380D02*
X583800Y117620D01*
D11*
X304400Y418100D02*
X291192Y418100D01*
X291192Y392700D02*
X304400Y392700D01*
X380600Y392700D02*
X393808Y392700D01*
X393808Y418100D02*
X380600Y418100D01*
X304400Y367300D02*
X291192Y367300D01*
X291192Y341900D02*
X304400Y341900D01*
X380600Y367300D02*
X393808Y367300D01*
X393808Y341900D02*
X380600Y341900D01*
X156900Y415600D02*
X143692Y415600D01*
X143692Y390200D02*
X156900Y390200D01*
X233100Y390200D02*
X246308Y390200D01*
X246308Y415600D02*
X233100Y415600D01*
X156900Y364800D02*
X143692Y364800D01*
X143692Y339400D02*
X156900Y339400D01*
X233100Y364800D02*
X246308Y364800D01*
X246308Y339400D02*
X233100Y339400D01*
D10*
X442380Y339200D02*
X457620Y339200D01*
X457620Y364600D02*
X442380Y364600D01*
X442380Y390000D02*
X457620Y390000D01*
X457620Y415400D02*
X442380Y415400D01*
X442380Y440800D02*
X457620Y440800D01*
X65120Y339400D02*
X49880Y339400D01*
X49880Y364800D02*
X65120Y364800D01*
X65120Y390200D02*
X49880Y390200D01*
X49880Y415600D02*
X65120Y415600D01*
D12*
X200300Y299056D02*
X218572Y317328D01*
X200300Y299056D02*
X200300Y290000D01*
D13*
X428128Y317328D02*
X450000Y339200D01*
X428128Y317328D02*
X218572Y317328D01*
D14*
X407800Y231000D02*
X407800Y210535D01*
X355200Y157935D01*
X355200Y110000D01*
X475828Y353207D02*
X464435Y364600D01*
X450000Y364600D01*
X475828Y353207D02*
X475828Y322694D01*
X454300Y301166D02*
X454300Y290000D01*
X454300Y301166D02*
X475828Y322694D01*
X475890Y378530D02*
X476030Y378530D01*
X464560Y390000D01*
X450000Y390000D01*
X475890Y378530D02*
X492500Y361920D01*
X479700Y307200D02*
X479700Y290000D01*
X492500Y320000D02*
X492500Y361920D01*
X492500Y320000D02*
X479700Y307200D01*
D13*
X90000Y390200D02*
X57500Y390200D01*
X90000Y390200D02*
X112500Y412700D01*
X152500Y412700D01*
X155386Y414086D02*
X156900Y415600D01*
X155386Y414086D02*
X152500Y412700D01*
X156900Y364800D02*
X57500Y364800D01*
X156900Y390200D02*
X167300Y390200D01*
X182500Y375000D01*
X182500Y352500D01*
X169400Y339400D01*
X156900Y339400D01*
X295692Y350608D02*
X304400Y341900D01*
X295692Y350608D02*
X284278Y350608D01*
X265000Y369886D01*
X265000Y430000D01*
X252500Y442500D01*
X219600Y442500D02*
X167300Y390200D01*
X219600Y442500D02*
X252500Y442500D01*
X156900Y339400D02*
X57500Y339400D01*
D14*
X251100Y290000D02*
X251100Y268600D01*
D15*
X469305Y241805D03*
D14*
X466643Y241805D01*
X445120Y263328D01*
X256372Y263328D02*
X251100Y268600D01*
X256372Y263328D02*
X445120Y263328D01*
X445127Y219608D02*
X454328Y210407D01*
X444592Y219608D02*
X433200Y231000D01*
X444592Y219608D02*
X445127Y219608D01*
X454328Y210407D02*
X454328Y149108D01*
X438548Y133328D01*
X390000Y133328D01*
X380600Y123928D02*
X380600Y110000D01*
X380600Y123928D02*
X390000Y133328D01*
X280800Y235435D02*
X299694Y254328D01*
X280800Y235435D02*
X280800Y231000D01*
X299694Y254328D02*
X440000Y254328D01*
X552164Y142164D01*
X572836Y142164D01*
X583800Y131200D02*
X583800Y110000D01*
X583800Y131200D02*
X572836Y142164D01*
D15*
X347500Y25000D03*
D14*
X345000Y22500D01*
X137500Y22500D01*
X62500Y97500D01*
X62500Y202500D01*
X220000Y257500D02*
X225700Y263200D01*
X225700Y290000D01*
X117500Y257500D02*
X62500Y202500D01*
X117500Y257500D02*
X220000Y257500D01*
M02*
