G04 EAGLE Gerber RS-274X export*
G75*
%MOMM*%
%FSLAX34Y34*%
%LPD*%
%INSoldermask Bottom*%
%IPPOS*%
%AMOC8*
5,1,8,0,0,1.08239X$1,22.5*%
G01*
%ADD10C,1.727200*%
%ADD11C,1.524000*%
%ADD12C,1.117600*%


D10*
X153800Y223380D02*
X153800Y238620D01*
X179200Y238620D02*
X179200Y223380D01*
X204600Y223380D02*
X204600Y238620D01*
X230000Y238620D02*
X230000Y223380D01*
X255400Y223380D02*
X255400Y238620D01*
X280800Y238620D02*
X280800Y223380D01*
X306200Y223380D02*
X306200Y238620D01*
X331600Y238620D02*
X331600Y223380D01*
X357000Y223380D02*
X357000Y238620D01*
X382400Y238620D02*
X382400Y223380D01*
X407800Y223380D02*
X407800Y238620D01*
X433200Y238620D02*
X433200Y223380D01*
X433200Y78620D02*
X433200Y63380D01*
X407800Y63380D02*
X407800Y78620D01*
X382400Y78620D02*
X382400Y63380D01*
X357000Y63380D02*
X357000Y78620D01*
X331600Y78620D02*
X331600Y63380D01*
X306200Y63380D02*
X306200Y78620D01*
X280800Y78620D02*
X280800Y63380D01*
X255400Y63380D02*
X255400Y78620D01*
X230000Y78620D02*
X230000Y63380D01*
X204600Y63380D02*
X204600Y78620D01*
X179200Y78620D02*
X179200Y63380D01*
X153800Y63380D02*
X153800Y78620D01*
X423380Y203900D02*
X438620Y203900D01*
X438620Y178500D02*
X423380Y178500D01*
X423380Y153100D02*
X438620Y153100D01*
X98700Y282380D02*
X98700Y297620D01*
X124100Y297620D02*
X124100Y282380D01*
X149500Y282380D02*
X149500Y297620D01*
X174900Y297620D02*
X174900Y282380D01*
X200300Y282380D02*
X200300Y297620D01*
X225700Y297620D02*
X225700Y282380D01*
X251100Y282380D02*
X251100Y297620D01*
X276500Y297620D02*
X276500Y282380D01*
X301900Y282380D02*
X301900Y297620D01*
X327300Y297620D02*
X327300Y282380D01*
X352700Y282380D02*
X352700Y297620D01*
X378100Y297620D02*
X378100Y282380D01*
X403500Y282380D02*
X403500Y297620D01*
X428900Y297620D02*
X428900Y282380D01*
X454300Y282380D02*
X454300Y297620D01*
X479700Y297620D02*
X479700Y282380D01*
X505100Y282380D02*
X505100Y297620D01*
X530500Y297620D02*
X530500Y282380D01*
X555900Y282380D02*
X555900Y297620D01*
X581300Y297620D02*
X581300Y282380D01*
X101200Y117620D02*
X101200Y102380D01*
X126600Y102380D02*
X126600Y117620D01*
X152000Y117620D02*
X152000Y102380D01*
X177400Y102380D02*
X177400Y117620D01*
X202800Y117620D02*
X202800Y102380D01*
X228200Y102380D02*
X228200Y117620D01*
X253600Y117620D02*
X253600Y102380D01*
X279000Y102380D02*
X279000Y117620D01*
X304400Y117620D02*
X304400Y102380D01*
X329800Y102380D02*
X329800Y117620D01*
X355200Y117620D02*
X355200Y102380D01*
X380600Y102380D02*
X380600Y117620D01*
X406000Y117620D02*
X406000Y102380D01*
X431400Y102380D02*
X431400Y117620D01*
X456800Y117620D02*
X456800Y102380D01*
X482200Y102380D02*
X482200Y117620D01*
X507600Y117620D02*
X507600Y102380D01*
X533000Y102380D02*
X533000Y117620D01*
X558400Y117620D02*
X558400Y102380D01*
X583800Y102380D02*
X583800Y117620D01*
D11*
X304400Y418100D02*
X291192Y418100D01*
X291192Y392700D02*
X304400Y392700D01*
X380600Y392700D02*
X393808Y392700D01*
X393808Y418100D02*
X380600Y418100D01*
X304400Y367300D02*
X291192Y367300D01*
X291192Y341900D02*
X304400Y341900D01*
X380600Y367300D02*
X393808Y367300D01*
X393808Y341900D02*
X380600Y341900D01*
X156900Y415600D02*
X143692Y415600D01*
X143692Y390200D02*
X156900Y390200D01*
X233100Y390200D02*
X246308Y390200D01*
X246308Y415600D02*
X233100Y415600D01*
X156900Y364800D02*
X143692Y364800D01*
X143692Y339400D02*
X156900Y339400D01*
X233100Y364800D02*
X246308Y364800D01*
X246308Y339400D02*
X233100Y339400D01*
D10*
X442380Y339200D02*
X457620Y339200D01*
X457620Y364600D02*
X442380Y364600D01*
X442380Y390000D02*
X457620Y390000D01*
X457620Y415400D02*
X442380Y415400D01*
X442380Y440800D02*
X457620Y440800D01*
X65120Y339400D02*
X49880Y339400D01*
X49880Y364800D02*
X65120Y364800D01*
X65120Y390200D02*
X49880Y390200D01*
X49880Y415600D02*
X65120Y415600D01*
D12*
X469305Y241805D03*
X347500Y25000D03*
M02*
