G04 EAGLE Gerber RS-274X export*
G75*
%MOMM*%
%FSLAX34Y34*%
%LPD*%
%INSilkscreen Top*%
%IPPOS*%
%AMOC8*
5,1,8,0,0,1.08239X$1,22.5*%
G01*
%ADD10C,0.406400*%
%ADD11C,0.101600*%
%ADD12C,0.152400*%
%ADD13C,0.127000*%
%ADD14C,0.254000*%


D10*
X121000Y56000D02*
X121000Y246000D01*
X461000Y246000D01*
X461000Y56000D01*
X121000Y56000D01*
X21000Y56000D01*
X21000Y246000D01*
X121000Y246000D01*
D11*
X144508Y365399D02*
X153321Y365399D01*
X144508Y365399D02*
X144508Y352180D01*
X153321Y352180D01*
X148914Y358790D02*
X144508Y358790D01*
X157605Y352180D02*
X157605Y365399D01*
X166418Y365399D01*
X162012Y358790D02*
X157605Y358790D01*
X170703Y360993D02*
X170703Y352180D01*
X170703Y360993D02*
X175109Y365399D01*
X179515Y360993D01*
X179515Y352180D01*
X179515Y358790D02*
X170703Y358790D01*
X183800Y352180D02*
X188206Y352180D01*
X186003Y352180D02*
X186003Y365399D01*
X183800Y365399D02*
X188206Y365399D01*
X199141Y365399D02*
X201344Y363196D01*
X199141Y365399D02*
X194734Y365399D01*
X192531Y363196D01*
X192531Y360993D01*
X194734Y358790D01*
X199141Y358790D01*
X201344Y356586D01*
X201344Y354383D01*
X199141Y352180D01*
X194734Y352180D01*
X192531Y354383D01*
X205629Y352180D02*
X205629Y360993D01*
X210035Y365399D01*
X214441Y360993D01*
X214441Y352180D01*
X214441Y358790D02*
X205629Y358790D01*
X153321Y341860D02*
X151118Y344063D01*
X146711Y344063D01*
X144508Y341860D01*
X144508Y333047D01*
X146711Y330844D01*
X151118Y330844D01*
X153321Y333047D01*
X159808Y330844D02*
X164215Y330844D01*
X166418Y333047D01*
X166418Y337454D01*
X164215Y339657D01*
X159808Y339657D01*
X157605Y337454D01*
X157605Y333047D01*
X159808Y330844D01*
X170703Y330844D02*
X170703Y339657D01*
X177312Y339657D01*
X179515Y337454D01*
X179515Y330844D01*
X186003Y333047D02*
X186003Y341860D01*
X186003Y333047D02*
X188206Y330844D01*
X188206Y339657D02*
X183800Y339657D01*
X192531Y333047D02*
X192531Y330844D01*
X192531Y333047D02*
X194734Y333047D01*
X194734Y330844D01*
X192531Y330844D01*
X220990Y330844D02*
X220990Y344063D01*
X220990Y330844D02*
X214380Y330844D01*
X212177Y333047D01*
X212177Y337454D01*
X214380Y339657D01*
X220990Y339657D01*
X227478Y330844D02*
X231884Y330844D01*
X227478Y330844D02*
X225274Y333047D01*
X225274Y337454D01*
X227478Y339657D01*
X231884Y339657D01*
X234087Y337454D01*
X234087Y335250D01*
X225274Y335250D01*
X251469Y330844D02*
X251469Y339657D01*
X255875Y344063D01*
X260282Y339657D01*
X260282Y330844D01*
X260282Y337454D02*
X251469Y337454D01*
X266769Y339657D02*
X273379Y339657D01*
X266769Y339657D02*
X264566Y337454D01*
X264566Y333047D01*
X266769Y330844D01*
X273379Y330844D01*
X279867Y339657D02*
X286476Y339657D01*
X279867Y339657D02*
X277663Y337454D01*
X277663Y333047D01*
X279867Y330844D01*
X286476Y330844D01*
X292964Y330844D02*
X297370Y330844D01*
X292964Y330844D02*
X290761Y333047D01*
X290761Y337454D01*
X292964Y339657D01*
X297370Y339657D01*
X299573Y337454D01*
X299573Y335250D01*
X290761Y335250D01*
X303858Y330844D02*
X310468Y330844D01*
X312671Y333047D01*
X310468Y335250D01*
X306061Y335250D01*
X303858Y337454D01*
X306061Y339657D01*
X312671Y339657D01*
X319158Y330844D02*
X323565Y330844D01*
X325768Y333047D01*
X325768Y337454D01*
X323565Y339657D01*
X319158Y339657D01*
X316955Y337454D01*
X316955Y333047D01*
X319158Y330844D01*
X148914Y309508D02*
X144508Y309508D01*
X146711Y309508D02*
X146711Y322727D01*
X144508Y322727D02*
X148914Y322727D01*
X153240Y318321D02*
X153240Y309508D01*
X153240Y318321D02*
X159849Y318321D01*
X162052Y316118D01*
X162052Y309508D01*
X175150Y309508D02*
X175150Y322727D01*
X175150Y309508D02*
X168540Y309508D01*
X166337Y311711D01*
X166337Y316118D01*
X168540Y318321D01*
X175150Y318321D01*
X179434Y311711D02*
X179434Y309508D01*
X179434Y311711D02*
X181637Y311711D01*
X181637Y309508D01*
X179434Y309508D01*
X199080Y309508D02*
X199080Y318321D01*
X203486Y322727D01*
X207893Y318321D01*
X207893Y309508D01*
X207893Y316118D02*
X199080Y316118D01*
X212177Y318321D02*
X212177Y309508D01*
X212177Y313914D02*
X216584Y318321D01*
X218787Y318321D01*
X227498Y305102D02*
X229701Y305102D01*
X231904Y307305D01*
X231904Y318321D01*
X225295Y318321D01*
X223092Y316118D01*
X223092Y311711D01*
X225295Y309508D01*
X231904Y309508D01*
X238392Y309508D02*
X242798Y309508D01*
X238392Y309508D02*
X236189Y311711D01*
X236189Y316118D01*
X238392Y318321D01*
X242798Y318321D01*
X245002Y316118D01*
X245002Y313914D01*
X236189Y313914D01*
X249286Y309508D02*
X249286Y318321D01*
X255896Y318321D01*
X258099Y316118D01*
X258099Y309508D01*
X264586Y311711D02*
X264586Y320524D01*
X264586Y311711D02*
X266790Y309508D01*
X266790Y318321D02*
X262383Y318321D01*
X271115Y318321D02*
X273318Y318321D01*
X273318Y309508D01*
X271115Y309508D02*
X275521Y309508D01*
X273318Y322727D02*
X273318Y324931D01*
X279846Y318321D02*
X279846Y309508D01*
X279846Y318321D02*
X286456Y318321D01*
X288659Y316118D01*
X288659Y309508D01*
X295147Y318321D02*
X299553Y318321D01*
X301756Y316118D01*
X301756Y309508D01*
X295147Y309508D01*
X292944Y311711D01*
X295147Y313914D01*
X301756Y313914D01*
D12*
X376050Y243700D02*
X388750Y243700D01*
X395100Y237350D01*
X395100Y224650D01*
X388750Y218300D01*
X395100Y237350D02*
X401450Y243700D01*
X414150Y243700D01*
X420500Y237350D01*
X420500Y224650D01*
X414150Y218300D01*
X401450Y218300D01*
X395100Y224650D01*
X350650Y243700D02*
X344300Y237350D01*
X350650Y243700D02*
X363350Y243700D01*
X369700Y237350D01*
X369700Y224650D01*
X363350Y218300D01*
X350650Y218300D01*
X344300Y224650D01*
X369700Y237350D02*
X376050Y243700D01*
X369700Y224650D02*
X376050Y218300D01*
X388750Y218300D01*
X312550Y243700D02*
X299850Y243700D01*
X312550Y243700D02*
X318900Y237350D01*
X318900Y224650D01*
X312550Y218300D01*
X318900Y237350D02*
X325250Y243700D01*
X337950Y243700D01*
X344300Y237350D01*
X344300Y224650D01*
X337950Y218300D01*
X325250Y218300D01*
X318900Y224650D01*
X274450Y243700D02*
X268100Y237350D01*
X274450Y243700D02*
X287150Y243700D01*
X293500Y237350D01*
X293500Y224650D01*
X287150Y218300D01*
X274450Y218300D01*
X268100Y224650D01*
X293500Y237350D02*
X299850Y243700D01*
X293500Y224650D02*
X299850Y218300D01*
X312550Y218300D01*
X236350Y243700D02*
X223650Y243700D01*
X236350Y243700D02*
X242700Y237350D01*
X242700Y224650D01*
X236350Y218300D01*
X242700Y237350D02*
X249050Y243700D01*
X261750Y243700D01*
X268100Y237350D01*
X268100Y224650D01*
X261750Y218300D01*
X249050Y218300D01*
X242700Y224650D01*
X198250Y243700D02*
X191900Y237350D01*
X198250Y243700D02*
X210950Y243700D01*
X217300Y237350D01*
X217300Y224650D01*
X210950Y218300D01*
X198250Y218300D01*
X191900Y224650D01*
X217300Y237350D02*
X223650Y243700D01*
X217300Y224650D02*
X223650Y218300D01*
X236350Y218300D01*
X160150Y243700D02*
X147450Y243700D01*
X160150Y243700D02*
X166500Y237350D01*
X166500Y224650D01*
X160150Y218300D01*
X166500Y237350D02*
X172850Y243700D01*
X185550Y243700D01*
X191900Y237350D01*
X191900Y224650D01*
X185550Y218300D01*
X172850Y218300D01*
X166500Y224650D01*
X141100Y224650D02*
X141100Y237350D01*
X147450Y243700D01*
X141100Y224650D02*
X147450Y218300D01*
X160150Y218300D01*
X420500Y237350D02*
X426850Y243700D01*
X439550Y243700D01*
X445900Y237350D01*
X445900Y224650D01*
X439550Y218300D01*
X426850Y218300D01*
X420500Y224650D01*
X210950Y58300D02*
X198250Y58300D01*
X191900Y64650D01*
X191900Y77350D01*
X198250Y83700D01*
X191900Y64650D02*
X185550Y58300D01*
X172850Y58300D01*
X166500Y64650D01*
X166500Y77350D01*
X172850Y83700D01*
X185550Y83700D01*
X191900Y77350D01*
X236350Y58300D02*
X242700Y64650D01*
X236350Y58300D02*
X223650Y58300D01*
X217300Y64650D01*
X217300Y77350D01*
X223650Y83700D01*
X236350Y83700D01*
X242700Y77350D01*
X217300Y64650D02*
X210950Y58300D01*
X217300Y77350D02*
X210950Y83700D01*
X198250Y83700D01*
X274450Y58300D02*
X287150Y58300D01*
X274450Y58300D02*
X268100Y64650D01*
X268100Y77350D01*
X274450Y83700D01*
X268100Y64650D02*
X261750Y58300D01*
X249050Y58300D01*
X242700Y64650D01*
X242700Y77350D01*
X249050Y83700D01*
X261750Y83700D01*
X268100Y77350D01*
X312550Y58300D02*
X318900Y64650D01*
X312550Y58300D02*
X299850Y58300D01*
X293500Y64650D01*
X293500Y77350D01*
X299850Y83700D01*
X312550Y83700D01*
X318900Y77350D01*
X293500Y64650D02*
X287150Y58300D01*
X293500Y77350D02*
X287150Y83700D01*
X274450Y83700D01*
X350650Y58300D02*
X363350Y58300D01*
X350650Y58300D02*
X344300Y64650D01*
X344300Y77350D01*
X350650Y83700D01*
X344300Y64650D02*
X337950Y58300D01*
X325250Y58300D01*
X318900Y64650D01*
X318900Y77350D01*
X325250Y83700D01*
X337950Y83700D01*
X344300Y77350D01*
X388750Y58300D02*
X395100Y64650D01*
X388750Y58300D02*
X376050Y58300D01*
X369700Y64650D01*
X369700Y77350D01*
X376050Y83700D01*
X388750Y83700D01*
X395100Y77350D01*
X369700Y64650D02*
X363350Y58300D01*
X369700Y77350D02*
X363350Y83700D01*
X350650Y83700D01*
X426850Y58300D02*
X439550Y58300D01*
X426850Y58300D02*
X420500Y64650D01*
X420500Y77350D01*
X426850Y83700D01*
X420500Y64650D02*
X414150Y58300D01*
X401450Y58300D01*
X395100Y64650D01*
X395100Y77350D01*
X401450Y83700D01*
X414150Y83700D01*
X420500Y77350D01*
X445900Y77350D02*
X445900Y64650D01*
X439550Y58300D01*
X445900Y77350D02*
X439550Y83700D01*
X426850Y83700D01*
X166500Y64650D02*
X160150Y58300D01*
X147450Y58300D01*
X141100Y64650D01*
X141100Y77350D01*
X147450Y83700D01*
X160150Y83700D01*
X166500Y77350D01*
D13*
X43353Y98602D02*
X31913Y98602D01*
X35727Y102415D01*
X31913Y106229D01*
X43353Y106229D01*
X31913Y112203D02*
X31913Y116016D01*
X31913Y112203D02*
X33820Y110296D01*
X41446Y110296D01*
X43353Y112203D01*
X43353Y116016D01*
X41446Y117923D01*
X33820Y117923D01*
X31913Y116016D01*
X31913Y121990D02*
X43353Y121990D01*
X43353Y127710D01*
X41446Y129617D01*
X33820Y129617D01*
X31913Y127710D01*
X31913Y121990D01*
X41446Y133684D02*
X43353Y133684D01*
X41446Y133684D02*
X41446Y135591D01*
X43353Y135591D01*
X43353Y133684D01*
X31913Y139531D02*
X31913Y147157D01*
X31913Y139531D02*
X43353Y139531D01*
X43353Y147157D01*
X37633Y143344D02*
X37633Y139531D01*
X43353Y151225D02*
X31913Y151225D01*
X31913Y158851D01*
X37633Y155038D02*
X37633Y151225D01*
X35727Y162919D02*
X43353Y162919D01*
X35727Y162919D02*
X31913Y166732D01*
X35727Y170545D01*
X43353Y170545D01*
X37633Y170545D02*
X37633Y162919D01*
X43353Y174613D02*
X43353Y178426D01*
X43353Y176519D02*
X31913Y176519D01*
X31913Y174613D02*
X31913Y178426D01*
X31913Y188129D02*
X33820Y190035D01*
X31913Y188129D02*
X31913Y184315D01*
X33820Y182409D01*
X35727Y182409D01*
X37633Y184315D01*
X37633Y188129D01*
X39540Y190035D01*
X41446Y190035D01*
X43353Y188129D01*
X43353Y184315D01*
X41446Y182409D01*
X43353Y194103D02*
X35727Y194103D01*
X31913Y197916D01*
X35727Y201729D01*
X43353Y201729D01*
X37633Y201729D02*
X37633Y194103D01*
D12*
X443700Y197550D02*
X443700Y210250D01*
X443700Y197550D02*
X437350Y191200D01*
X424650Y191200D01*
X418300Y197550D01*
X437350Y191200D02*
X443700Y184850D01*
X443700Y172150D01*
X437350Y165800D01*
X424650Y165800D01*
X418300Y172150D01*
X418300Y184850D01*
X424650Y191200D01*
X424650Y216600D02*
X437350Y216600D01*
X443700Y210250D01*
X424650Y216600D02*
X418300Y210250D01*
X418300Y197550D01*
X437350Y165800D02*
X443700Y159450D01*
X443700Y146750D01*
X437350Y140400D01*
X424650Y140400D01*
X418300Y146750D01*
X418300Y159450D01*
X424650Y165800D01*
X105050Y302700D02*
X92350Y302700D01*
X105050Y302700D02*
X111400Y296350D01*
X111400Y283650D02*
X105050Y277300D01*
X111400Y296350D02*
X117750Y302700D01*
X130450Y302700D01*
X136800Y296350D01*
X136800Y283650D02*
X130450Y277300D01*
X117750Y277300D01*
X111400Y283650D01*
X86000Y283650D02*
X86000Y296350D01*
X92350Y302700D01*
X86000Y283650D02*
X92350Y277300D01*
X105050Y277300D01*
X136800Y296350D02*
X143150Y302700D01*
X155850Y302700D01*
X162200Y296350D01*
X162200Y283650D02*
X155850Y277300D01*
X143150Y277300D01*
X136800Y283650D01*
X168550Y302700D02*
X181250Y302700D01*
X187600Y296350D01*
X187600Y283650D02*
X181250Y277300D01*
X187600Y296350D02*
X193950Y302700D01*
X206650Y302700D01*
X213000Y296350D01*
X213000Y283650D02*
X206650Y277300D01*
X193950Y277300D01*
X187600Y283650D01*
X168550Y302700D02*
X162200Y296350D01*
X162200Y283650D02*
X168550Y277300D01*
X181250Y277300D01*
X346350Y302700D02*
X359050Y302700D01*
X365400Y296350D01*
X365400Y283650D02*
X359050Y277300D01*
X365400Y296350D02*
X371750Y302700D01*
X384450Y302700D01*
X390800Y296350D01*
X390800Y283650D02*
X384450Y277300D01*
X371750Y277300D01*
X365400Y283650D01*
X346350Y302700D02*
X340000Y296350D01*
X340000Y283650D02*
X346350Y277300D01*
X359050Y277300D01*
X390800Y296350D02*
X397150Y302700D01*
X409850Y302700D01*
X416200Y296350D01*
X416200Y283650D02*
X409850Y277300D01*
X397150Y277300D01*
X390800Y283650D01*
X422550Y302700D02*
X435250Y302700D01*
X441600Y296350D01*
X441600Y283650D02*
X435250Y277300D01*
X441600Y296350D02*
X447950Y302700D01*
X460650Y302700D01*
X467000Y296350D01*
X467000Y283650D02*
X460650Y277300D01*
X447950Y277300D01*
X441600Y283650D01*
X422550Y302700D02*
X416200Y296350D01*
X416200Y283650D02*
X422550Y277300D01*
X435250Y277300D01*
X232050Y302700D02*
X219350Y302700D01*
X232050Y302700D02*
X238400Y296350D01*
X238400Y283650D02*
X232050Y277300D01*
X238400Y296350D02*
X244750Y302700D01*
X257450Y302700D01*
X263800Y296350D01*
X263800Y283650D02*
X257450Y277300D01*
X244750Y277300D01*
X238400Y283650D01*
X219350Y302700D02*
X213000Y296350D01*
X213000Y283650D02*
X219350Y277300D01*
X232050Y277300D01*
X263800Y296350D02*
X270150Y302700D01*
X282850Y302700D01*
X289200Y296350D01*
X289200Y283650D02*
X282850Y277300D01*
X270150Y277300D01*
X263800Y283650D01*
X295550Y302700D02*
X308250Y302700D01*
X314600Y296350D01*
X314600Y283650D02*
X308250Y277300D01*
X314600Y296350D02*
X320950Y302700D01*
X333650Y302700D01*
X340000Y296350D01*
X340000Y283650D02*
X333650Y277300D01*
X320950Y277300D01*
X314600Y283650D01*
X295550Y302700D02*
X289200Y296350D01*
X289200Y283650D02*
X295550Y277300D01*
X308250Y277300D01*
X473350Y302700D02*
X486050Y302700D01*
X492400Y296350D01*
X492400Y283650D02*
X486050Y277300D01*
X492400Y296350D02*
X498750Y302700D01*
X511450Y302700D01*
X517800Y296350D01*
X517800Y283650D02*
X511450Y277300D01*
X498750Y277300D01*
X492400Y283650D01*
X473350Y302700D02*
X467000Y296350D01*
X467000Y283650D02*
X473350Y277300D01*
X486050Y277300D01*
X517800Y296350D02*
X524150Y302700D01*
X536850Y302700D01*
X543200Y296350D01*
X543200Y283650D02*
X536850Y277300D01*
X524150Y277300D01*
X517800Y283650D01*
X549550Y302700D02*
X562250Y302700D01*
X568600Y296350D01*
X568600Y283650D02*
X562250Y277300D01*
X568600Y296350D02*
X574950Y302700D01*
X587650Y302700D01*
X594000Y296350D01*
X594000Y283650D01*
X587650Y277300D01*
X574950Y277300D01*
X568600Y283650D01*
X549550Y302700D02*
X543200Y296350D01*
X543200Y283650D02*
X549550Y277300D01*
X562250Y277300D01*
D13*
X95264Y318585D02*
X91451Y314772D01*
X95264Y318585D02*
X95264Y307145D01*
X91451Y307145D02*
X99078Y307145D01*
X568707Y307145D02*
X576334Y307145D01*
X568707Y307145D02*
X576334Y314772D01*
X576334Y316678D01*
X574427Y318585D01*
X570614Y318585D01*
X568707Y316678D01*
X580401Y316678D02*
X580401Y309052D01*
X580401Y316678D02*
X582308Y318585D01*
X586121Y318585D01*
X588028Y316678D01*
X588028Y309052D01*
X586121Y307145D01*
X582308Y307145D01*
X580401Y309052D01*
X588028Y316678D01*
X317250Y318585D02*
X313437Y314772D01*
X317250Y318585D02*
X317250Y307145D01*
X313437Y307145D02*
X321064Y307145D01*
X325131Y309052D02*
X325131Y316678D01*
X327038Y318585D01*
X330851Y318585D01*
X332758Y316678D01*
X332758Y309052D01*
X330851Y307145D01*
X327038Y307145D01*
X325131Y309052D01*
X332758Y316678D01*
X116330Y270958D02*
X114423Y272865D01*
X110610Y272865D01*
X108703Y270958D01*
X108703Y269052D01*
X110610Y267145D01*
X114423Y267145D01*
X116330Y265238D01*
X116330Y263332D01*
X114423Y261425D01*
X110610Y261425D01*
X108703Y263332D01*
X120397Y265238D02*
X120397Y272865D01*
X120397Y265238D02*
X124210Y261425D01*
X128024Y265238D01*
X128024Y272865D01*
X132091Y269052D02*
X135904Y272865D01*
X135904Y261425D01*
X132091Y261425D02*
X139717Y261425D01*
D12*
X107550Y122700D02*
X94850Y122700D01*
X107550Y122700D02*
X113900Y116350D01*
X113900Y103650D02*
X107550Y97300D01*
X113900Y116350D02*
X120250Y122700D01*
X132950Y122700D01*
X139300Y116350D01*
X139300Y103650D02*
X132950Y97300D01*
X120250Y97300D01*
X113900Y103650D01*
X88500Y103650D02*
X88500Y116350D01*
X94850Y122700D01*
X88500Y103650D02*
X94850Y97300D01*
X107550Y97300D01*
X139300Y116350D02*
X145650Y122700D01*
X158350Y122700D01*
X164700Y116350D01*
X164700Y103650D02*
X158350Y97300D01*
X145650Y97300D01*
X139300Y103650D01*
X171050Y122700D02*
X183750Y122700D01*
X190100Y116350D01*
X190100Y103650D02*
X183750Y97300D01*
X190100Y116350D02*
X196450Y122700D01*
X209150Y122700D01*
X215500Y116350D01*
X215500Y103650D02*
X209150Y97300D01*
X196450Y97300D01*
X190100Y103650D01*
X171050Y122700D02*
X164700Y116350D01*
X164700Y103650D02*
X171050Y97300D01*
X183750Y97300D01*
X348850Y122700D02*
X361550Y122700D01*
X367900Y116350D01*
X367900Y103650D02*
X361550Y97300D01*
X367900Y116350D02*
X374250Y122700D01*
X386950Y122700D01*
X393300Y116350D01*
X393300Y103650D02*
X386950Y97300D01*
X374250Y97300D01*
X367900Y103650D01*
X348850Y122700D02*
X342500Y116350D01*
X342500Y103650D02*
X348850Y97300D01*
X361550Y97300D01*
X393300Y116350D02*
X399650Y122700D01*
X412350Y122700D01*
X418700Y116350D01*
X418700Y103650D02*
X412350Y97300D01*
X399650Y97300D01*
X393300Y103650D01*
X425050Y122700D02*
X437750Y122700D01*
X444100Y116350D01*
X444100Y103650D02*
X437750Y97300D01*
X444100Y116350D02*
X450450Y122700D01*
X463150Y122700D01*
X469500Y116350D01*
X469500Y103650D02*
X463150Y97300D01*
X450450Y97300D01*
X444100Y103650D01*
X425050Y122700D02*
X418700Y116350D01*
X418700Y103650D02*
X425050Y97300D01*
X437750Y97300D01*
X234550Y122700D02*
X221850Y122700D01*
X234550Y122700D02*
X240900Y116350D01*
X240900Y103650D02*
X234550Y97300D01*
X240900Y116350D02*
X247250Y122700D01*
X259950Y122700D01*
X266300Y116350D01*
X266300Y103650D02*
X259950Y97300D01*
X247250Y97300D01*
X240900Y103650D01*
X221850Y122700D02*
X215500Y116350D01*
X215500Y103650D02*
X221850Y97300D01*
X234550Y97300D01*
X266300Y116350D02*
X272650Y122700D01*
X285350Y122700D01*
X291700Y116350D01*
X291700Y103650D02*
X285350Y97300D01*
X272650Y97300D01*
X266300Y103650D01*
X298050Y122700D02*
X310750Y122700D01*
X317100Y116350D01*
X317100Y103650D02*
X310750Y97300D01*
X317100Y116350D02*
X323450Y122700D01*
X336150Y122700D01*
X342500Y116350D01*
X342500Y103650D02*
X336150Y97300D01*
X323450Y97300D01*
X317100Y103650D01*
X298050Y122700D02*
X291700Y116350D01*
X291700Y103650D02*
X298050Y97300D01*
X310750Y97300D01*
X475850Y122700D02*
X488550Y122700D01*
X494900Y116350D01*
X494900Y103650D02*
X488550Y97300D01*
X494900Y116350D02*
X501250Y122700D01*
X513950Y122700D01*
X520300Y116350D01*
X520300Y103650D02*
X513950Y97300D01*
X501250Y97300D01*
X494900Y103650D01*
X475850Y122700D02*
X469500Y116350D01*
X469500Y103650D02*
X475850Y97300D01*
X488550Y97300D01*
X520300Y116350D02*
X526650Y122700D01*
X539350Y122700D01*
X545700Y116350D01*
X545700Y103650D02*
X539350Y97300D01*
X526650Y97300D01*
X520300Y103650D01*
X552050Y122700D02*
X564750Y122700D01*
X571100Y116350D01*
X571100Y103650D02*
X564750Y97300D01*
X571100Y116350D02*
X577450Y122700D01*
X590150Y122700D01*
X596500Y116350D01*
X596500Y103650D01*
X590150Y97300D01*
X577450Y97300D01*
X571100Y103650D01*
X552050Y122700D02*
X545700Y116350D01*
X545700Y103650D02*
X552050Y97300D01*
X564750Y97300D01*
D13*
X97764Y138585D02*
X93951Y134772D01*
X97764Y138585D02*
X97764Y127145D01*
X93951Y127145D02*
X101578Y127145D01*
X571207Y127145D02*
X578834Y127145D01*
X571207Y127145D02*
X578834Y134772D01*
X578834Y136678D01*
X576927Y138585D01*
X573114Y138585D01*
X571207Y136678D01*
X582901Y136678D02*
X582901Y129052D01*
X582901Y136678D02*
X584808Y138585D01*
X588621Y138585D01*
X590528Y136678D01*
X590528Y129052D01*
X588621Y127145D01*
X584808Y127145D01*
X582901Y129052D01*
X590528Y136678D01*
X319750Y138585D02*
X315937Y134772D01*
X319750Y138585D02*
X319750Y127145D01*
X315937Y127145D02*
X323564Y127145D01*
X327631Y129052D02*
X327631Y136678D01*
X329538Y138585D01*
X333351Y138585D01*
X335258Y136678D01*
X335258Y129052D01*
X333351Y127145D01*
X329538Y127145D01*
X327631Y129052D01*
X335258Y136678D01*
X118830Y90958D02*
X116923Y92865D01*
X113110Y92865D01*
X111203Y90958D01*
X111203Y89052D01*
X113110Y87145D01*
X116923Y87145D01*
X118830Y85238D01*
X118830Y83332D01*
X116923Y81425D01*
X113110Y81425D01*
X111203Y83332D01*
X122897Y85238D02*
X122897Y92865D01*
X122897Y85238D02*
X126710Y81425D01*
X130524Y85238D01*
X130524Y92865D01*
X134591Y81425D02*
X142217Y81425D01*
X134591Y81425D02*
X142217Y89052D01*
X142217Y90958D01*
X140311Y92865D01*
X136498Y92865D01*
X134591Y90958D01*
D12*
X597700Y74650D02*
X597700Y61950D01*
X591350Y55600D01*
X578650Y55600D02*
X572300Y61950D01*
X591350Y55600D02*
X597700Y49250D01*
X597700Y36550D01*
X591350Y30200D01*
X578650Y30200D02*
X572300Y36550D01*
X572300Y49250D01*
X578650Y55600D01*
X578650Y81000D02*
X591350Y81000D01*
X597700Y74650D01*
X578650Y81000D02*
X572300Y74650D01*
X572300Y61950D01*
X591350Y30200D02*
X597700Y23850D01*
X597700Y11150D01*
X591350Y4800D01*
X578650Y4800D02*
X572300Y11150D01*
X572300Y23850D01*
X578650Y30200D01*
X597700Y-1550D02*
X597700Y-14250D01*
X591350Y-20600D01*
X578650Y-20600D02*
X572300Y-14250D01*
X591350Y-20600D02*
X597700Y-26950D01*
X597700Y-39650D01*
X591350Y-46000D01*
X578650Y-46000D01*
X572300Y-39650D01*
X572300Y-26950D01*
X578650Y-20600D01*
X597700Y-1550D02*
X591350Y4800D01*
X578650Y4800D02*
X572300Y-1550D01*
X572300Y-14250D01*
D13*
X560229Y63591D02*
X556415Y67404D01*
X567855Y67404D01*
X567855Y63591D02*
X567855Y71218D01*
X602135Y-30382D02*
X602135Y-38009D01*
X607855Y-38009D01*
X605949Y-34196D01*
X605949Y-32289D01*
X607855Y-30382D01*
X611668Y-30382D01*
X613575Y-32289D01*
X613575Y-36102D01*
X611668Y-38009D01*
X613575Y46553D02*
X602135Y46553D01*
X602135Y52273D01*
X604042Y54180D01*
X607855Y54180D01*
X609762Y52273D01*
X609762Y46553D01*
X609762Y50366D02*
X613575Y54180D01*
X613575Y62060D02*
X602135Y62060D01*
X602135Y58247D02*
X602135Y65874D01*
X602135Y75661D02*
X604042Y77567D01*
X602135Y75661D02*
X602135Y71848D01*
X604042Y69941D01*
X611668Y69941D01*
X613575Y71848D01*
X613575Y75661D01*
X611668Y77567D01*
D12*
X525750Y347700D02*
X513050Y347700D01*
X525750Y347700D02*
X532100Y341350D01*
X532100Y328650D02*
X525750Y322300D01*
X532100Y341350D02*
X538450Y347700D01*
X551150Y347700D01*
X557500Y341350D01*
X557500Y328650D02*
X551150Y322300D01*
X538450Y322300D01*
X532100Y328650D01*
X506700Y328650D02*
X506700Y341350D01*
X513050Y347700D01*
X506700Y328650D02*
X513050Y322300D01*
X525750Y322300D01*
X557500Y341350D02*
X563850Y347700D01*
X576550Y347700D01*
X582900Y341350D01*
X582900Y328650D02*
X576550Y322300D01*
X563850Y322300D01*
X557500Y328650D01*
X589250Y347700D02*
X601950Y347700D01*
X608300Y341350D01*
X608300Y328650D01*
X601950Y322300D01*
X582900Y341350D02*
X589250Y347700D01*
X582900Y328650D02*
X589250Y322300D01*
X601950Y322300D01*
D13*
X499718Y340725D02*
X495905Y336912D01*
X499718Y340725D02*
X499718Y329285D01*
X495905Y329285D02*
X503532Y329285D01*
X617195Y329285D02*
X617195Y340725D01*
X611475Y335005D01*
X619102Y335005D01*
X514962Y361678D02*
X513055Y363585D01*
X509242Y363585D01*
X507335Y361678D01*
X507335Y354052D01*
X509242Y352145D01*
X513055Y352145D01*
X514962Y354052D01*
X520936Y363585D02*
X524749Y363585D01*
X520936Y363585D02*
X519029Y361678D01*
X519029Y354052D01*
X520936Y352145D01*
X524749Y352145D01*
X526655Y354052D01*
X526655Y361678D01*
X524749Y363585D01*
X530723Y363585D02*
X530723Y352145D01*
X534536Y359772D02*
X530723Y363585D01*
X534536Y359772D02*
X538349Y363585D01*
X538349Y352145D01*
X542417Y350238D02*
X550043Y350238D01*
X554111Y352145D02*
X554111Y363585D01*
X561737Y363585D01*
X557924Y357865D02*
X554111Y357865D01*
X565805Y354052D02*
X565805Y363585D01*
X565805Y354052D02*
X567711Y352145D01*
X571525Y352145D01*
X573431Y354052D01*
X573431Y363585D01*
X577499Y363585D02*
X585125Y363585D01*
X577499Y363585D02*
X577499Y352145D01*
X585125Y352145D01*
X581312Y357865D02*
X577499Y357865D01*
X589193Y352145D02*
X589193Y363585D01*
X596819Y352145D01*
X596819Y363585D01*
X604700Y363585D02*
X604700Y352145D01*
X600887Y363585D02*
X608513Y363585D01*
X612581Y363585D02*
X620207Y363585D01*
X612581Y363585D02*
X612581Y352145D01*
X620207Y352145D01*
X616394Y357865D02*
X612581Y357865D01*
D14*
X10000Y-50000D02*
X630000Y-50000D01*
X630000Y380000D01*
X10000Y380000D01*
X10000Y-50000D01*
M02*
