G04 EAGLE Gerber RS-274X export*
G75*
%MOMM*%
%FSLAX34Y34*%
%LPD*%
%INBottom Copper*%
%IPPOS*%
%AMOC8*
5,1,8,0,0,1.08239X$1,22.5*%
G01*
%ADD10C,1.524000*%
%ADD11R,0.660400X2.032000*%
%ADD12C,0.800000*%
%ADD13C,0.500000*%
%ADD14C,0.914400*%

G36*
X569990Y-45989D02*
X569990Y-45989D01*
X570099Y-45990D01*
X570212Y-45970D01*
X570326Y-45959D01*
X570431Y-45930D01*
X570539Y-45911D01*
X570646Y-45871D01*
X570756Y-45841D01*
X570855Y-45793D01*
X570958Y-45755D01*
X571056Y-45697D01*
X571159Y-45648D01*
X571248Y-45583D01*
X571342Y-45528D01*
X571428Y-45453D01*
X571521Y-45386D01*
X571597Y-45307D01*
X571680Y-45235D01*
X571751Y-45146D01*
X571830Y-45064D01*
X571891Y-44972D01*
X571960Y-44887D01*
X572014Y-44787D01*
X572078Y-44692D01*
X572121Y-44591D01*
X572173Y-44495D01*
X572209Y-44386D01*
X572255Y-44281D01*
X572279Y-44175D01*
X572314Y-44071D01*
X572330Y-43958D01*
X572356Y-43846D01*
X572361Y-43737D01*
X572377Y-43629D01*
X572372Y-43514D01*
X572378Y-43400D01*
X572364Y-43292D01*
X572360Y-43182D01*
X572335Y-43071D01*
X572320Y-42957D01*
X572287Y-42853D01*
X572263Y-42746D01*
X572219Y-42640D01*
X572185Y-42532D01*
X572133Y-42435D01*
X572091Y-42334D01*
X572029Y-42238D01*
X571976Y-42137D01*
X571908Y-42051D01*
X571848Y-41959D01*
X571770Y-41876D01*
X571699Y-41786D01*
X571617Y-41713D01*
X571542Y-41633D01*
X571379Y-41502D01*
X571365Y-41489D01*
X571359Y-41486D01*
X571350Y-41478D01*
X570761Y-41050D01*
X569630Y-39919D01*
X568690Y-38625D01*
X567964Y-37200D01*
X567521Y-35839D01*
X584960Y-35839D01*
X584988Y-35837D01*
X585040Y-35839D01*
X602479Y-35839D01*
X602036Y-37200D01*
X601310Y-38625D01*
X600370Y-39919D01*
X599239Y-41050D01*
X598650Y-41478D01*
X598568Y-41550D01*
X598479Y-41614D01*
X598400Y-41697D01*
X598314Y-41772D01*
X598245Y-41857D01*
X598170Y-41936D01*
X598106Y-42032D01*
X598035Y-42121D01*
X597983Y-42217D01*
X597922Y-42308D01*
X597877Y-42413D01*
X597823Y-42514D01*
X597789Y-42618D01*
X597745Y-42719D01*
X597719Y-42830D01*
X597684Y-42939D01*
X597669Y-43047D01*
X597644Y-43154D01*
X597639Y-43268D01*
X597623Y-43381D01*
X597627Y-43490D01*
X597622Y-43600D01*
X597637Y-43713D01*
X597642Y-43827D01*
X597666Y-43934D01*
X597680Y-44043D01*
X597714Y-44152D01*
X597739Y-44263D01*
X597782Y-44364D01*
X597815Y-44468D01*
X597869Y-44569D01*
X597913Y-44675D01*
X597973Y-44766D01*
X598024Y-44863D01*
X598095Y-44953D01*
X598158Y-45049D01*
X598233Y-45128D01*
X598301Y-45214D01*
X598386Y-45290D01*
X598465Y-45373D01*
X598553Y-45438D01*
X598635Y-45511D01*
X598733Y-45570D01*
X598825Y-45638D01*
X598923Y-45686D01*
X599016Y-45743D01*
X599123Y-45784D01*
X599226Y-45834D01*
X599331Y-45864D01*
X599433Y-45903D01*
X599546Y-45925D01*
X599656Y-45956D01*
X599765Y-45966D01*
X599872Y-45987D01*
X600082Y-45997D01*
X600100Y-45999D01*
X600107Y-45999D01*
X600119Y-45999D01*
X623500Y-45999D01*
X623550Y-45995D01*
X623600Y-45997D01*
X623772Y-45975D01*
X623945Y-45959D01*
X623993Y-45946D01*
X624043Y-45940D01*
X624208Y-45887D01*
X624376Y-45841D01*
X624421Y-45819D01*
X624468Y-45804D01*
X624622Y-45723D01*
X624778Y-45648D01*
X624819Y-45618D01*
X624863Y-45595D01*
X625000Y-45488D01*
X625140Y-45386D01*
X625175Y-45350D01*
X625214Y-45319D01*
X625330Y-45189D01*
X625450Y-45064D01*
X625477Y-45022D01*
X625511Y-44984D01*
X625601Y-44836D01*
X625697Y-44692D01*
X625717Y-44646D01*
X625743Y-44603D01*
X625805Y-44441D01*
X625874Y-44281D01*
X625885Y-44233D01*
X625903Y-44186D01*
X625936Y-44015D01*
X625975Y-43846D01*
X625978Y-43796D01*
X625987Y-43747D01*
X625999Y-43500D01*
X625999Y251936D01*
X625987Y252072D01*
X625984Y252209D01*
X625967Y252294D01*
X625959Y252381D01*
X625923Y252513D01*
X625896Y252647D01*
X625864Y252728D01*
X625841Y252812D01*
X625782Y252935D01*
X625731Y253062D01*
X625685Y253136D01*
X625648Y253214D01*
X625567Y253325D01*
X625495Y253441D01*
X625437Y253506D01*
X625386Y253576D01*
X625287Y253671D01*
X625195Y253772D01*
X625126Y253826D01*
X625064Y253886D01*
X624950Y253961D01*
X624841Y254045D01*
X624764Y254085D01*
X624692Y254133D01*
X624566Y254187D01*
X624444Y254250D01*
X624361Y254275D01*
X624281Y254310D01*
X624148Y254341D01*
X624017Y254381D01*
X623931Y254391D01*
X623846Y254411D01*
X623710Y254418D01*
X623574Y254434D01*
X623487Y254429D01*
X623400Y254433D01*
X623265Y254416D01*
X623128Y254407D01*
X623043Y254387D01*
X622957Y254376D01*
X622827Y254334D01*
X622694Y254302D01*
X622615Y254266D01*
X622532Y254240D01*
X622411Y254176D01*
X622286Y254120D01*
X622214Y254072D01*
X622137Y254031D01*
X622029Y253946D01*
X621916Y253869D01*
X621815Y253777D01*
X621786Y253755D01*
X621770Y253737D01*
X621733Y253703D01*
X601173Y233143D01*
X601074Y233025D01*
X601032Y232981D01*
X601018Y232961D01*
X600929Y232860D01*
X600910Y232829D01*
X600886Y232800D01*
X600794Y232638D01*
X600697Y232479D01*
X600684Y232444D01*
X600666Y232412D01*
X600604Y232236D01*
X600537Y232062D01*
X600530Y232026D01*
X600517Y231991D01*
X600488Y231806D01*
X600453Y231623D01*
X600450Y231573D01*
X600447Y231550D01*
X600448Y231513D01*
X600441Y231376D01*
X600441Y221962D01*
X599829Y220485D01*
X599786Y220349D01*
X599735Y220215D01*
X599720Y220136D01*
X599696Y220059D01*
X599678Y219917D01*
X599651Y219776D01*
X599645Y219653D01*
X599640Y219616D01*
X599642Y219589D01*
X599639Y219529D01*
X599639Y209941D01*
X598407Y206968D01*
X592082Y200643D01*
X589109Y199411D01*
X505891Y199411D01*
X502918Y200643D01*
X494293Y209268D01*
X493061Y212241D01*
X493061Y214986D01*
X493057Y215036D01*
X493059Y215086D01*
X493037Y215258D01*
X493021Y215431D01*
X493008Y215479D01*
X493002Y215529D01*
X492949Y215694D01*
X492903Y215862D01*
X492881Y215907D01*
X492866Y215954D01*
X492785Y216108D01*
X492710Y216264D01*
X492680Y216305D01*
X492657Y216349D01*
X492550Y216486D01*
X492448Y216626D01*
X492412Y216661D01*
X492381Y216700D01*
X492251Y216816D01*
X492126Y216936D01*
X492084Y216963D01*
X492046Y216997D01*
X491898Y217087D01*
X491754Y217183D01*
X491708Y217203D01*
X491665Y217229D01*
X491503Y217291D01*
X491343Y217360D01*
X491295Y217371D01*
X491248Y217389D01*
X491077Y217422D01*
X490908Y217461D01*
X490858Y217464D01*
X490809Y217473D01*
X490562Y217485D01*
X484036Y217485D01*
X481982Y218336D01*
X480410Y219908D01*
X479559Y221962D01*
X479559Y231656D01*
X479547Y231793D01*
X479544Y231929D01*
X479527Y232014D01*
X479519Y232101D01*
X479483Y232233D01*
X479456Y232367D01*
X479424Y232448D01*
X479401Y232532D01*
X479342Y232655D01*
X479291Y232782D01*
X479245Y232856D01*
X479208Y232934D01*
X479127Y233045D01*
X479055Y233161D01*
X478997Y233226D01*
X478946Y233296D01*
X478847Y233391D01*
X478755Y233493D01*
X478686Y233546D01*
X478624Y233606D01*
X478510Y233682D01*
X478401Y233765D01*
X478324Y233805D01*
X478252Y233853D01*
X478126Y233907D01*
X478004Y233970D01*
X477921Y233996D01*
X477841Y234030D01*
X477708Y234061D01*
X477577Y234101D01*
X477491Y234112D01*
X477406Y234131D01*
X477270Y234138D01*
X477134Y234154D01*
X477047Y234149D01*
X476960Y234153D01*
X476825Y234136D01*
X476688Y234128D01*
X476603Y234107D01*
X476517Y234096D01*
X476387Y234054D01*
X476254Y234022D01*
X476174Y233987D01*
X476092Y233960D01*
X475971Y233896D01*
X475846Y233841D01*
X475774Y233792D01*
X475697Y233751D01*
X475589Y233666D01*
X475476Y233589D01*
X475375Y233498D01*
X475346Y233475D01*
X475330Y233457D01*
X475293Y233423D01*
X475060Y233191D01*
X471326Y231644D01*
X467284Y231644D01*
X463549Y233191D01*
X460691Y236049D01*
X460625Y236176D01*
X460567Y236306D01*
X460521Y236373D01*
X460484Y236444D01*
X460396Y236557D01*
X460316Y236676D01*
X460233Y236767D01*
X460210Y236797D01*
X460190Y236815D01*
X460149Y236859D01*
X448680Y248329D01*
X448542Y248444D01*
X448408Y248565D01*
X448370Y248587D01*
X448337Y248615D01*
X448180Y248704D01*
X448027Y248799D01*
X447987Y248815D01*
X447949Y248836D01*
X447779Y248896D01*
X447611Y248961D01*
X447568Y248970D01*
X447527Y248984D01*
X447349Y249013D01*
X447173Y249047D01*
X447129Y249048D01*
X447086Y249055D01*
X446906Y249051D01*
X446726Y249054D01*
X446683Y249047D01*
X446640Y249046D01*
X446463Y249010D01*
X446285Y248981D01*
X446244Y248966D01*
X446202Y248958D01*
X446035Y248891D01*
X445865Y248831D01*
X445827Y248809D01*
X445787Y248793D01*
X445633Y248698D01*
X445478Y248608D01*
X445444Y248580D01*
X445407Y248557D01*
X445274Y248436D01*
X445136Y248320D01*
X445108Y248286D01*
X445076Y248257D01*
X444966Y248114D01*
X444852Y247975D01*
X444830Y247937D01*
X444804Y247903D01*
X444721Y247743D01*
X444633Y247586D01*
X444619Y247545D01*
X444599Y247506D01*
X444546Y247334D01*
X444487Y247164D01*
X444480Y247121D01*
X444468Y247079D01*
X444446Y246901D01*
X444419Y246722D01*
X444420Y246679D01*
X444414Y246636D01*
X444425Y246456D01*
X444430Y246276D01*
X444439Y246233D01*
X444441Y246190D01*
X444484Y246015D01*
X444520Y245838D01*
X444541Y245782D01*
X444547Y245756D01*
X444562Y245722D01*
X444604Y245605D01*
X446409Y241247D01*
X446409Y230266D01*
X446425Y230080D01*
X446437Y229894D01*
X446445Y229858D01*
X446449Y229821D01*
X446498Y229640D01*
X446542Y229460D01*
X446557Y229426D01*
X446567Y229390D01*
X446648Y229222D01*
X446724Y229051D01*
X446744Y229021D01*
X446760Y228987D01*
X446870Y228836D01*
X446975Y228682D01*
X447009Y228644D01*
X447022Y228625D01*
X447049Y228600D01*
X447141Y228498D01*
X448444Y227195D01*
X448555Y227103D01*
X448658Y227004D01*
X448725Y226960D01*
X448787Y226908D01*
X448912Y226838D01*
X449032Y226759D01*
X449143Y226706D01*
X449176Y226688D01*
X449201Y226679D01*
X449255Y226653D01*
X449708Y226465D01*
X452335Y223838D01*
X458558Y217615D01*
X461185Y214988D01*
X462417Y212015D01*
X462417Y144999D01*
X461185Y142026D01*
X454254Y135095D01*
X454167Y134990D01*
X454072Y134892D01*
X454024Y134819D01*
X453968Y134752D01*
X453900Y134634D01*
X453825Y134520D01*
X453790Y134440D01*
X453747Y134364D01*
X453702Y134235D01*
X453648Y134109D01*
X453628Y134025D01*
X453599Y133943D01*
X453577Y133807D01*
X453546Y133674D01*
X453542Y133588D01*
X453528Y133502D01*
X453531Y133365D01*
X453524Y133228D01*
X453536Y133142D01*
X453537Y133055D01*
X453564Y132921D01*
X453582Y132785D01*
X453608Y132702D01*
X453626Y132617D01*
X453676Y132490D01*
X453718Y132360D01*
X453758Y132283D01*
X453790Y132202D01*
X453863Y132086D01*
X453927Y131965D01*
X453981Y131897D01*
X454027Y131823D01*
X454118Y131721D01*
X454203Y131614D01*
X454268Y131556D01*
X454326Y131492D01*
X454435Y131408D01*
X454537Y131317D01*
X454611Y131272D01*
X454680Y131219D01*
X454802Y131156D01*
X454919Y131085D01*
X455000Y131054D01*
X455077Y131014D01*
X455208Y130974D01*
X455336Y130925D01*
X455421Y130908D01*
X455504Y130883D01*
X455640Y130867D01*
X455774Y130841D01*
X455911Y130834D01*
X455948Y130830D01*
X455971Y130831D01*
X456022Y130829D01*
X459427Y130829D01*
X464282Y128818D01*
X467733Y125367D01*
X467771Y125335D01*
X467805Y125298D01*
X467942Y125192D01*
X468076Y125081D01*
X468119Y125056D01*
X468159Y125026D01*
X468313Y124946D01*
X468464Y124860D01*
X468511Y124843D01*
X468556Y124820D01*
X468721Y124770D01*
X468885Y124712D01*
X468935Y124704D01*
X468983Y124689D01*
X469155Y124669D01*
X469326Y124641D01*
X469376Y124642D01*
X469426Y124636D01*
X469600Y124647D01*
X469773Y124650D01*
X469822Y124660D01*
X469872Y124663D01*
X470041Y124704D01*
X470211Y124738D01*
X470257Y124757D01*
X470306Y124769D01*
X470465Y124839D01*
X470626Y124903D01*
X470669Y124930D01*
X470714Y124950D01*
X470858Y125047D01*
X471005Y125139D01*
X471042Y125173D01*
X471084Y125201D01*
X471267Y125367D01*
X473379Y127479D01*
X473499Y127622D01*
X473623Y127762D01*
X473642Y127794D01*
X473666Y127822D01*
X473758Y127984D01*
X473855Y128144D01*
X473868Y128178D01*
X473886Y128210D01*
X473948Y128387D01*
X474015Y128560D01*
X474022Y128597D01*
X474035Y128632D01*
X474064Y128816D01*
X474099Y128999D01*
X474102Y129050D01*
X474105Y129073D01*
X474104Y129110D01*
X474111Y129246D01*
X474111Y152125D01*
X475343Y155098D01*
X478827Y158582D01*
X478947Y158726D01*
X479071Y158865D01*
X479090Y158897D01*
X479114Y158925D01*
X479206Y159087D01*
X479303Y159247D01*
X479316Y159281D01*
X479334Y159314D01*
X479396Y159490D01*
X479463Y159664D01*
X479470Y159700D01*
X479483Y159735D01*
X479512Y159919D01*
X479547Y160102D01*
X479550Y160153D01*
X479553Y160176D01*
X479552Y160213D01*
X479559Y160350D01*
X479559Y183038D01*
X480410Y185092D01*
X481982Y186664D01*
X484036Y187515D01*
X492864Y187515D01*
X494918Y186664D01*
X496383Y185199D01*
X496526Y185079D01*
X496666Y184955D01*
X496697Y184936D01*
X496726Y184912D01*
X496888Y184820D01*
X497047Y184723D01*
X497082Y184710D01*
X497114Y184692D01*
X497290Y184630D01*
X497464Y184563D01*
X497501Y184556D01*
X497535Y184543D01*
X497720Y184514D01*
X497903Y184479D01*
X497953Y184476D01*
X497977Y184473D01*
X498014Y184474D01*
X498150Y184467D01*
X498651Y184467D01*
X498651Y171766D01*
X498651Y159031D01*
X498593Y159025D01*
X498545Y159012D01*
X498495Y159006D01*
X498330Y158953D01*
X498162Y158907D01*
X498117Y158885D01*
X498070Y158870D01*
X497916Y158789D01*
X497760Y158714D01*
X497719Y158684D01*
X497675Y158661D01*
X497538Y158554D01*
X497398Y158452D01*
X497363Y158416D01*
X497324Y158385D01*
X497208Y158255D01*
X497088Y158130D01*
X497061Y158088D01*
X497027Y158050D01*
X496937Y157902D01*
X496841Y157758D01*
X496821Y157712D01*
X496795Y157669D01*
X496733Y157507D01*
X496664Y157347D01*
X496653Y157299D01*
X496635Y157252D01*
X496602Y157081D01*
X496563Y156912D01*
X496560Y156862D01*
X496551Y156813D01*
X496539Y156566D01*
X496539Y155157D01*
X495307Y152184D01*
X491021Y147898D01*
X490901Y147754D01*
X490777Y147615D01*
X490758Y147583D01*
X490734Y147555D01*
X490642Y147393D01*
X490545Y147233D01*
X490532Y147199D01*
X490514Y147166D01*
X490452Y146990D01*
X490385Y146816D01*
X490378Y146780D01*
X490365Y146745D01*
X490336Y146561D01*
X490301Y146378D01*
X490298Y146327D01*
X490295Y146304D01*
X490296Y146267D01*
X490289Y146130D01*
X490289Y129246D01*
X490305Y129060D01*
X490317Y128874D01*
X490325Y128838D01*
X490329Y128802D01*
X490378Y128621D01*
X490422Y128440D01*
X490437Y128407D01*
X490447Y128371D01*
X490528Y128202D01*
X490604Y128032D01*
X490624Y128001D01*
X490640Y127968D01*
X490750Y127817D01*
X490855Y127663D01*
X490889Y127625D01*
X490902Y127606D01*
X490929Y127581D01*
X491021Y127479D01*
X493133Y125367D01*
X493171Y125335D01*
X493205Y125298D01*
X493342Y125192D01*
X493476Y125081D01*
X493519Y125056D01*
X493559Y125026D01*
X493713Y124946D01*
X493864Y124860D01*
X493911Y124843D01*
X493956Y124820D01*
X494121Y124770D01*
X494285Y124712D01*
X494335Y124704D01*
X494383Y124689D01*
X494555Y124669D01*
X494726Y124641D01*
X494776Y124642D01*
X494826Y124636D01*
X495000Y124647D01*
X495173Y124650D01*
X495222Y124660D01*
X495272Y124663D01*
X495441Y124704D01*
X495611Y124738D01*
X495657Y124757D01*
X495706Y124769D01*
X495865Y124839D01*
X496026Y124903D01*
X496069Y124930D01*
X496114Y124950D01*
X496258Y125048D01*
X496405Y125139D01*
X496442Y125173D01*
X496484Y125201D01*
X496667Y125367D01*
X500118Y128818D01*
X504218Y130516D01*
X504224Y130519D01*
X504230Y130521D01*
X504422Y130623D01*
X504614Y130723D01*
X504619Y130727D01*
X504625Y130731D01*
X504795Y130864D01*
X504967Y130998D01*
X504971Y131003D01*
X504976Y131007D01*
X505120Y131169D01*
X505265Y131330D01*
X505268Y131336D01*
X505273Y131341D01*
X505385Y131525D01*
X505499Y131711D01*
X505501Y131717D01*
X505505Y131722D01*
X505581Y131920D01*
X505662Y132127D01*
X505663Y132133D01*
X505665Y132139D01*
X505706Y132354D01*
X505748Y132565D01*
X505748Y132572D01*
X505749Y132578D01*
X505761Y132825D01*
X505761Y156566D01*
X505757Y156616D01*
X505759Y156666D01*
X505737Y156838D01*
X505721Y157011D01*
X505708Y157059D01*
X505702Y157109D01*
X505649Y157274D01*
X505603Y157442D01*
X505581Y157487D01*
X505566Y157534D01*
X505485Y157688D01*
X505410Y157844D01*
X505380Y157885D01*
X505357Y157929D01*
X505250Y158066D01*
X505148Y158206D01*
X505112Y158241D01*
X505081Y158280D01*
X504951Y158396D01*
X504826Y158516D01*
X504784Y158543D01*
X504746Y158577D01*
X504598Y158667D01*
X504454Y158763D01*
X504408Y158783D01*
X504365Y158809D01*
X504203Y158871D01*
X504043Y158940D01*
X503995Y158951D01*
X503948Y158969D01*
X503777Y159002D01*
X503649Y159032D01*
X503649Y171766D01*
X503649Y184467D01*
X504150Y184467D01*
X504336Y184483D01*
X504522Y184495D01*
X504558Y184503D01*
X504595Y184507D01*
X504775Y184556D01*
X504956Y184600D01*
X504990Y184615D01*
X505025Y184625D01*
X505194Y184706D01*
X505364Y184782D01*
X505395Y184802D01*
X505428Y184818D01*
X505579Y184928D01*
X505734Y185033D01*
X505771Y185067D01*
X505790Y185080D01*
X505816Y185107D01*
X505917Y185199D01*
X507382Y186664D01*
X509436Y187515D01*
X518264Y187515D01*
X520318Y186664D01*
X521783Y185199D01*
X521926Y185079D01*
X522066Y184955D01*
X522097Y184936D01*
X522126Y184912D01*
X522288Y184820D01*
X522447Y184723D01*
X522482Y184710D01*
X522514Y184692D01*
X522690Y184630D01*
X522864Y184563D01*
X522901Y184556D01*
X522936Y184543D01*
X523120Y184514D01*
X523303Y184479D01*
X523353Y184476D01*
X523377Y184473D01*
X523414Y184474D01*
X523550Y184467D01*
X524051Y184467D01*
X524051Y171766D01*
X524051Y159031D01*
X523993Y159025D01*
X523945Y159012D01*
X523895Y159006D01*
X523730Y158953D01*
X523562Y158907D01*
X523517Y158885D01*
X523470Y158870D01*
X523316Y158789D01*
X523160Y158714D01*
X523119Y158684D01*
X523075Y158661D01*
X522938Y158554D01*
X522798Y158452D01*
X522763Y158416D01*
X522724Y158385D01*
X522608Y158255D01*
X522488Y158130D01*
X522461Y158088D01*
X522427Y158050D01*
X522337Y157902D01*
X522241Y157758D01*
X522221Y157712D01*
X522195Y157669D01*
X522133Y157507D01*
X522064Y157347D01*
X522053Y157299D01*
X522035Y157252D01*
X522002Y157081D01*
X521963Y156912D01*
X521960Y156862D01*
X521951Y156813D01*
X521939Y156566D01*
X521939Y126962D01*
X521951Y126825D01*
X521954Y126689D01*
X521971Y126604D01*
X521979Y126517D01*
X522015Y126385D01*
X522042Y126251D01*
X522074Y126170D01*
X522097Y126086D01*
X522156Y125963D01*
X522207Y125836D01*
X522253Y125762D01*
X522290Y125684D01*
X522371Y125573D01*
X522443Y125456D01*
X522501Y125392D01*
X522552Y125322D01*
X522651Y125227D01*
X522743Y125125D01*
X522812Y125072D01*
X522874Y125012D01*
X522988Y124937D01*
X523097Y124853D01*
X523174Y124813D01*
X523246Y124765D01*
X523372Y124711D01*
X523494Y124648D01*
X523577Y124622D01*
X523657Y124588D01*
X523790Y124557D01*
X523921Y124517D01*
X524007Y124506D01*
X524092Y124487D01*
X524228Y124480D01*
X524364Y124464D01*
X524451Y124469D01*
X524538Y124465D01*
X524674Y124482D01*
X524810Y124490D01*
X524895Y124511D01*
X524981Y124522D01*
X525111Y124564D01*
X525244Y124596D01*
X525324Y124631D01*
X525406Y124658D01*
X525527Y124722D01*
X525652Y124777D01*
X525724Y124826D01*
X525801Y124867D01*
X525909Y124952D01*
X526022Y125029D01*
X526123Y125120D01*
X526152Y125143D01*
X526168Y125161D01*
X526205Y125195D01*
X526381Y125370D01*
X527675Y126310D01*
X529100Y127036D01*
X530461Y127479D01*
X530461Y110040D01*
X530463Y110012D01*
X530461Y109960D01*
X530461Y92521D01*
X529100Y92964D01*
X527675Y93690D01*
X526381Y94630D01*
X525250Y95761D01*
X524310Y97055D01*
X524223Y97224D01*
X524203Y97257D01*
X524187Y97292D01*
X524084Y97446D01*
X523986Y97602D01*
X523960Y97631D01*
X523938Y97663D01*
X523809Y97796D01*
X523685Y97932D01*
X523654Y97956D01*
X523627Y97984D01*
X523477Y98091D01*
X523330Y98203D01*
X523295Y98221D01*
X523264Y98244D01*
X523097Y98323D01*
X522932Y98407D01*
X522895Y98418D01*
X522860Y98435D01*
X522681Y98483D01*
X522505Y98537D01*
X522466Y98541D01*
X522429Y98551D01*
X522244Y98567D01*
X522061Y98588D01*
X522022Y98585D01*
X521984Y98589D01*
X521799Y98571D01*
X521615Y98559D01*
X521577Y98550D01*
X521539Y98546D01*
X521361Y98497D01*
X521182Y98452D01*
X521146Y98436D01*
X521109Y98426D01*
X520943Y98345D01*
X520774Y98269D01*
X520742Y98247D01*
X520707Y98230D01*
X520558Y98121D01*
X520405Y98017D01*
X520378Y97990D01*
X520347Y97967D01*
X520219Y97832D01*
X520088Y97703D01*
X520066Y97671D01*
X520039Y97643D01*
X519937Y97488D01*
X519831Y97337D01*
X519815Y97302D01*
X519793Y97270D01*
X519688Y97046D01*
X518798Y94898D01*
X515082Y91182D01*
X510227Y89171D01*
X504973Y89171D01*
X500118Y91182D01*
X496667Y94633D01*
X496629Y94665D01*
X496595Y94702D01*
X496458Y94808D01*
X496324Y94919D01*
X496281Y94944D01*
X496241Y94974D01*
X496087Y95054D01*
X495936Y95140D01*
X495889Y95157D01*
X495844Y95180D01*
X495679Y95230D01*
X495515Y95288D01*
X495465Y95296D01*
X495417Y95311D01*
X495245Y95331D01*
X495074Y95359D01*
X495023Y95358D01*
X494974Y95364D01*
X494800Y95353D01*
X494627Y95350D01*
X494578Y95340D01*
X494528Y95337D01*
X494359Y95296D01*
X494189Y95262D01*
X494143Y95243D01*
X494094Y95231D01*
X493935Y95161D01*
X493774Y95097D01*
X493731Y95070D01*
X493686Y95050D01*
X493542Y94952D01*
X493395Y94861D01*
X493358Y94827D01*
X493316Y94799D01*
X493133Y94633D01*
X489682Y91182D01*
X484827Y89171D01*
X479573Y89171D01*
X474718Y91182D01*
X471267Y94633D01*
X471229Y94665D01*
X471195Y94702D01*
X471058Y94808D01*
X470924Y94919D01*
X470881Y94944D01*
X470841Y94974D01*
X470687Y95054D01*
X470536Y95140D01*
X470489Y95157D01*
X470444Y95180D01*
X470279Y95230D01*
X470115Y95288D01*
X470065Y95296D01*
X470017Y95311D01*
X469845Y95331D01*
X469674Y95359D01*
X469623Y95358D01*
X469574Y95364D01*
X469400Y95353D01*
X469227Y95350D01*
X469178Y95340D01*
X469128Y95337D01*
X468959Y95296D01*
X468789Y95262D01*
X468743Y95243D01*
X468694Y95231D01*
X468535Y95161D01*
X468374Y95097D01*
X468331Y95070D01*
X468286Y95050D01*
X468142Y94952D01*
X467995Y94861D01*
X467958Y94827D01*
X467916Y94799D01*
X467733Y94633D01*
X464282Y91182D01*
X459427Y89171D01*
X454173Y89171D01*
X449318Y91182D01*
X445867Y94633D01*
X445829Y94665D01*
X445795Y94702D01*
X445658Y94808D01*
X445524Y94919D01*
X445481Y94944D01*
X445441Y94974D01*
X445287Y95054D01*
X445136Y95140D01*
X445089Y95157D01*
X445044Y95180D01*
X444879Y95230D01*
X444715Y95288D01*
X444665Y95296D01*
X444617Y95311D01*
X444445Y95331D01*
X444274Y95359D01*
X444224Y95358D01*
X444174Y95364D01*
X444000Y95353D01*
X443827Y95350D01*
X443778Y95340D01*
X443728Y95337D01*
X443559Y95296D01*
X443389Y95262D01*
X443343Y95243D01*
X443294Y95231D01*
X443135Y95161D01*
X442974Y95097D01*
X442931Y95070D01*
X442886Y95050D01*
X442742Y94952D01*
X442595Y94861D01*
X442558Y94827D01*
X442516Y94799D01*
X442333Y94633D01*
X440867Y93167D01*
X440835Y93129D01*
X440798Y93095D01*
X440692Y92958D01*
X440581Y92824D01*
X440556Y92781D01*
X440526Y92741D01*
X440446Y92587D01*
X440360Y92436D01*
X440343Y92389D01*
X440320Y92344D01*
X440270Y92179D01*
X440212Y92015D01*
X440204Y91965D01*
X440189Y91917D01*
X440169Y91745D01*
X440141Y91574D01*
X440142Y91524D01*
X440136Y91474D01*
X440147Y91300D01*
X440150Y91127D01*
X440160Y91078D01*
X440163Y91028D01*
X440204Y90859D01*
X440238Y90689D01*
X440257Y90643D01*
X440269Y90594D01*
X440339Y90435D01*
X440403Y90274D01*
X440430Y90231D01*
X440450Y90186D01*
X440548Y90041D01*
X440639Y89895D01*
X440673Y89858D01*
X440701Y89816D01*
X440867Y89633D01*
X444398Y86102D01*
X446409Y81247D01*
X446409Y60753D01*
X444398Y55898D01*
X440682Y52182D01*
X435827Y50171D01*
X430573Y50171D01*
X425718Y52182D01*
X422267Y55633D01*
X422229Y55665D01*
X422195Y55702D01*
X422057Y55808D01*
X421924Y55919D01*
X421881Y55944D01*
X421841Y55974D01*
X421687Y56054D01*
X421536Y56140D01*
X421489Y56157D01*
X421444Y56180D01*
X421279Y56230D01*
X421115Y56288D01*
X421065Y56296D01*
X421017Y56311D01*
X420845Y56331D01*
X420674Y56359D01*
X420624Y56358D01*
X420574Y56364D01*
X420400Y56353D01*
X420227Y56350D01*
X420178Y56340D01*
X420128Y56337D01*
X419959Y56296D01*
X419789Y56262D01*
X419743Y56243D01*
X419694Y56231D01*
X419535Y56161D01*
X419374Y56097D01*
X419331Y56070D01*
X419286Y56050D01*
X419142Y55952D01*
X418995Y55861D01*
X418958Y55827D01*
X418916Y55799D01*
X418733Y55633D01*
X415282Y52182D01*
X410427Y50171D01*
X405173Y50171D01*
X400318Y52182D01*
X396867Y55633D01*
X396829Y55665D01*
X396795Y55702D01*
X396657Y55808D01*
X396524Y55919D01*
X396481Y55944D01*
X396441Y55974D01*
X396287Y56054D01*
X396136Y56140D01*
X396089Y56157D01*
X396044Y56180D01*
X395879Y56230D01*
X395715Y56288D01*
X395665Y56296D01*
X395617Y56311D01*
X395445Y56331D01*
X395274Y56359D01*
X395224Y56358D01*
X395174Y56364D01*
X395000Y56353D01*
X394827Y56350D01*
X394778Y56340D01*
X394728Y56337D01*
X394559Y56296D01*
X394389Y56262D01*
X394343Y56243D01*
X394294Y56231D01*
X394135Y56161D01*
X393974Y56097D01*
X393931Y56070D01*
X393886Y56050D01*
X393742Y55952D01*
X393595Y55861D01*
X393558Y55827D01*
X393516Y55799D01*
X393333Y55633D01*
X389882Y52182D01*
X385027Y50171D01*
X379773Y50171D01*
X374918Y52182D01*
X371467Y55633D01*
X371429Y55665D01*
X371395Y55702D01*
X371257Y55808D01*
X371124Y55919D01*
X371081Y55944D01*
X371041Y55974D01*
X370887Y56054D01*
X370736Y56140D01*
X370689Y56157D01*
X370644Y56180D01*
X370479Y56230D01*
X370315Y56288D01*
X370265Y56296D01*
X370217Y56311D01*
X370045Y56331D01*
X369874Y56359D01*
X369824Y56358D01*
X369774Y56364D01*
X369600Y56353D01*
X369427Y56350D01*
X369378Y56340D01*
X369328Y56337D01*
X369159Y56296D01*
X368989Y56262D01*
X368943Y56243D01*
X368894Y56231D01*
X368735Y56161D01*
X368574Y56097D01*
X368531Y56070D01*
X368486Y56050D01*
X368342Y55952D01*
X368195Y55861D01*
X368158Y55827D01*
X368116Y55799D01*
X367933Y55633D01*
X364482Y52182D01*
X359627Y50171D01*
X354373Y50171D01*
X349518Y52182D01*
X346067Y55633D01*
X346029Y55665D01*
X345995Y55702D01*
X345857Y55808D01*
X345724Y55919D01*
X345681Y55944D01*
X345641Y55974D01*
X345487Y56054D01*
X345336Y56140D01*
X345289Y56157D01*
X345244Y56180D01*
X345079Y56230D01*
X344915Y56288D01*
X344865Y56296D01*
X344817Y56311D01*
X344645Y56331D01*
X344474Y56359D01*
X344424Y56358D01*
X344374Y56364D01*
X344200Y56353D01*
X344027Y56350D01*
X343978Y56340D01*
X343928Y56337D01*
X343759Y56296D01*
X343589Y56262D01*
X343543Y56243D01*
X343494Y56231D01*
X343335Y56161D01*
X343174Y56097D01*
X343131Y56070D01*
X343086Y56050D01*
X342942Y55952D01*
X342795Y55861D01*
X342758Y55827D01*
X342716Y55799D01*
X342533Y55633D01*
X339082Y52182D01*
X334227Y50171D01*
X328973Y50171D01*
X324118Y52182D01*
X320667Y55633D01*
X320629Y55665D01*
X320595Y55702D01*
X320457Y55808D01*
X320324Y55919D01*
X320281Y55944D01*
X320241Y55974D01*
X320087Y56054D01*
X319936Y56140D01*
X319889Y56157D01*
X319844Y56180D01*
X319679Y56230D01*
X319515Y56288D01*
X319465Y56296D01*
X319417Y56311D01*
X319245Y56331D01*
X319074Y56359D01*
X319024Y56358D01*
X318974Y56364D01*
X318800Y56353D01*
X318627Y56350D01*
X318578Y56340D01*
X318528Y56337D01*
X318359Y56296D01*
X318189Y56262D01*
X318143Y56243D01*
X318094Y56231D01*
X317935Y56161D01*
X317774Y56097D01*
X317731Y56070D01*
X317686Y56050D01*
X317542Y55952D01*
X317395Y55861D01*
X317358Y55827D01*
X317316Y55799D01*
X317133Y55633D01*
X313682Y52182D01*
X308827Y50171D01*
X303573Y50171D01*
X298718Y52182D01*
X295267Y55633D01*
X295229Y55665D01*
X295195Y55702D01*
X295057Y55808D01*
X294924Y55919D01*
X294881Y55944D01*
X294841Y55974D01*
X294687Y56054D01*
X294536Y56140D01*
X294489Y56157D01*
X294444Y56180D01*
X294279Y56230D01*
X294115Y56288D01*
X294065Y56296D01*
X294017Y56311D01*
X293845Y56331D01*
X293674Y56359D01*
X293624Y56358D01*
X293574Y56364D01*
X293400Y56353D01*
X293227Y56350D01*
X293178Y56340D01*
X293128Y56337D01*
X292959Y56296D01*
X292789Y56262D01*
X292743Y56243D01*
X292694Y56231D01*
X292535Y56161D01*
X292374Y56097D01*
X292331Y56070D01*
X292286Y56050D01*
X292142Y55952D01*
X291995Y55861D01*
X291958Y55827D01*
X291916Y55799D01*
X291733Y55633D01*
X288282Y52182D01*
X283427Y50171D01*
X278173Y50171D01*
X273318Y52182D01*
X269867Y55633D01*
X269829Y55665D01*
X269795Y55702D01*
X269657Y55808D01*
X269524Y55919D01*
X269481Y55944D01*
X269441Y55974D01*
X269287Y56054D01*
X269136Y56140D01*
X269089Y56157D01*
X269044Y56180D01*
X268879Y56230D01*
X268715Y56288D01*
X268665Y56296D01*
X268617Y56311D01*
X268445Y56331D01*
X268274Y56359D01*
X268224Y56358D01*
X268174Y56364D01*
X268000Y56353D01*
X267827Y56350D01*
X267778Y56340D01*
X267728Y56337D01*
X267559Y56296D01*
X267389Y56262D01*
X267343Y56243D01*
X267294Y56231D01*
X267135Y56161D01*
X266974Y56097D01*
X266931Y56070D01*
X266886Y56050D01*
X266742Y55952D01*
X266595Y55861D01*
X266558Y55827D01*
X266516Y55799D01*
X266333Y55633D01*
X262882Y52182D01*
X258027Y50171D01*
X252773Y50171D01*
X247918Y52182D01*
X244202Y55898D01*
X243312Y58046D01*
X243294Y58080D01*
X243282Y58117D01*
X243191Y58278D01*
X243105Y58442D01*
X243081Y58472D01*
X243062Y58506D01*
X242945Y58648D01*
X242831Y58794D01*
X242802Y58820D01*
X242777Y58850D01*
X242636Y58969D01*
X242498Y59092D01*
X242465Y59113D01*
X242436Y59138D01*
X242275Y59230D01*
X242118Y59326D01*
X242082Y59341D01*
X242048Y59360D01*
X241874Y59422D01*
X241702Y59489D01*
X241664Y59497D01*
X241627Y59510D01*
X241445Y59540D01*
X241264Y59575D01*
X241225Y59576D01*
X241187Y59582D01*
X241002Y59579D01*
X240817Y59582D01*
X240779Y59575D01*
X240740Y59575D01*
X240559Y59539D01*
X240376Y59509D01*
X240340Y59496D01*
X240302Y59488D01*
X240130Y59421D01*
X239956Y59358D01*
X239922Y59339D01*
X239886Y59325D01*
X239729Y59228D01*
X239568Y59136D01*
X239539Y59111D01*
X239506Y59090D01*
X239368Y58967D01*
X239227Y58847D01*
X239202Y58818D01*
X239174Y58792D01*
X239060Y58645D01*
X238942Y58503D01*
X238924Y58469D01*
X238900Y58439D01*
X238777Y58224D01*
X238690Y58055D01*
X237750Y56761D01*
X236619Y55630D01*
X235325Y54690D01*
X233900Y53964D01*
X232539Y53521D01*
X232539Y70960D01*
X232535Y71010D01*
X232537Y71060D01*
X232515Y71231D01*
X232499Y71405D01*
X232486Y71453D01*
X232480Y71503D01*
X232427Y71668D01*
X232381Y71835D01*
X232359Y71881D01*
X232344Y71928D01*
X232263Y72081D01*
X232188Y72238D01*
X232158Y72279D01*
X232135Y72323D01*
X232028Y72459D01*
X231926Y72600D01*
X231890Y72635D01*
X231859Y72674D01*
X231729Y72789D01*
X231604Y72910D01*
X231562Y72937D01*
X231524Y72970D01*
X231376Y73061D01*
X231232Y73157D01*
X231186Y73177D01*
X231143Y73203D01*
X230981Y73265D01*
X230821Y73334D01*
X230773Y73345D01*
X230726Y73363D01*
X230555Y73396D01*
X230386Y73435D01*
X230336Y73437D01*
X230287Y73447D01*
X230040Y73459D01*
X229960Y73459D01*
X229910Y73455D01*
X229860Y73457D01*
X229688Y73435D01*
X229515Y73419D01*
X229467Y73406D01*
X229417Y73399D01*
X229252Y73347D01*
X229084Y73301D01*
X229039Y73279D01*
X228992Y73264D01*
X228838Y73183D01*
X228682Y73107D01*
X228641Y73078D01*
X228597Y73055D01*
X228460Y72947D01*
X228320Y72846D01*
X228285Y72809D01*
X228246Y72778D01*
X228130Y72648D01*
X228010Y72523D01*
X227983Y72482D01*
X227949Y72444D01*
X227859Y72296D01*
X227763Y72151D01*
X227743Y72105D01*
X227717Y72063D01*
X227655Y71901D01*
X227586Y71741D01*
X227575Y71693D01*
X227557Y71646D01*
X227524Y71475D01*
X227485Y71306D01*
X227482Y71256D01*
X227473Y71207D01*
X227461Y70960D01*
X227461Y53521D01*
X226100Y53964D01*
X224675Y54690D01*
X223381Y55630D01*
X222250Y56761D01*
X221310Y58055D01*
X221223Y58224D01*
X221203Y58257D01*
X221187Y58292D01*
X221084Y58446D01*
X220986Y58602D01*
X220960Y58631D01*
X220938Y58663D01*
X220809Y58796D01*
X220685Y58932D01*
X220654Y58956D01*
X220627Y58984D01*
X220476Y59092D01*
X220330Y59203D01*
X220295Y59221D01*
X220264Y59244D01*
X220096Y59323D01*
X219932Y59407D01*
X219895Y59418D01*
X219860Y59435D01*
X219681Y59483D01*
X219505Y59537D01*
X219466Y59541D01*
X219429Y59551D01*
X219244Y59567D01*
X219061Y59588D01*
X219022Y59585D01*
X218984Y59589D01*
X218800Y59571D01*
X218615Y59559D01*
X218577Y59550D01*
X218539Y59546D01*
X218361Y59497D01*
X218181Y59452D01*
X218146Y59436D01*
X218109Y59426D01*
X217942Y59345D01*
X217774Y59269D01*
X217742Y59247D01*
X217707Y59230D01*
X217558Y59121D01*
X217405Y59017D01*
X217378Y58990D01*
X217347Y58967D01*
X217219Y58833D01*
X217088Y58703D01*
X217065Y58671D01*
X217039Y58643D01*
X216937Y58488D01*
X216831Y58337D01*
X216815Y58302D01*
X216793Y58270D01*
X216688Y58046D01*
X215798Y55898D01*
X212082Y52182D01*
X207227Y50171D01*
X201973Y50171D01*
X197118Y52182D01*
X193667Y55633D01*
X193629Y55665D01*
X193595Y55702D01*
X193457Y55808D01*
X193324Y55919D01*
X193281Y55944D01*
X193241Y55974D01*
X193087Y56054D01*
X192936Y56140D01*
X192889Y56157D01*
X192844Y56180D01*
X192679Y56230D01*
X192515Y56288D01*
X192465Y56296D01*
X192417Y56311D01*
X192245Y56331D01*
X192074Y56359D01*
X192024Y56358D01*
X191974Y56364D01*
X191800Y56353D01*
X191627Y56350D01*
X191578Y56340D01*
X191528Y56337D01*
X191359Y56296D01*
X191189Y56262D01*
X191143Y56243D01*
X191094Y56231D01*
X190935Y56161D01*
X190774Y56097D01*
X190731Y56070D01*
X190686Y56050D01*
X190542Y55952D01*
X190395Y55861D01*
X190358Y55827D01*
X190316Y55799D01*
X190133Y55633D01*
X186682Y52182D01*
X181827Y50171D01*
X176573Y50171D01*
X171718Y52182D01*
X168267Y55633D01*
X168229Y55665D01*
X168195Y55702D01*
X168057Y55808D01*
X167924Y55919D01*
X167881Y55944D01*
X167841Y55974D01*
X167687Y56054D01*
X167536Y56140D01*
X167489Y56157D01*
X167444Y56180D01*
X167279Y56230D01*
X167115Y56288D01*
X167065Y56296D01*
X167017Y56311D01*
X166845Y56331D01*
X166674Y56359D01*
X166624Y56358D01*
X166574Y56364D01*
X166400Y56353D01*
X166227Y56350D01*
X166178Y56340D01*
X166128Y56337D01*
X165959Y56296D01*
X165789Y56262D01*
X165743Y56243D01*
X165694Y56231D01*
X165535Y56161D01*
X165374Y56097D01*
X165331Y56070D01*
X165286Y56050D01*
X165142Y55952D01*
X164995Y55861D01*
X164958Y55827D01*
X164916Y55799D01*
X164733Y55633D01*
X161282Y52182D01*
X156427Y50171D01*
X151173Y50171D01*
X146318Y52182D01*
X142602Y55898D01*
X140591Y60753D01*
X140591Y81247D01*
X142602Y86102D01*
X146641Y90141D01*
X146656Y90159D01*
X146673Y90174D01*
X146799Y90330D01*
X146928Y90484D01*
X146939Y90504D01*
X146953Y90521D01*
X147050Y90699D01*
X147149Y90873D01*
X147156Y90894D01*
X147167Y90914D01*
X147230Y91105D01*
X147297Y91294D01*
X147300Y91316D01*
X147307Y91338D01*
X147336Y91536D01*
X147367Y91735D01*
X147367Y91758D01*
X147370Y91780D01*
X147362Y91981D01*
X147358Y92182D01*
X147354Y92204D01*
X147353Y92226D01*
X147310Y92423D01*
X147270Y92620D01*
X147262Y92641D01*
X147257Y92663D01*
X147179Y92848D01*
X147105Y93035D01*
X147093Y93054D01*
X147085Y93075D01*
X146975Y93244D01*
X146869Y93414D01*
X146854Y93431D01*
X146842Y93450D01*
X146704Y93597D01*
X146569Y93745D01*
X146551Y93759D01*
X146536Y93775D01*
X146343Y93931D01*
X145381Y94630D01*
X144250Y95761D01*
X143310Y97055D01*
X143223Y97224D01*
X143203Y97257D01*
X143187Y97292D01*
X143084Y97446D01*
X142986Y97602D01*
X142960Y97631D01*
X142938Y97663D01*
X142809Y97796D01*
X142685Y97932D01*
X142654Y97956D01*
X142627Y97984D01*
X142476Y98092D01*
X142330Y98203D01*
X142295Y98221D01*
X142264Y98244D01*
X142096Y98323D01*
X141932Y98407D01*
X141895Y98418D01*
X141860Y98435D01*
X141681Y98483D01*
X141505Y98537D01*
X141466Y98541D01*
X141429Y98551D01*
X141244Y98567D01*
X141061Y98588D01*
X141022Y98585D01*
X140984Y98589D01*
X140800Y98571D01*
X140615Y98559D01*
X140577Y98550D01*
X140539Y98546D01*
X140361Y98497D01*
X140181Y98452D01*
X140146Y98436D01*
X140109Y98426D01*
X139942Y98345D01*
X139774Y98269D01*
X139742Y98247D01*
X139707Y98230D01*
X139558Y98121D01*
X139405Y98017D01*
X139378Y97990D01*
X139347Y97967D01*
X139219Y97833D01*
X139088Y97703D01*
X139065Y97671D01*
X139039Y97643D01*
X138937Y97488D01*
X138831Y97337D01*
X138815Y97302D01*
X138793Y97270D01*
X138688Y97046D01*
X137798Y94898D01*
X134082Y91182D01*
X129227Y89171D01*
X123973Y89171D01*
X119118Y91182D01*
X115667Y94633D01*
X115629Y94665D01*
X115595Y94702D01*
X115458Y94808D01*
X115324Y94919D01*
X115281Y94944D01*
X115241Y94974D01*
X115087Y95054D01*
X114936Y95140D01*
X114889Y95157D01*
X114844Y95180D01*
X114679Y95230D01*
X114515Y95288D01*
X114465Y95296D01*
X114417Y95311D01*
X114245Y95331D01*
X114074Y95359D01*
X114023Y95358D01*
X113974Y95364D01*
X113800Y95353D01*
X113627Y95350D01*
X113578Y95340D01*
X113528Y95337D01*
X113359Y95296D01*
X113189Y95262D01*
X113143Y95243D01*
X113094Y95231D01*
X112935Y95161D01*
X112774Y95097D01*
X112731Y95070D01*
X112686Y95050D01*
X112542Y94952D01*
X112395Y94861D01*
X112358Y94827D01*
X112316Y94799D01*
X112133Y94633D01*
X108682Y91182D01*
X103827Y89171D01*
X98573Y89171D01*
X93718Y91182D01*
X90002Y94898D01*
X87991Y99753D01*
X87991Y120247D01*
X90002Y125102D01*
X93718Y128818D01*
X98573Y130829D01*
X103827Y130829D01*
X108682Y128818D01*
X112133Y125367D01*
X112171Y125335D01*
X112205Y125298D01*
X112343Y125192D01*
X112476Y125081D01*
X112519Y125056D01*
X112559Y125026D01*
X112713Y124946D01*
X112864Y124860D01*
X112911Y124843D01*
X112956Y124820D01*
X113121Y124770D01*
X113285Y124712D01*
X113335Y124704D01*
X113383Y124689D01*
X113555Y124669D01*
X113726Y124641D01*
X113776Y124642D01*
X113826Y124636D01*
X114000Y124647D01*
X114173Y124650D01*
X114222Y124660D01*
X114272Y124663D01*
X114441Y124704D01*
X114611Y124738D01*
X114657Y124757D01*
X114706Y124769D01*
X114865Y124839D01*
X115026Y124903D01*
X115069Y124930D01*
X115114Y124950D01*
X115258Y125048D01*
X115405Y125139D01*
X115442Y125173D01*
X115484Y125201D01*
X115667Y125367D01*
X119118Y128818D01*
X123973Y130829D01*
X129227Y130829D01*
X134082Y128818D01*
X137798Y125102D01*
X138688Y122954D01*
X138706Y122920D01*
X138718Y122883D01*
X138809Y122722D01*
X138895Y122558D01*
X138919Y122528D01*
X138938Y122494D01*
X139055Y122352D01*
X139169Y122206D01*
X139198Y122180D01*
X139223Y122150D01*
X139364Y122031D01*
X139502Y121908D01*
X139535Y121887D01*
X139564Y121862D01*
X139725Y121770D01*
X139882Y121674D01*
X139918Y121659D01*
X139952Y121640D01*
X140126Y121578D01*
X140298Y121511D01*
X140336Y121503D01*
X140373Y121490D01*
X140555Y121460D01*
X140736Y121425D01*
X140775Y121424D01*
X140813Y121418D01*
X140998Y121421D01*
X141183Y121418D01*
X141221Y121425D01*
X141260Y121425D01*
X141441Y121461D01*
X141624Y121491D01*
X141660Y121504D01*
X141698Y121512D01*
X141870Y121579D01*
X142044Y121642D01*
X142078Y121661D01*
X142114Y121675D01*
X142271Y121772D01*
X142432Y121864D01*
X142461Y121889D01*
X142494Y121910D01*
X142632Y122033D01*
X142773Y122153D01*
X142798Y122182D01*
X142826Y122208D01*
X142940Y122355D01*
X142965Y122385D01*
X142966Y122386D01*
X142967Y122387D01*
X143058Y122497D01*
X143076Y122531D01*
X143100Y122561D01*
X143212Y122756D01*
X143213Y122758D01*
X143214Y122760D01*
X143223Y122776D01*
X143310Y122945D01*
X144250Y124239D01*
X145381Y125370D01*
X146675Y126310D01*
X148100Y127036D01*
X149461Y127479D01*
X149461Y110040D01*
X149465Y109990D01*
X149463Y109940D01*
X149485Y109769D01*
X149501Y109595D01*
X149514Y109547D01*
X149520Y109497D01*
X149573Y109332D01*
X149619Y109165D01*
X149641Y109119D01*
X149656Y109072D01*
X149737Y108919D01*
X149812Y108762D01*
X149842Y108721D01*
X149865Y108677D01*
X149972Y108541D01*
X150074Y108400D01*
X150110Y108365D01*
X150141Y108326D01*
X150271Y108211D01*
X150396Y108090D01*
X150438Y108063D01*
X150475Y108030D01*
X150624Y107939D01*
X150768Y107843D01*
X150814Y107823D01*
X150857Y107797D01*
X151019Y107735D01*
X151179Y107666D01*
X151227Y107655D01*
X151274Y107637D01*
X151445Y107604D01*
X151614Y107565D01*
X151663Y107563D01*
X151713Y107553D01*
X151960Y107541D01*
X152040Y107541D01*
X152090Y107545D01*
X152140Y107543D01*
X152312Y107565D01*
X152485Y107581D01*
X152533Y107594D01*
X152583Y107601D01*
X152748Y107653D01*
X152916Y107699D01*
X152961Y107721D01*
X153008Y107736D01*
X153162Y107817D01*
X153318Y107893D01*
X153359Y107922D01*
X153403Y107945D01*
X153540Y108053D01*
X153680Y108154D01*
X153715Y108191D01*
X153754Y108222D01*
X153870Y108352D01*
X153990Y108477D01*
X154017Y108518D01*
X154051Y108556D01*
X154141Y108704D01*
X154237Y108849D01*
X154257Y108895D01*
X154283Y108937D01*
X154345Y109099D01*
X154414Y109259D01*
X154425Y109307D01*
X154443Y109354D01*
X154476Y109525D01*
X154515Y109694D01*
X154518Y109744D01*
X154527Y109793D01*
X154539Y110040D01*
X154539Y127479D01*
X155900Y127036D01*
X157325Y126310D01*
X158619Y125370D01*
X159750Y124239D01*
X160690Y122945D01*
X160777Y122776D01*
X160797Y122743D01*
X160813Y122708D01*
X160869Y122624D01*
X160889Y122587D01*
X160922Y122544D01*
X161014Y122398D01*
X161040Y122369D01*
X161062Y122337D01*
X161191Y122204D01*
X161315Y122068D01*
X161346Y122044D01*
X161373Y122016D01*
X161524Y121908D01*
X161670Y121797D01*
X161705Y121779D01*
X161736Y121756D01*
X161904Y121677D01*
X162068Y121593D01*
X162105Y121582D01*
X162140Y121565D01*
X162319Y121517D01*
X162495Y121463D01*
X162534Y121459D01*
X162571Y121449D01*
X162756Y121433D01*
X162939Y121412D01*
X162978Y121415D01*
X163016Y121411D01*
X163200Y121429D01*
X163385Y121441D01*
X163423Y121450D01*
X163461Y121454D01*
X163639Y121503D01*
X163819Y121548D01*
X163854Y121564D01*
X163891Y121574D01*
X164058Y121655D01*
X164226Y121731D01*
X164258Y121753D01*
X164293Y121770D01*
X164442Y121879D01*
X164595Y121983D01*
X164622Y122010D01*
X164653Y122033D01*
X164781Y122167D01*
X164912Y122297D01*
X164935Y122329D01*
X164961Y122357D01*
X165063Y122512D01*
X165169Y122663D01*
X165185Y122698D01*
X165207Y122730D01*
X165312Y122954D01*
X166202Y125102D01*
X169918Y128818D01*
X174773Y130829D01*
X180027Y130829D01*
X184882Y128818D01*
X188333Y125367D01*
X188371Y125335D01*
X188405Y125298D01*
X188543Y125192D01*
X188676Y125081D01*
X188719Y125056D01*
X188759Y125026D01*
X188913Y124946D01*
X189064Y124860D01*
X189111Y124843D01*
X189156Y124820D01*
X189321Y124770D01*
X189485Y124712D01*
X189535Y124704D01*
X189583Y124689D01*
X189755Y124669D01*
X189926Y124641D01*
X189976Y124642D01*
X190026Y124636D01*
X190200Y124647D01*
X190373Y124650D01*
X190422Y124660D01*
X190472Y124663D01*
X190641Y124704D01*
X190811Y124738D01*
X190857Y124757D01*
X190906Y124769D01*
X191065Y124839D01*
X191226Y124903D01*
X191269Y124930D01*
X191314Y124950D01*
X191458Y125048D01*
X191605Y125139D01*
X191642Y125173D01*
X191684Y125201D01*
X191867Y125367D01*
X195318Y128818D01*
X200173Y130829D01*
X205427Y130829D01*
X210282Y128818D01*
X213733Y125367D01*
X213771Y125335D01*
X213805Y125298D01*
X213943Y125192D01*
X214076Y125081D01*
X214119Y125056D01*
X214159Y125026D01*
X214313Y124946D01*
X214464Y124860D01*
X214511Y124843D01*
X214556Y124820D01*
X214721Y124770D01*
X214885Y124712D01*
X214935Y124704D01*
X214983Y124689D01*
X215155Y124669D01*
X215326Y124641D01*
X215376Y124642D01*
X215426Y124636D01*
X215600Y124647D01*
X215773Y124650D01*
X215822Y124660D01*
X215872Y124663D01*
X216041Y124704D01*
X216211Y124738D01*
X216257Y124757D01*
X216306Y124769D01*
X216465Y124839D01*
X216626Y124903D01*
X216669Y124930D01*
X216714Y124950D01*
X216858Y125048D01*
X217005Y125139D01*
X217042Y125173D01*
X217084Y125201D01*
X217267Y125367D01*
X220718Y128818D01*
X225573Y130829D01*
X230827Y130829D01*
X235682Y128818D01*
X239133Y125367D01*
X239171Y125335D01*
X239205Y125298D01*
X239343Y125192D01*
X239476Y125081D01*
X239519Y125056D01*
X239559Y125026D01*
X239713Y124946D01*
X239864Y124860D01*
X239911Y124843D01*
X239956Y124820D01*
X240121Y124770D01*
X240285Y124712D01*
X240335Y124704D01*
X240383Y124689D01*
X240555Y124669D01*
X240726Y124641D01*
X240776Y124642D01*
X240826Y124636D01*
X241000Y124647D01*
X241173Y124650D01*
X241222Y124660D01*
X241272Y124663D01*
X241441Y124704D01*
X241611Y124738D01*
X241657Y124757D01*
X241706Y124769D01*
X241865Y124839D01*
X242026Y124903D01*
X242069Y124930D01*
X242114Y124950D01*
X242258Y125048D01*
X242405Y125139D01*
X242442Y125173D01*
X242484Y125201D01*
X242667Y125367D01*
X246118Y128818D01*
X250973Y130829D01*
X256227Y130829D01*
X261082Y128818D01*
X264533Y125367D01*
X264571Y125335D01*
X264605Y125298D01*
X264743Y125192D01*
X264876Y125081D01*
X264919Y125056D01*
X264959Y125026D01*
X265113Y124946D01*
X265264Y124860D01*
X265311Y124843D01*
X265356Y124820D01*
X265521Y124770D01*
X265685Y124712D01*
X265735Y124704D01*
X265783Y124689D01*
X265955Y124669D01*
X266126Y124641D01*
X266176Y124642D01*
X266226Y124636D01*
X266400Y124647D01*
X266573Y124650D01*
X266622Y124660D01*
X266672Y124663D01*
X266841Y124704D01*
X267011Y124738D01*
X267057Y124757D01*
X267106Y124769D01*
X267265Y124839D01*
X267426Y124903D01*
X267469Y124930D01*
X267514Y124950D01*
X267658Y125048D01*
X267805Y125139D01*
X267842Y125173D01*
X267884Y125201D01*
X268067Y125367D01*
X271518Y128818D01*
X276373Y130829D01*
X281627Y130829D01*
X286482Y128818D01*
X289933Y125367D01*
X289971Y125335D01*
X290005Y125298D01*
X290143Y125192D01*
X290276Y125081D01*
X290319Y125056D01*
X290359Y125026D01*
X290513Y124946D01*
X290664Y124860D01*
X290711Y124843D01*
X290756Y124820D01*
X290921Y124770D01*
X291085Y124712D01*
X291135Y124704D01*
X291183Y124689D01*
X291355Y124669D01*
X291526Y124641D01*
X291576Y124642D01*
X291626Y124636D01*
X291800Y124647D01*
X291973Y124650D01*
X292022Y124660D01*
X292072Y124663D01*
X292241Y124704D01*
X292411Y124738D01*
X292457Y124757D01*
X292506Y124769D01*
X292665Y124839D01*
X292826Y124903D01*
X292869Y124930D01*
X292914Y124950D01*
X293058Y125048D01*
X293205Y125139D01*
X293242Y125173D01*
X293284Y125201D01*
X293467Y125367D01*
X296918Y128818D01*
X301773Y130829D01*
X307027Y130829D01*
X311882Y128818D01*
X315333Y125367D01*
X315371Y125335D01*
X315405Y125298D01*
X315543Y125192D01*
X315676Y125081D01*
X315719Y125056D01*
X315759Y125026D01*
X315913Y124946D01*
X316064Y124860D01*
X316111Y124843D01*
X316156Y124820D01*
X316321Y124770D01*
X316485Y124712D01*
X316535Y124704D01*
X316583Y124689D01*
X316755Y124669D01*
X316926Y124641D01*
X316976Y124642D01*
X317026Y124636D01*
X317200Y124647D01*
X317373Y124650D01*
X317422Y124660D01*
X317472Y124663D01*
X317641Y124704D01*
X317811Y124738D01*
X317857Y124757D01*
X317906Y124769D01*
X318065Y124839D01*
X318226Y124903D01*
X318269Y124930D01*
X318314Y124950D01*
X318458Y125048D01*
X318605Y125139D01*
X318642Y125173D01*
X318684Y125201D01*
X318867Y125367D01*
X322318Y128818D01*
X327173Y130829D01*
X332427Y130829D01*
X337282Y128818D01*
X340733Y125367D01*
X340771Y125335D01*
X340805Y125298D01*
X340942Y125192D01*
X341076Y125081D01*
X341119Y125056D01*
X341159Y125026D01*
X341313Y124946D01*
X341464Y124860D01*
X341511Y124843D01*
X341556Y124820D01*
X341721Y124770D01*
X341885Y124712D01*
X341935Y124704D01*
X341983Y124689D01*
X342155Y124669D01*
X342326Y124641D01*
X342376Y124642D01*
X342426Y124636D01*
X342600Y124647D01*
X342773Y124650D01*
X342822Y124660D01*
X342872Y124663D01*
X343041Y124704D01*
X343211Y124738D01*
X343257Y124757D01*
X343306Y124769D01*
X343465Y124839D01*
X343626Y124903D01*
X343669Y124930D01*
X343714Y124950D01*
X343858Y125048D01*
X344005Y125139D01*
X344042Y125173D01*
X344084Y125201D01*
X344267Y125367D01*
X346379Y127479D01*
X346499Y127622D01*
X346623Y127762D01*
X346642Y127794D01*
X346666Y127822D01*
X346758Y127984D01*
X346855Y128144D01*
X346868Y128178D01*
X346886Y128210D01*
X346948Y128386D01*
X347015Y128560D01*
X347022Y128597D01*
X347035Y128632D01*
X347064Y128816D01*
X347099Y128999D01*
X347102Y129050D01*
X347105Y129073D01*
X347104Y129110D01*
X347111Y129246D01*
X347111Y156029D01*
X348343Y159002D01*
X398979Y209638D01*
X399099Y209782D01*
X399223Y209921D01*
X399242Y209953D01*
X399266Y209981D01*
X399358Y210143D01*
X399455Y210303D01*
X399468Y210337D01*
X399486Y210370D01*
X399548Y210546D01*
X399581Y210631D01*
X399586Y210642D01*
X399587Y210646D01*
X399615Y210720D01*
X399622Y210756D01*
X399635Y210791D01*
X399664Y210975D01*
X399667Y210990D01*
X399687Y211077D01*
X399688Y211103D01*
X399699Y211158D01*
X399702Y211209D01*
X399705Y211232D01*
X399704Y211269D01*
X399711Y211406D01*
X399711Y211754D01*
X399695Y211940D01*
X399683Y212126D01*
X399675Y212162D01*
X399671Y212198D01*
X399622Y212379D01*
X399578Y212560D01*
X399563Y212593D01*
X399553Y212629D01*
X399472Y212798D01*
X399396Y212968D01*
X399376Y212998D01*
X399360Y213032D01*
X399250Y213184D01*
X399145Y213337D01*
X399112Y213375D01*
X399098Y213394D01*
X399071Y213419D01*
X398979Y213521D01*
X396867Y215633D01*
X396829Y215665D01*
X396795Y215702D01*
X396658Y215808D01*
X396524Y215919D01*
X396481Y215944D01*
X396441Y215974D01*
X396287Y216054D01*
X396136Y216140D01*
X396089Y216157D01*
X396044Y216180D01*
X395879Y216230D01*
X395715Y216288D01*
X395665Y216296D01*
X395617Y216311D01*
X395445Y216331D01*
X395274Y216359D01*
X395223Y216358D01*
X395174Y216364D01*
X395000Y216353D01*
X394827Y216350D01*
X394778Y216340D01*
X394728Y216337D01*
X394559Y216296D01*
X394389Y216262D01*
X394342Y216243D01*
X394294Y216231D01*
X394136Y216161D01*
X393974Y216097D01*
X393931Y216070D01*
X393886Y216050D01*
X393742Y215953D01*
X393595Y215861D01*
X393558Y215827D01*
X393516Y215799D01*
X393333Y215633D01*
X389882Y212182D01*
X385027Y210171D01*
X379773Y210171D01*
X374918Y212182D01*
X371467Y215633D01*
X371429Y215665D01*
X371395Y215702D01*
X371258Y215808D01*
X371124Y215919D01*
X371081Y215944D01*
X371041Y215974D01*
X370887Y216054D01*
X370736Y216140D01*
X370689Y216157D01*
X370644Y216180D01*
X370479Y216230D01*
X370315Y216288D01*
X370265Y216296D01*
X370217Y216311D01*
X370045Y216331D01*
X369874Y216359D01*
X369823Y216358D01*
X369774Y216364D01*
X369600Y216353D01*
X369427Y216350D01*
X369378Y216340D01*
X369328Y216337D01*
X369159Y216296D01*
X368989Y216262D01*
X368943Y216243D01*
X368894Y216231D01*
X368735Y216161D01*
X368574Y216097D01*
X368531Y216070D01*
X368486Y216050D01*
X368342Y215952D01*
X368195Y215861D01*
X368158Y215827D01*
X368116Y215799D01*
X367933Y215633D01*
X364482Y212182D01*
X359627Y210171D01*
X354373Y210171D01*
X349518Y212182D01*
X346067Y215633D01*
X346029Y215665D01*
X345995Y215702D01*
X345858Y215808D01*
X345724Y215919D01*
X345681Y215944D01*
X345641Y215974D01*
X345487Y216054D01*
X345336Y216140D01*
X345289Y216157D01*
X345244Y216180D01*
X345079Y216230D01*
X344915Y216288D01*
X344865Y216296D01*
X344817Y216311D01*
X344645Y216331D01*
X344474Y216359D01*
X344423Y216358D01*
X344374Y216364D01*
X344200Y216353D01*
X344027Y216350D01*
X343978Y216340D01*
X343928Y216337D01*
X343759Y216296D01*
X343589Y216262D01*
X343543Y216243D01*
X343494Y216231D01*
X343335Y216161D01*
X343174Y216097D01*
X343131Y216070D01*
X343086Y216050D01*
X342942Y215952D01*
X342795Y215861D01*
X342758Y215827D01*
X342716Y215799D01*
X342533Y215633D01*
X339082Y212182D01*
X334227Y210171D01*
X328973Y210171D01*
X324118Y212182D01*
X320667Y215633D01*
X320629Y215665D01*
X320595Y215702D01*
X320458Y215808D01*
X320324Y215919D01*
X320281Y215944D01*
X320241Y215974D01*
X320087Y216054D01*
X319936Y216140D01*
X319889Y216157D01*
X319844Y216180D01*
X319679Y216230D01*
X319515Y216288D01*
X319465Y216296D01*
X319417Y216311D01*
X319245Y216331D01*
X319074Y216359D01*
X319023Y216358D01*
X318974Y216364D01*
X318800Y216353D01*
X318627Y216350D01*
X318578Y216340D01*
X318528Y216337D01*
X318359Y216296D01*
X318189Y216262D01*
X318143Y216243D01*
X318094Y216231D01*
X317935Y216161D01*
X317774Y216097D01*
X317731Y216070D01*
X317686Y216050D01*
X317542Y215952D01*
X317395Y215861D01*
X317358Y215827D01*
X317316Y215799D01*
X317133Y215633D01*
X313682Y212182D01*
X308827Y210171D01*
X303573Y210171D01*
X298718Y212182D01*
X295267Y215633D01*
X295229Y215665D01*
X295195Y215702D01*
X295058Y215808D01*
X294924Y215919D01*
X294881Y215944D01*
X294841Y215974D01*
X294687Y216054D01*
X294536Y216140D01*
X294489Y216157D01*
X294444Y216180D01*
X294279Y216230D01*
X294115Y216288D01*
X294065Y216296D01*
X294017Y216311D01*
X293845Y216331D01*
X293674Y216359D01*
X293623Y216358D01*
X293574Y216364D01*
X293400Y216353D01*
X293227Y216350D01*
X293178Y216340D01*
X293128Y216337D01*
X292959Y216296D01*
X292789Y216262D01*
X292743Y216243D01*
X292694Y216231D01*
X292535Y216161D01*
X292374Y216097D01*
X292331Y216070D01*
X292286Y216050D01*
X292142Y215952D01*
X291995Y215861D01*
X291958Y215827D01*
X291916Y215799D01*
X291733Y215633D01*
X288282Y212182D01*
X283427Y210171D01*
X278173Y210171D01*
X273318Y212182D01*
X269867Y215633D01*
X269829Y215665D01*
X269795Y215702D01*
X269658Y215808D01*
X269524Y215919D01*
X269481Y215944D01*
X269441Y215974D01*
X269287Y216054D01*
X269136Y216140D01*
X269089Y216157D01*
X269044Y216180D01*
X268879Y216230D01*
X268715Y216288D01*
X268665Y216296D01*
X268617Y216311D01*
X268445Y216331D01*
X268274Y216359D01*
X268223Y216358D01*
X268174Y216364D01*
X268000Y216353D01*
X267827Y216350D01*
X267778Y216340D01*
X267728Y216337D01*
X267559Y216296D01*
X267389Y216262D01*
X267343Y216243D01*
X267294Y216231D01*
X267135Y216161D01*
X266974Y216097D01*
X266931Y216070D01*
X266886Y216050D01*
X266742Y215952D01*
X266595Y215861D01*
X266558Y215827D01*
X266516Y215799D01*
X266333Y215633D01*
X262882Y212182D01*
X258027Y210171D01*
X252773Y210171D01*
X247918Y212182D01*
X244467Y215633D01*
X244429Y215665D01*
X244395Y215702D01*
X244258Y215808D01*
X244124Y215919D01*
X244081Y215944D01*
X244041Y215974D01*
X243887Y216054D01*
X243736Y216140D01*
X243689Y216157D01*
X243644Y216180D01*
X243479Y216230D01*
X243315Y216288D01*
X243265Y216296D01*
X243217Y216311D01*
X243045Y216331D01*
X242874Y216359D01*
X242823Y216358D01*
X242774Y216364D01*
X242600Y216353D01*
X242427Y216350D01*
X242378Y216340D01*
X242328Y216337D01*
X242159Y216296D01*
X241989Y216262D01*
X241943Y216243D01*
X241894Y216231D01*
X241735Y216161D01*
X241574Y216097D01*
X241531Y216070D01*
X241486Y216050D01*
X241342Y215952D01*
X241195Y215861D01*
X241158Y215827D01*
X241116Y215799D01*
X240933Y215633D01*
X237482Y212182D01*
X232627Y210171D01*
X227373Y210171D01*
X222518Y212182D01*
X219067Y215633D01*
X219029Y215665D01*
X218995Y215702D01*
X218858Y215808D01*
X218724Y215919D01*
X218681Y215944D01*
X218641Y215974D01*
X218487Y216054D01*
X218336Y216140D01*
X218289Y216157D01*
X218244Y216180D01*
X218079Y216230D01*
X217915Y216288D01*
X217865Y216296D01*
X217817Y216311D01*
X217645Y216331D01*
X217474Y216359D01*
X217423Y216358D01*
X217374Y216364D01*
X217200Y216353D01*
X217027Y216350D01*
X216978Y216340D01*
X216928Y216337D01*
X216759Y216296D01*
X216589Y216262D01*
X216543Y216243D01*
X216494Y216231D01*
X216335Y216161D01*
X216174Y216097D01*
X216131Y216070D01*
X216086Y216050D01*
X215942Y215952D01*
X215795Y215861D01*
X215758Y215827D01*
X215716Y215799D01*
X215533Y215633D01*
X212082Y212182D01*
X207227Y210171D01*
X201973Y210171D01*
X197118Y212182D01*
X193402Y215898D01*
X192512Y218046D01*
X192494Y218080D01*
X192482Y218117D01*
X192391Y218278D01*
X192305Y218442D01*
X192282Y218472D01*
X192262Y218506D01*
X192144Y218649D01*
X192031Y218794D01*
X192002Y218820D01*
X191977Y218850D01*
X191836Y218969D01*
X191698Y219092D01*
X191665Y219113D01*
X191636Y219138D01*
X191476Y219229D01*
X191318Y219326D01*
X191282Y219341D01*
X191248Y219360D01*
X191074Y219422D01*
X190902Y219489D01*
X190864Y219497D01*
X190827Y219510D01*
X190645Y219540D01*
X190464Y219575D01*
X190425Y219576D01*
X190386Y219582D01*
X190202Y219579D01*
X190017Y219582D01*
X189979Y219575D01*
X189940Y219575D01*
X189759Y219539D01*
X189576Y219509D01*
X189540Y219496D01*
X189502Y219488D01*
X189330Y219421D01*
X189156Y219358D01*
X189122Y219339D01*
X189086Y219325D01*
X188928Y219228D01*
X188768Y219136D01*
X188739Y219111D01*
X188706Y219090D01*
X188568Y218966D01*
X188427Y218848D01*
X188402Y218818D01*
X188373Y218792D01*
X188260Y218646D01*
X188142Y218503D01*
X188123Y218469D01*
X188100Y218439D01*
X187977Y218224D01*
X187890Y218055D01*
X186950Y216761D01*
X185819Y215630D01*
X184525Y214690D01*
X183100Y213964D01*
X181739Y213521D01*
X181739Y230960D01*
X181735Y231010D01*
X181737Y231060D01*
X181715Y231231D01*
X181699Y231405D01*
X181686Y231453D01*
X181680Y231503D01*
X181627Y231668D01*
X181581Y231835D01*
X181559Y231881D01*
X181544Y231928D01*
X181463Y232081D01*
X181388Y232238D01*
X181358Y232279D01*
X181335Y232323D01*
X181228Y232459D01*
X181126Y232600D01*
X181090Y232635D01*
X181059Y232674D01*
X180929Y232789D01*
X180804Y232910D01*
X180762Y232937D01*
X180724Y232970D01*
X180576Y233061D01*
X180432Y233157D01*
X180386Y233177D01*
X180343Y233203D01*
X180181Y233265D01*
X180021Y233334D01*
X179973Y233345D01*
X179926Y233363D01*
X179755Y233396D01*
X179586Y233435D01*
X179536Y233437D01*
X179487Y233447D01*
X179240Y233459D01*
X179160Y233459D01*
X179110Y233455D01*
X179060Y233457D01*
X178888Y233435D01*
X178715Y233419D01*
X178667Y233406D01*
X178617Y233399D01*
X178452Y233347D01*
X178284Y233301D01*
X178239Y233279D01*
X178192Y233264D01*
X178038Y233183D01*
X177882Y233107D01*
X177841Y233078D01*
X177797Y233055D01*
X177660Y232947D01*
X177520Y232846D01*
X177485Y232809D01*
X177446Y232778D01*
X177330Y232648D01*
X177210Y232523D01*
X177183Y232482D01*
X177149Y232444D01*
X177059Y232296D01*
X176963Y232151D01*
X176943Y232105D01*
X176917Y232063D01*
X176855Y231901D01*
X176786Y231741D01*
X176775Y231693D01*
X176757Y231646D01*
X176724Y231475D01*
X176685Y231306D01*
X176682Y231256D01*
X176673Y231207D01*
X176661Y230960D01*
X176661Y213521D01*
X175300Y213964D01*
X173875Y214690D01*
X172581Y215630D01*
X171450Y216761D01*
X170510Y218055D01*
X170423Y218224D01*
X170403Y218257D01*
X170387Y218292D01*
X170284Y218446D01*
X170186Y218602D01*
X170160Y218631D01*
X170138Y218663D01*
X170009Y218796D01*
X169885Y218932D01*
X169854Y218956D01*
X169827Y218984D01*
X169677Y219091D01*
X169530Y219203D01*
X169495Y219221D01*
X169464Y219244D01*
X169297Y219323D01*
X169132Y219407D01*
X169095Y219418D01*
X169060Y219435D01*
X168881Y219483D01*
X168705Y219537D01*
X168666Y219541D01*
X168629Y219551D01*
X168444Y219567D01*
X168261Y219588D01*
X168222Y219585D01*
X168184Y219589D01*
X167999Y219571D01*
X167815Y219559D01*
X167777Y219550D01*
X167739Y219546D01*
X167561Y219497D01*
X167382Y219452D01*
X167346Y219436D01*
X167309Y219426D01*
X167143Y219345D01*
X166974Y219269D01*
X166942Y219247D01*
X166907Y219230D01*
X166758Y219121D01*
X166605Y219017D01*
X166578Y218990D01*
X166547Y218967D01*
X166419Y218832D01*
X166288Y218703D01*
X166266Y218671D01*
X166239Y218643D01*
X166137Y218488D01*
X166031Y218337D01*
X166015Y218302D01*
X165993Y218270D01*
X165888Y218046D01*
X164998Y215898D01*
X161282Y212182D01*
X156427Y210171D01*
X151173Y210171D01*
X146318Y212182D01*
X142602Y215898D01*
X140958Y219868D01*
X140955Y219874D01*
X140953Y219880D01*
X140851Y220072D01*
X140750Y220264D01*
X140746Y220269D01*
X140743Y220275D01*
X140610Y220445D01*
X140476Y220617D01*
X140471Y220621D01*
X140467Y220626D01*
X140305Y220770D01*
X140143Y220915D01*
X140138Y220918D01*
X140133Y220923D01*
X139949Y221035D01*
X139763Y221149D01*
X139757Y221151D01*
X139751Y221155D01*
X139549Y221233D01*
X139347Y221312D01*
X139341Y221313D01*
X139334Y221315D01*
X139120Y221356D01*
X138909Y221398D01*
X138902Y221398D01*
X138896Y221399D01*
X138649Y221411D01*
X131307Y221411D01*
X131121Y221395D01*
X130935Y221383D01*
X130899Y221375D01*
X130862Y221371D01*
X130682Y221322D01*
X130501Y221278D01*
X130467Y221263D01*
X130431Y221253D01*
X130263Y221172D01*
X130093Y221096D01*
X130062Y221076D01*
X130029Y221060D01*
X129878Y220950D01*
X129723Y220845D01*
X129686Y220811D01*
X129667Y220798D01*
X129641Y220771D01*
X129540Y220679D01*
X80321Y171460D01*
X80201Y171317D01*
X80077Y171177D01*
X80058Y171146D01*
X80034Y171117D01*
X79942Y170955D01*
X79845Y170796D01*
X79832Y170761D01*
X79814Y170729D01*
X79752Y170553D01*
X79685Y170379D01*
X79678Y170343D01*
X79665Y170308D01*
X79636Y170123D01*
X79601Y169940D01*
X79598Y169890D01*
X79595Y169867D01*
X79596Y169830D01*
X79589Y169693D01*
X79589Y82507D01*
X79605Y82321D01*
X79617Y82135D01*
X79625Y82099D01*
X79629Y82062D01*
X79678Y81882D01*
X79722Y81701D01*
X79737Y81667D01*
X79747Y81631D01*
X79828Y81463D01*
X79904Y81293D01*
X79924Y81262D01*
X79940Y81229D01*
X80050Y81078D01*
X80155Y80923D01*
X80189Y80886D01*
X80202Y80867D01*
X80229Y80841D01*
X80321Y80740D01*
X125740Y35321D01*
X125883Y35201D01*
X126023Y35077D01*
X126054Y35058D01*
X126083Y35034D01*
X126245Y34942D01*
X126404Y34845D01*
X126439Y34832D01*
X126471Y34814D01*
X126647Y34752D01*
X126821Y34685D01*
X126857Y34678D01*
X126892Y34665D01*
X127077Y34636D01*
X127260Y34601D01*
X127310Y34598D01*
X127333Y34595D01*
X127370Y34596D01*
X127507Y34589D01*
X450617Y34589D01*
X450685Y34595D01*
X450753Y34592D01*
X450906Y34615D01*
X451061Y34629D01*
X451127Y34647D01*
X451195Y34657D01*
X451342Y34706D01*
X451492Y34747D01*
X451554Y34777D01*
X451618Y34798D01*
X451755Y34873D01*
X451895Y34940D01*
X451950Y34980D01*
X452010Y35013D01*
X452208Y35161D01*
X500821Y75327D01*
X500829Y75334D01*
X500997Y75486D01*
X501939Y76429D01*
X502026Y76465D01*
X502048Y76476D01*
X502072Y76484D01*
X502246Y76580D01*
X502422Y76672D01*
X502441Y76687D01*
X502463Y76699D01*
X502662Y76847D01*
X502734Y76907D01*
X504009Y77298D01*
X504019Y77302D01*
X504232Y77378D01*
X505464Y77889D01*
X505558Y77889D01*
X505582Y77891D01*
X505607Y77889D01*
X505804Y77911D01*
X506002Y77929D01*
X506026Y77935D01*
X506051Y77938D01*
X506291Y77999D01*
X506381Y78026D01*
X507708Y77900D01*
X507719Y77900D01*
X507945Y77889D01*
X567254Y77889D01*
X567440Y77905D01*
X567626Y77917D01*
X567662Y77925D01*
X567698Y77929D01*
X567879Y77978D01*
X568060Y78022D01*
X568093Y78037D01*
X568129Y78047D01*
X568298Y78128D01*
X568468Y78204D01*
X568498Y78224D01*
X568532Y78240D01*
X568683Y78350D01*
X568837Y78455D01*
X568875Y78489D01*
X568894Y78502D01*
X568919Y78529D01*
X569021Y78621D01*
X569898Y79498D01*
X574753Y81509D01*
X595247Y81509D01*
X600102Y79498D01*
X603818Y75782D01*
X605829Y70927D01*
X605829Y65673D01*
X603818Y60818D01*
X600367Y57367D01*
X600335Y57329D01*
X600298Y57295D01*
X600192Y57157D01*
X600081Y57024D01*
X600056Y56981D01*
X600026Y56941D01*
X599946Y56787D01*
X599860Y56636D01*
X599843Y56589D01*
X599820Y56544D01*
X599770Y56379D01*
X599712Y56215D01*
X599704Y56165D01*
X599689Y56117D01*
X599669Y55945D01*
X599641Y55774D01*
X599642Y55724D01*
X599636Y55674D01*
X599647Y55500D01*
X599650Y55327D01*
X599660Y55278D01*
X599663Y55228D01*
X599704Y55059D01*
X599738Y54889D01*
X599757Y54843D01*
X599769Y54794D01*
X599839Y54635D01*
X599903Y54474D01*
X599930Y54431D01*
X599950Y54386D01*
X600048Y54242D01*
X600139Y54095D01*
X600173Y54058D01*
X600201Y54016D01*
X600367Y53833D01*
X603818Y50382D01*
X605829Y45527D01*
X605829Y40273D01*
X603818Y35418D01*
X600367Y31967D01*
X600335Y31929D01*
X600298Y31895D01*
X600192Y31757D01*
X600081Y31624D01*
X600056Y31581D01*
X600026Y31541D01*
X599946Y31387D01*
X599860Y31236D01*
X599843Y31189D01*
X599820Y31144D01*
X599770Y30979D01*
X599712Y30815D01*
X599704Y30765D01*
X599689Y30717D01*
X599669Y30545D01*
X599641Y30374D01*
X599642Y30324D01*
X599636Y30274D01*
X599647Y30100D01*
X599650Y29927D01*
X599660Y29878D01*
X599663Y29828D01*
X599704Y29659D01*
X599738Y29489D01*
X599757Y29443D01*
X599769Y29394D01*
X599839Y29235D01*
X599903Y29074D01*
X599930Y29031D01*
X599950Y28986D01*
X600048Y28842D01*
X600139Y28695D01*
X600173Y28658D01*
X600201Y28616D01*
X600367Y28433D01*
X603818Y24982D01*
X605829Y20127D01*
X605829Y14873D01*
X603818Y10018D01*
X600367Y6567D01*
X600335Y6529D01*
X600298Y6495D01*
X600192Y6357D01*
X600081Y6224D01*
X600056Y6181D01*
X600026Y6141D01*
X599946Y5987D01*
X599860Y5836D01*
X599843Y5789D01*
X599820Y5744D01*
X599770Y5579D01*
X599712Y5415D01*
X599704Y5365D01*
X599689Y5317D01*
X599669Y5145D01*
X599641Y4974D01*
X599642Y4924D01*
X599636Y4874D01*
X599647Y4700D01*
X599650Y4527D01*
X599660Y4478D01*
X599663Y4428D01*
X599704Y4259D01*
X599738Y4089D01*
X599757Y4043D01*
X599769Y3994D01*
X599839Y3835D01*
X599903Y3674D01*
X599930Y3631D01*
X599950Y3586D01*
X600048Y3442D01*
X600139Y3295D01*
X600173Y3258D01*
X600201Y3216D01*
X600367Y3033D01*
X603818Y-418D01*
X605829Y-5273D01*
X605829Y-10527D01*
X603818Y-15382D01*
X600102Y-19098D01*
X597954Y-19988D01*
X597920Y-20006D01*
X597883Y-20018D01*
X597722Y-20109D01*
X597558Y-20195D01*
X597528Y-20219D01*
X597494Y-20238D01*
X597352Y-20355D01*
X597206Y-20469D01*
X597180Y-20498D01*
X597150Y-20523D01*
X597031Y-20664D01*
X596908Y-20802D01*
X596887Y-20835D01*
X596862Y-20864D01*
X596770Y-21025D01*
X596674Y-21182D01*
X596659Y-21218D01*
X596640Y-21252D01*
X596578Y-21426D01*
X596511Y-21598D01*
X596503Y-21636D01*
X596490Y-21673D01*
X596460Y-21855D01*
X596425Y-22036D01*
X596424Y-22075D01*
X596418Y-22113D01*
X596421Y-22298D01*
X596418Y-22483D01*
X596425Y-22521D01*
X596425Y-22560D01*
X596461Y-22741D01*
X596491Y-22924D01*
X596504Y-22960D01*
X596512Y-22998D01*
X596579Y-23170D01*
X596642Y-23344D01*
X596661Y-23378D01*
X596675Y-23414D01*
X596772Y-23571D01*
X596864Y-23732D01*
X596889Y-23761D01*
X596910Y-23794D01*
X597033Y-23932D01*
X597153Y-24073D01*
X597182Y-24098D01*
X597208Y-24126D01*
X597355Y-24240D01*
X597497Y-24358D01*
X597531Y-24376D01*
X597561Y-24400D01*
X597776Y-24523D01*
X597945Y-24610D01*
X599239Y-25550D01*
X600370Y-26681D01*
X601310Y-27975D01*
X602036Y-29400D01*
X602479Y-30761D01*
X585040Y-30761D01*
X585012Y-30763D01*
X584960Y-30761D01*
X567521Y-30761D01*
X567964Y-29400D01*
X568690Y-27975D01*
X569630Y-26681D01*
X570761Y-25550D01*
X572055Y-24610D01*
X572224Y-24523D01*
X572257Y-24503D01*
X572292Y-24487D01*
X572446Y-24384D01*
X572602Y-24286D01*
X572631Y-24260D01*
X572663Y-24238D01*
X572796Y-24109D01*
X572932Y-23985D01*
X572956Y-23954D01*
X572984Y-23927D01*
X573092Y-23776D01*
X573203Y-23630D01*
X573221Y-23595D01*
X573244Y-23564D01*
X573323Y-23396D01*
X573407Y-23232D01*
X573418Y-23195D01*
X573435Y-23160D01*
X573483Y-22981D01*
X573537Y-22805D01*
X573541Y-22766D01*
X573551Y-22729D01*
X573567Y-22544D01*
X573588Y-22361D01*
X573585Y-22322D01*
X573589Y-22284D01*
X573571Y-22100D01*
X573559Y-21915D01*
X573550Y-21877D01*
X573546Y-21839D01*
X573497Y-21661D01*
X573452Y-21481D01*
X573436Y-21446D01*
X573426Y-21409D01*
X573345Y-21242D01*
X573269Y-21074D01*
X573247Y-21042D01*
X573230Y-21007D01*
X573121Y-20858D01*
X573017Y-20705D01*
X572990Y-20678D01*
X572967Y-20647D01*
X572833Y-20519D01*
X572703Y-20388D01*
X572671Y-20365D01*
X572643Y-20339D01*
X572488Y-20237D01*
X572337Y-20131D01*
X572302Y-20115D01*
X572270Y-20093D01*
X572046Y-19988D01*
X569898Y-19098D01*
X566182Y-15382D01*
X564171Y-10527D01*
X564171Y-5273D01*
X566182Y-418D01*
X569633Y3033D01*
X569665Y3071D01*
X569702Y3105D01*
X569808Y3242D01*
X569919Y3376D01*
X569944Y3419D01*
X569974Y3459D01*
X570054Y3613D01*
X570140Y3764D01*
X570157Y3811D01*
X570180Y3856D01*
X570230Y4021D01*
X570288Y4185D01*
X570296Y4235D01*
X570311Y4283D01*
X570331Y4455D01*
X570359Y4626D01*
X570358Y4677D01*
X570364Y4726D01*
X570353Y4900D01*
X570350Y5073D01*
X570340Y5122D01*
X570337Y5172D01*
X570296Y5341D01*
X570262Y5511D01*
X570243Y5557D01*
X570231Y5606D01*
X570161Y5765D01*
X570097Y5926D01*
X570070Y5969D01*
X570050Y6014D01*
X569952Y6158D01*
X569861Y6305D01*
X569827Y6342D01*
X569799Y6384D01*
X569633Y6567D01*
X566182Y10018D01*
X564171Y14873D01*
X564171Y20127D01*
X566182Y24982D01*
X569633Y28433D01*
X569665Y28471D01*
X569702Y28505D01*
X569808Y28642D01*
X569919Y28776D01*
X569944Y28819D01*
X569974Y28859D01*
X570054Y29013D01*
X570140Y29164D01*
X570157Y29211D01*
X570180Y29256D01*
X570230Y29421D01*
X570288Y29585D01*
X570296Y29635D01*
X570311Y29683D01*
X570331Y29855D01*
X570359Y30026D01*
X570358Y30077D01*
X570364Y30126D01*
X570353Y30300D01*
X570350Y30473D01*
X570340Y30522D01*
X570337Y30572D01*
X570296Y30741D01*
X570262Y30911D01*
X570243Y30957D01*
X570231Y31006D01*
X570161Y31165D01*
X570097Y31326D01*
X570070Y31369D01*
X570050Y31414D01*
X569952Y31558D01*
X569861Y31705D01*
X569827Y31742D01*
X569799Y31784D01*
X569633Y31967D01*
X566182Y35418D01*
X564171Y40273D01*
X564171Y45527D01*
X566182Y50382D01*
X569633Y53833D01*
X569665Y53871D01*
X569702Y53905D01*
X569808Y54042D01*
X569919Y54176D01*
X569944Y54219D01*
X569974Y54259D01*
X570054Y54413D01*
X570140Y54564D01*
X570157Y54611D01*
X570180Y54656D01*
X570230Y54821D01*
X570288Y54985D01*
X570296Y55035D01*
X570311Y55083D01*
X570331Y55255D01*
X570359Y55426D01*
X570358Y55476D01*
X570364Y55526D01*
X570353Y55700D01*
X570350Y55873D01*
X570340Y55922D01*
X570337Y55972D01*
X570296Y56141D01*
X570262Y56311D01*
X570243Y56357D01*
X570231Y56406D01*
X570161Y56565D01*
X570097Y56726D01*
X570070Y56769D01*
X570050Y56814D01*
X569952Y56958D01*
X569861Y57105D01*
X569827Y57142D01*
X569799Y57184D01*
X569633Y57367D01*
X569021Y57979D01*
X568878Y58099D01*
X568738Y58223D01*
X568706Y58242D01*
X568678Y58266D01*
X568516Y58358D01*
X568356Y58455D01*
X568322Y58468D01*
X568290Y58486D01*
X568114Y58548D01*
X567940Y58615D01*
X567903Y58622D01*
X567868Y58635D01*
X567684Y58664D01*
X567501Y58699D01*
X567450Y58702D01*
X567427Y58705D01*
X567390Y58704D01*
X567254Y58711D01*
X511719Y58711D01*
X511651Y58705D01*
X511583Y58708D01*
X511429Y58685D01*
X511274Y58671D01*
X511208Y58653D01*
X511140Y58643D01*
X510993Y58594D01*
X510843Y58553D01*
X510782Y58523D01*
X510717Y58502D01*
X510581Y58427D01*
X510440Y58360D01*
X510385Y58320D01*
X510325Y58287D01*
X510127Y58139D01*
X461514Y17973D01*
X461506Y17966D01*
X461339Y17814D01*
X460396Y16871D01*
X460309Y16835D01*
X460287Y16824D01*
X460264Y16816D01*
X460089Y16720D01*
X459913Y16628D01*
X459894Y16613D01*
X459872Y16601D01*
X459674Y16453D01*
X459601Y16393D01*
X458327Y16002D01*
X458317Y15998D01*
X458104Y15922D01*
X456872Y15411D01*
X456778Y15411D01*
X456753Y15409D01*
X456728Y15411D01*
X456532Y15389D01*
X456333Y15371D01*
X456309Y15365D01*
X456284Y15362D01*
X456044Y15301D01*
X455955Y15274D01*
X454627Y15400D01*
X454616Y15400D01*
X454391Y15411D01*
X387660Y15411D01*
X387610Y15407D01*
X387560Y15409D01*
X387388Y15387D01*
X387215Y15371D01*
X387167Y15358D01*
X387117Y15352D01*
X386952Y15299D01*
X386784Y15253D01*
X386739Y15231D01*
X386692Y15216D01*
X386538Y15135D01*
X386382Y15060D01*
X386341Y15030D01*
X386297Y15007D01*
X386160Y14900D01*
X386020Y14798D01*
X385985Y14762D01*
X385946Y14731D01*
X385830Y14601D01*
X385710Y14476D01*
X385683Y14434D01*
X385649Y14396D01*
X385559Y14248D01*
X385463Y14104D01*
X385443Y14058D01*
X385417Y14015D01*
X385355Y13853D01*
X385286Y13693D01*
X385275Y13645D01*
X385257Y13598D01*
X385224Y13427D01*
X385185Y13258D01*
X385182Y13208D01*
X385173Y13159D01*
X385161Y12912D01*
X385161Y8819D01*
X383614Y5084D01*
X380756Y2226D01*
X377021Y679D01*
X372979Y679D01*
X369179Y2253D01*
X369169Y2263D01*
X369137Y2282D01*
X369108Y2306D01*
X368947Y2398D01*
X368787Y2495D01*
X368752Y2508D01*
X368720Y2526D01*
X368544Y2588D01*
X368370Y2655D01*
X368334Y2662D01*
X368299Y2675D01*
X368114Y2704D01*
X367931Y2739D01*
X367881Y2742D01*
X367858Y2745D01*
X367821Y2744D01*
X367684Y2751D01*
X362566Y2751D01*
X362380Y2735D01*
X362194Y2723D01*
X362158Y2715D01*
X362121Y2711D01*
X361940Y2662D01*
X361760Y2618D01*
X361726Y2603D01*
X361690Y2593D01*
X361522Y2512D01*
X361351Y2436D01*
X361321Y2416D01*
X361287Y2400D01*
X361136Y2290D01*
X360982Y2185D01*
X360944Y2151D01*
X360925Y2138D01*
X360900Y2111D01*
X360798Y2019D01*
X351922Y-6857D01*
X348949Y-8089D01*
X103391Y-8089D01*
X100418Y-6857D01*
X97792Y-4231D01*
X97791Y-4230D01*
X48270Y45291D01*
X45643Y47918D01*
X44411Y50891D01*
X44411Y194109D01*
X45643Y197082D01*
X112918Y264357D01*
X115891Y265589D01*
X117557Y265589D01*
X117736Y265605D01*
X117916Y265615D01*
X117959Y265625D01*
X118002Y265629D01*
X118176Y265676D01*
X118351Y265718D01*
X118391Y265736D01*
X118433Y265747D01*
X118595Y265825D01*
X118760Y265897D01*
X118796Y265922D01*
X118835Y265940D01*
X118982Y266046D01*
X119131Y266146D01*
X119162Y266177D01*
X119197Y266202D01*
X119322Y266332D01*
X119451Y266458D01*
X119477Y266493D01*
X119507Y266524D01*
X119606Y266674D01*
X119711Y266821D01*
X119730Y266860D01*
X119754Y266896D01*
X119825Y267062D01*
X119902Y267225D01*
X119914Y267267D01*
X119931Y267307D01*
X119972Y267481D01*
X120019Y267656D01*
X120022Y267699D01*
X120032Y267742D01*
X120041Y267921D01*
X120056Y268101D01*
X120052Y268144D01*
X120054Y268188D01*
X120031Y268366D01*
X120014Y268546D01*
X120002Y268588D01*
X119997Y268631D01*
X119942Y268802D01*
X119893Y268976D01*
X119874Y269015D01*
X119861Y269056D01*
X119777Y269215D01*
X119698Y269377D01*
X119672Y269413D01*
X119652Y269451D01*
X119541Y269592D01*
X119434Y269738D01*
X119403Y269768D01*
X119376Y269802D01*
X119241Y269922D01*
X119111Y270046D01*
X119074Y270070D01*
X119042Y270099D01*
X118888Y270192D01*
X118737Y270291D01*
X118683Y270317D01*
X118660Y270331D01*
X118625Y270344D01*
X118514Y270397D01*
X116618Y271182D01*
X113167Y274633D01*
X113129Y274665D01*
X113095Y274702D01*
X112958Y274808D01*
X112824Y274919D01*
X112781Y274944D01*
X112741Y274974D01*
X112587Y275054D01*
X112436Y275140D01*
X112389Y275157D01*
X112344Y275180D01*
X112179Y275230D01*
X112015Y275288D01*
X111965Y275296D01*
X111917Y275311D01*
X111745Y275331D01*
X111574Y275359D01*
X111523Y275358D01*
X111474Y275364D01*
X111300Y275353D01*
X111127Y275350D01*
X111078Y275340D01*
X111028Y275337D01*
X110859Y275296D01*
X110689Y275262D01*
X110643Y275243D01*
X110594Y275231D01*
X110435Y275161D01*
X110274Y275097D01*
X110231Y275070D01*
X110186Y275050D01*
X110042Y274952D01*
X109895Y274861D01*
X109858Y274827D01*
X109816Y274799D01*
X109633Y274633D01*
X106182Y271182D01*
X101327Y269171D01*
X96073Y269171D01*
X91218Y271182D01*
X87502Y274898D01*
X85491Y279753D01*
X85491Y300247D01*
X87502Y305102D01*
X91218Y308818D01*
X96073Y310829D01*
X101327Y310829D01*
X106182Y308818D01*
X109633Y305367D01*
X109671Y305335D01*
X109705Y305298D01*
X109843Y305192D01*
X109976Y305081D01*
X110019Y305056D01*
X110059Y305026D01*
X110213Y304946D01*
X110364Y304860D01*
X110411Y304843D01*
X110456Y304820D01*
X110621Y304770D01*
X110785Y304712D01*
X110835Y304704D01*
X110883Y304689D01*
X111055Y304669D01*
X111226Y304641D01*
X111276Y304642D01*
X111326Y304636D01*
X111500Y304647D01*
X111673Y304650D01*
X111722Y304660D01*
X111772Y304663D01*
X111941Y304704D01*
X112111Y304738D01*
X112157Y304757D01*
X112206Y304769D01*
X112365Y304839D01*
X112526Y304903D01*
X112569Y304930D01*
X112614Y304950D01*
X112758Y305048D01*
X112905Y305139D01*
X112942Y305173D01*
X112984Y305201D01*
X113167Y305367D01*
X116618Y308818D01*
X121473Y310829D01*
X126727Y310829D01*
X131582Y308818D01*
X135033Y305367D01*
X135071Y305335D01*
X135105Y305298D01*
X135243Y305192D01*
X135376Y305081D01*
X135419Y305056D01*
X135459Y305026D01*
X135613Y304946D01*
X135764Y304860D01*
X135811Y304843D01*
X135856Y304820D01*
X136021Y304770D01*
X136185Y304712D01*
X136235Y304704D01*
X136283Y304689D01*
X136455Y304669D01*
X136626Y304641D01*
X136676Y304642D01*
X136726Y304636D01*
X136900Y304647D01*
X137073Y304650D01*
X137122Y304660D01*
X137172Y304663D01*
X137341Y304704D01*
X137511Y304738D01*
X137557Y304757D01*
X137606Y304769D01*
X137765Y304839D01*
X137926Y304903D01*
X137969Y304930D01*
X138014Y304950D01*
X138158Y305048D01*
X138305Y305139D01*
X138342Y305173D01*
X138384Y305201D01*
X138567Y305367D01*
X142018Y308818D01*
X146873Y310829D01*
X152127Y310829D01*
X156982Y308818D01*
X160433Y305367D01*
X160471Y305335D01*
X160505Y305298D01*
X160643Y305192D01*
X160776Y305081D01*
X160819Y305056D01*
X160859Y305026D01*
X161013Y304946D01*
X161164Y304860D01*
X161211Y304843D01*
X161256Y304820D01*
X161421Y304770D01*
X161585Y304712D01*
X161635Y304704D01*
X161683Y304689D01*
X161855Y304669D01*
X162026Y304641D01*
X162076Y304642D01*
X162126Y304636D01*
X162300Y304647D01*
X162473Y304650D01*
X162522Y304660D01*
X162572Y304663D01*
X162741Y304704D01*
X162911Y304738D01*
X162957Y304757D01*
X163006Y304769D01*
X163165Y304839D01*
X163326Y304903D01*
X163369Y304930D01*
X163414Y304950D01*
X163558Y305048D01*
X163705Y305139D01*
X163742Y305173D01*
X163784Y305201D01*
X163967Y305367D01*
X167418Y308818D01*
X172273Y310829D01*
X177527Y310829D01*
X182382Y308818D01*
X185833Y305367D01*
X185871Y305335D01*
X185905Y305298D01*
X186043Y305192D01*
X186176Y305081D01*
X186219Y305056D01*
X186259Y305026D01*
X186413Y304946D01*
X186564Y304860D01*
X186611Y304843D01*
X186656Y304820D01*
X186821Y304770D01*
X186985Y304712D01*
X187035Y304704D01*
X187083Y304689D01*
X187255Y304669D01*
X187426Y304641D01*
X187476Y304642D01*
X187526Y304636D01*
X187700Y304647D01*
X187873Y304650D01*
X187922Y304660D01*
X187972Y304663D01*
X188141Y304704D01*
X188311Y304738D01*
X188357Y304757D01*
X188406Y304769D01*
X188565Y304839D01*
X188726Y304903D01*
X188769Y304930D01*
X188814Y304950D01*
X188958Y305048D01*
X189105Y305139D01*
X189142Y305173D01*
X189184Y305201D01*
X189367Y305367D01*
X192818Y308818D01*
X197673Y310829D01*
X202927Y310829D01*
X207782Y308818D01*
X211233Y305367D01*
X211271Y305335D01*
X211305Y305298D01*
X211443Y305192D01*
X211576Y305081D01*
X211619Y305056D01*
X211659Y305026D01*
X211813Y304946D01*
X211964Y304860D01*
X212011Y304843D01*
X212056Y304820D01*
X212221Y304770D01*
X212385Y304712D01*
X212435Y304704D01*
X212483Y304689D01*
X212655Y304669D01*
X212826Y304641D01*
X212876Y304642D01*
X212926Y304636D01*
X213100Y304647D01*
X213273Y304650D01*
X213322Y304660D01*
X213372Y304663D01*
X213541Y304704D01*
X213711Y304738D01*
X213757Y304757D01*
X213806Y304769D01*
X213965Y304839D01*
X214126Y304903D01*
X214169Y304930D01*
X214214Y304950D01*
X214358Y305048D01*
X214505Y305139D01*
X214542Y305173D01*
X214584Y305201D01*
X214767Y305367D01*
X218218Y308818D01*
X223073Y310829D01*
X228327Y310829D01*
X233182Y308818D01*
X236633Y305367D01*
X236671Y305335D01*
X236705Y305298D01*
X236843Y305192D01*
X236976Y305081D01*
X237019Y305056D01*
X237059Y305026D01*
X237213Y304946D01*
X237364Y304860D01*
X237411Y304843D01*
X237456Y304820D01*
X237621Y304770D01*
X237785Y304712D01*
X237835Y304704D01*
X237883Y304689D01*
X238055Y304669D01*
X238226Y304641D01*
X238276Y304642D01*
X238326Y304636D01*
X238500Y304647D01*
X238673Y304650D01*
X238722Y304660D01*
X238772Y304663D01*
X238941Y304704D01*
X239111Y304738D01*
X239157Y304757D01*
X239206Y304769D01*
X239365Y304839D01*
X239526Y304903D01*
X239569Y304930D01*
X239614Y304950D01*
X239758Y305048D01*
X239905Y305139D01*
X239942Y305173D01*
X239984Y305201D01*
X240167Y305367D01*
X243618Y308818D01*
X248473Y310829D01*
X253727Y310829D01*
X258582Y308818D01*
X262033Y305367D01*
X262071Y305335D01*
X262105Y305298D01*
X262243Y305192D01*
X262376Y305081D01*
X262419Y305056D01*
X262459Y305026D01*
X262613Y304946D01*
X262764Y304860D01*
X262811Y304843D01*
X262856Y304820D01*
X263021Y304770D01*
X263185Y304712D01*
X263235Y304704D01*
X263283Y304689D01*
X263455Y304669D01*
X263626Y304641D01*
X263676Y304642D01*
X263726Y304636D01*
X263900Y304647D01*
X264073Y304650D01*
X264122Y304660D01*
X264172Y304663D01*
X264341Y304704D01*
X264511Y304738D01*
X264557Y304757D01*
X264606Y304769D01*
X264765Y304839D01*
X264926Y304903D01*
X264969Y304930D01*
X265014Y304950D01*
X265158Y305048D01*
X265305Y305139D01*
X265342Y305173D01*
X265384Y305201D01*
X265567Y305367D01*
X269018Y308818D01*
X273873Y310829D01*
X279127Y310829D01*
X283982Y308818D01*
X287433Y305367D01*
X287471Y305335D01*
X287505Y305298D01*
X287643Y305192D01*
X287776Y305081D01*
X287819Y305056D01*
X287859Y305026D01*
X288013Y304946D01*
X288164Y304860D01*
X288211Y304843D01*
X288256Y304820D01*
X288421Y304770D01*
X288585Y304712D01*
X288635Y304704D01*
X288683Y304689D01*
X288855Y304669D01*
X289026Y304641D01*
X289076Y304642D01*
X289126Y304636D01*
X289300Y304647D01*
X289473Y304650D01*
X289522Y304660D01*
X289572Y304663D01*
X289741Y304704D01*
X289911Y304738D01*
X289957Y304757D01*
X290006Y304769D01*
X290165Y304839D01*
X290326Y304903D01*
X290369Y304930D01*
X290414Y304950D01*
X290558Y305048D01*
X290705Y305139D01*
X290742Y305173D01*
X290784Y305201D01*
X290967Y305367D01*
X294418Y308818D01*
X299273Y310829D01*
X304527Y310829D01*
X309382Y308818D01*
X312833Y305367D01*
X312871Y305335D01*
X312905Y305298D01*
X313043Y305192D01*
X313176Y305081D01*
X313219Y305056D01*
X313259Y305026D01*
X313413Y304946D01*
X313564Y304860D01*
X313611Y304843D01*
X313656Y304820D01*
X313821Y304770D01*
X313985Y304712D01*
X314035Y304704D01*
X314083Y304689D01*
X314255Y304669D01*
X314426Y304641D01*
X314476Y304642D01*
X314526Y304636D01*
X314700Y304647D01*
X314873Y304650D01*
X314922Y304660D01*
X314972Y304663D01*
X315141Y304704D01*
X315311Y304738D01*
X315357Y304757D01*
X315406Y304769D01*
X315565Y304839D01*
X315726Y304903D01*
X315769Y304930D01*
X315814Y304950D01*
X315958Y305048D01*
X316105Y305139D01*
X316142Y305173D01*
X316184Y305201D01*
X316367Y305367D01*
X319818Y308818D01*
X324673Y310829D01*
X329927Y310829D01*
X334782Y308818D01*
X338233Y305367D01*
X338271Y305335D01*
X338305Y305298D01*
X338443Y305192D01*
X338576Y305081D01*
X338619Y305056D01*
X338659Y305026D01*
X338813Y304946D01*
X338964Y304860D01*
X339011Y304843D01*
X339056Y304820D01*
X339221Y304770D01*
X339385Y304712D01*
X339435Y304704D01*
X339483Y304689D01*
X339655Y304669D01*
X339826Y304641D01*
X339876Y304642D01*
X339926Y304636D01*
X340100Y304647D01*
X340273Y304650D01*
X340322Y304660D01*
X340372Y304663D01*
X340541Y304704D01*
X340711Y304738D01*
X340757Y304757D01*
X340806Y304769D01*
X340965Y304839D01*
X341126Y304903D01*
X341169Y304930D01*
X341214Y304950D01*
X341358Y305048D01*
X341505Y305139D01*
X341542Y305173D01*
X341584Y305201D01*
X341767Y305367D01*
X345218Y308818D01*
X350073Y310829D01*
X355327Y310829D01*
X360182Y308818D01*
X363633Y305367D01*
X363671Y305335D01*
X363705Y305298D01*
X363843Y305192D01*
X363976Y305081D01*
X364019Y305056D01*
X364059Y305026D01*
X364213Y304946D01*
X364364Y304860D01*
X364411Y304843D01*
X364456Y304820D01*
X364621Y304770D01*
X364785Y304712D01*
X364835Y304704D01*
X364883Y304689D01*
X365055Y304669D01*
X365226Y304641D01*
X365276Y304642D01*
X365326Y304636D01*
X365500Y304647D01*
X365673Y304650D01*
X365722Y304660D01*
X365772Y304663D01*
X365941Y304704D01*
X366111Y304738D01*
X366157Y304757D01*
X366206Y304769D01*
X366365Y304839D01*
X366526Y304903D01*
X366569Y304930D01*
X366614Y304950D01*
X366758Y305048D01*
X366905Y305139D01*
X366942Y305173D01*
X366984Y305201D01*
X367167Y305367D01*
X370618Y308818D01*
X375473Y310829D01*
X380727Y310829D01*
X385582Y308818D01*
X389033Y305367D01*
X389071Y305335D01*
X389105Y305298D01*
X389243Y305192D01*
X389376Y305081D01*
X389419Y305056D01*
X389459Y305026D01*
X389613Y304946D01*
X389764Y304860D01*
X389811Y304843D01*
X389856Y304820D01*
X390021Y304770D01*
X390185Y304712D01*
X390235Y304704D01*
X390283Y304689D01*
X390455Y304669D01*
X390626Y304641D01*
X390676Y304642D01*
X390726Y304636D01*
X390900Y304647D01*
X391073Y304650D01*
X391122Y304660D01*
X391172Y304663D01*
X391341Y304704D01*
X391511Y304738D01*
X391557Y304757D01*
X391606Y304769D01*
X391765Y304839D01*
X391926Y304903D01*
X391969Y304930D01*
X392014Y304950D01*
X392158Y305048D01*
X392305Y305139D01*
X392342Y305173D01*
X392384Y305201D01*
X392567Y305367D01*
X396018Y308818D01*
X400873Y310829D01*
X406127Y310829D01*
X410982Y308818D01*
X414433Y305367D01*
X414471Y305335D01*
X414505Y305298D01*
X414643Y305192D01*
X414776Y305081D01*
X414819Y305056D01*
X414859Y305026D01*
X415013Y304946D01*
X415164Y304860D01*
X415211Y304843D01*
X415256Y304820D01*
X415421Y304770D01*
X415585Y304712D01*
X415635Y304704D01*
X415683Y304689D01*
X415855Y304669D01*
X416026Y304641D01*
X416076Y304642D01*
X416126Y304636D01*
X416300Y304647D01*
X416473Y304650D01*
X416522Y304660D01*
X416572Y304663D01*
X416741Y304704D01*
X416911Y304738D01*
X416957Y304757D01*
X417006Y304769D01*
X417165Y304839D01*
X417326Y304903D01*
X417369Y304930D01*
X417414Y304950D01*
X417558Y305048D01*
X417705Y305139D01*
X417742Y305173D01*
X417784Y305201D01*
X417967Y305367D01*
X421418Y308818D01*
X426273Y310829D01*
X431527Y310829D01*
X436382Y308818D01*
X439833Y305367D01*
X439871Y305335D01*
X439905Y305298D01*
X440043Y305192D01*
X440176Y305081D01*
X440219Y305056D01*
X440259Y305026D01*
X440413Y304946D01*
X440564Y304860D01*
X440611Y304843D01*
X440656Y304820D01*
X440821Y304770D01*
X440985Y304712D01*
X441035Y304704D01*
X441083Y304689D01*
X441255Y304669D01*
X441426Y304641D01*
X441476Y304642D01*
X441526Y304636D01*
X441700Y304647D01*
X441873Y304650D01*
X441922Y304660D01*
X441972Y304663D01*
X442141Y304704D01*
X442311Y304738D01*
X442357Y304757D01*
X442406Y304769D01*
X442565Y304839D01*
X442726Y304903D01*
X442769Y304930D01*
X442814Y304950D01*
X442958Y305048D01*
X443105Y305139D01*
X443142Y305173D01*
X443184Y305201D01*
X443367Y305367D01*
X446818Y308818D01*
X451673Y310829D01*
X456927Y310829D01*
X461782Y308818D01*
X465233Y305367D01*
X465271Y305335D01*
X465305Y305298D01*
X465443Y305192D01*
X465576Y305081D01*
X465619Y305056D01*
X465659Y305026D01*
X465813Y304946D01*
X465964Y304860D01*
X466011Y304843D01*
X466056Y304820D01*
X466221Y304770D01*
X466385Y304712D01*
X466435Y304704D01*
X466483Y304689D01*
X466655Y304669D01*
X466826Y304641D01*
X466876Y304642D01*
X466926Y304636D01*
X467100Y304647D01*
X467273Y304650D01*
X467322Y304660D01*
X467372Y304663D01*
X467541Y304704D01*
X467711Y304738D01*
X467757Y304757D01*
X467806Y304769D01*
X467965Y304839D01*
X468126Y304903D01*
X468169Y304930D01*
X468214Y304950D01*
X468358Y305048D01*
X468505Y305139D01*
X468542Y305173D01*
X468584Y305201D01*
X468767Y305367D01*
X472218Y308818D01*
X477073Y310829D01*
X482327Y310829D01*
X487182Y308818D01*
X490633Y305367D01*
X490671Y305335D01*
X490705Y305298D01*
X490843Y305192D01*
X490976Y305081D01*
X491019Y305056D01*
X491059Y305026D01*
X491213Y304946D01*
X491364Y304860D01*
X491411Y304843D01*
X491456Y304820D01*
X491621Y304770D01*
X491785Y304712D01*
X491835Y304704D01*
X491883Y304689D01*
X492055Y304669D01*
X492226Y304641D01*
X492276Y304642D01*
X492326Y304636D01*
X492500Y304647D01*
X492673Y304650D01*
X492722Y304660D01*
X492772Y304663D01*
X492941Y304704D01*
X493111Y304738D01*
X493157Y304757D01*
X493206Y304769D01*
X493365Y304839D01*
X493526Y304903D01*
X493569Y304930D01*
X493614Y304950D01*
X493758Y305048D01*
X493905Y305139D01*
X493942Y305173D01*
X493984Y305201D01*
X494167Y305367D01*
X497618Y308818D01*
X502473Y310829D01*
X507727Y310829D01*
X512582Y308818D01*
X516033Y305367D01*
X516071Y305335D01*
X516105Y305298D01*
X516243Y305192D01*
X516376Y305081D01*
X516419Y305056D01*
X516459Y305026D01*
X516613Y304946D01*
X516764Y304860D01*
X516811Y304843D01*
X516856Y304820D01*
X517021Y304770D01*
X517185Y304712D01*
X517235Y304704D01*
X517283Y304689D01*
X517455Y304669D01*
X517626Y304641D01*
X517676Y304642D01*
X517726Y304636D01*
X517900Y304647D01*
X518073Y304650D01*
X518122Y304660D01*
X518172Y304663D01*
X518341Y304704D01*
X518511Y304738D01*
X518557Y304757D01*
X518606Y304769D01*
X518765Y304839D01*
X518926Y304903D01*
X518969Y304930D01*
X519014Y304950D01*
X519158Y305048D01*
X519305Y305139D01*
X519342Y305173D01*
X519384Y305201D01*
X519567Y305367D01*
X523018Y308818D01*
X527873Y310829D01*
X533127Y310829D01*
X537982Y308818D01*
X541433Y305367D01*
X541471Y305335D01*
X541505Y305298D01*
X541643Y305192D01*
X541776Y305081D01*
X541819Y305056D01*
X541859Y305026D01*
X542013Y304946D01*
X542164Y304860D01*
X542211Y304843D01*
X542256Y304820D01*
X542421Y304770D01*
X542585Y304712D01*
X542635Y304704D01*
X542683Y304689D01*
X542855Y304669D01*
X543026Y304641D01*
X543076Y304642D01*
X543126Y304636D01*
X543300Y304647D01*
X543473Y304650D01*
X543522Y304660D01*
X543572Y304663D01*
X543741Y304704D01*
X543911Y304738D01*
X543957Y304757D01*
X544006Y304769D01*
X544165Y304839D01*
X544326Y304903D01*
X544369Y304930D01*
X544414Y304950D01*
X544558Y305048D01*
X544705Y305139D01*
X544742Y305173D01*
X544784Y305201D01*
X544967Y305367D01*
X548418Y308818D01*
X553273Y310829D01*
X558527Y310829D01*
X563382Y308818D01*
X566833Y305367D01*
X566871Y305335D01*
X566905Y305298D01*
X567043Y305192D01*
X567176Y305081D01*
X567219Y305056D01*
X567259Y305026D01*
X567413Y304946D01*
X567564Y304860D01*
X567611Y304843D01*
X567656Y304820D01*
X567821Y304770D01*
X567985Y304712D01*
X568035Y304704D01*
X568083Y304689D01*
X568255Y304669D01*
X568426Y304641D01*
X568476Y304642D01*
X568526Y304636D01*
X568700Y304647D01*
X568873Y304650D01*
X568922Y304660D01*
X568972Y304663D01*
X569141Y304704D01*
X569311Y304738D01*
X569357Y304757D01*
X569406Y304769D01*
X569565Y304839D01*
X569726Y304903D01*
X569769Y304930D01*
X569814Y304950D01*
X569958Y305048D01*
X570105Y305139D01*
X570142Y305173D01*
X570184Y305201D01*
X570367Y305367D01*
X573818Y308818D01*
X575354Y309454D01*
X575437Y309498D01*
X575524Y309532D01*
X575634Y309601D01*
X575750Y309661D01*
X575824Y309719D01*
X575903Y309768D01*
X576000Y309856D01*
X576102Y309936D01*
X576165Y310005D01*
X576234Y310068D01*
X576314Y310171D01*
X576401Y310268D01*
X576450Y310348D01*
X576507Y310422D01*
X576566Y310538D01*
X576635Y310649D01*
X576669Y310736D01*
X576712Y310819D01*
X576750Y310943D01*
X576797Y311065D01*
X576815Y311156D01*
X576843Y311246D01*
X576858Y311375D01*
X576883Y311503D01*
X576885Y311597D01*
X576896Y311689D01*
X576888Y311819D01*
X576890Y311950D01*
X576875Y312042D01*
X576869Y312135D01*
X576838Y312262D01*
X576817Y312390D01*
X576786Y312478D01*
X576763Y312569D01*
X576711Y312688D01*
X576667Y312811D01*
X576620Y312892D01*
X576582Y312977D01*
X576509Y313085D01*
X576444Y313198D01*
X576384Y313270D01*
X576331Y313347D01*
X576165Y313530D01*
X575915Y313780D01*
X575910Y313785D01*
X575906Y313789D01*
X575737Y313929D01*
X575572Y314067D01*
X575567Y314070D01*
X575562Y314074D01*
X575368Y314183D01*
X575184Y314287D01*
X575178Y314290D01*
X575172Y314293D01*
X574966Y314364D01*
X574762Y314436D01*
X574756Y314437D01*
X574750Y314439D01*
X574536Y314472D01*
X574321Y314506D01*
X574315Y314506D01*
X574308Y314507D01*
X574089Y314502D01*
X573875Y314497D01*
X573868Y314496D01*
X573862Y314496D01*
X573647Y314451D01*
X573437Y314409D01*
X573431Y314407D01*
X573424Y314405D01*
X573191Y314322D01*
X572827Y314171D01*
X567573Y314171D01*
X562718Y316182D01*
X559267Y319633D01*
X559229Y319665D01*
X559195Y319702D01*
X559058Y319808D01*
X558924Y319919D01*
X558881Y319944D01*
X558841Y319974D01*
X558687Y320054D01*
X558536Y320140D01*
X558489Y320157D01*
X558444Y320180D01*
X558279Y320230D01*
X558115Y320288D01*
X558065Y320296D01*
X558017Y320311D01*
X557845Y320331D01*
X557674Y320359D01*
X557623Y320358D01*
X557574Y320364D01*
X557400Y320353D01*
X557227Y320350D01*
X557178Y320340D01*
X557128Y320337D01*
X556959Y320296D01*
X556789Y320262D01*
X556743Y320243D01*
X556694Y320231D01*
X556535Y320161D01*
X556374Y320097D01*
X556331Y320070D01*
X556286Y320050D01*
X556142Y319952D01*
X555995Y319861D01*
X555958Y319827D01*
X555916Y319799D01*
X555733Y319633D01*
X552282Y316182D01*
X547427Y314171D01*
X542173Y314171D01*
X537318Y316182D01*
X533867Y319633D01*
X533829Y319665D01*
X533795Y319702D01*
X533658Y319808D01*
X533524Y319919D01*
X533481Y319944D01*
X533441Y319974D01*
X533287Y320054D01*
X533136Y320140D01*
X533089Y320157D01*
X533044Y320180D01*
X532879Y320230D01*
X532715Y320288D01*
X532665Y320296D01*
X532617Y320311D01*
X532445Y320331D01*
X532274Y320359D01*
X532223Y320358D01*
X532174Y320364D01*
X532000Y320353D01*
X531827Y320350D01*
X531778Y320340D01*
X531728Y320337D01*
X531559Y320296D01*
X531389Y320262D01*
X531343Y320243D01*
X531294Y320231D01*
X531135Y320161D01*
X530974Y320097D01*
X530931Y320070D01*
X530886Y320050D01*
X530742Y319952D01*
X530595Y319861D01*
X530558Y319827D01*
X530516Y319799D01*
X530333Y319633D01*
X526882Y316182D01*
X522027Y314171D01*
X516773Y314171D01*
X511918Y316182D01*
X508202Y319898D01*
X506191Y324753D01*
X506191Y345247D01*
X508202Y350102D01*
X511918Y353818D01*
X516773Y355829D01*
X522027Y355829D01*
X523908Y355050D01*
X523917Y355047D01*
X523925Y355043D01*
X524131Y354980D01*
X524335Y354916D01*
X524344Y354915D01*
X524353Y354912D01*
X524566Y354887D01*
X524778Y354861D01*
X524787Y354861D01*
X524796Y354860D01*
X525009Y354873D01*
X525224Y354885D01*
X525233Y354887D01*
X525242Y354888D01*
X525448Y354939D01*
X525659Y354989D01*
X525667Y354992D01*
X525676Y354995D01*
X525869Y355081D01*
X526068Y355168D01*
X526076Y355173D01*
X526084Y355177D01*
X526261Y355297D01*
X526439Y355417D01*
X526445Y355423D01*
X526453Y355428D01*
X526636Y355595D01*
X534448Y363407D01*
X537421Y364639D01*
X602979Y364639D01*
X605952Y363407D01*
X621733Y347626D01*
X621838Y347539D01*
X621936Y347444D01*
X622009Y347396D01*
X622076Y347340D01*
X622194Y347272D01*
X622308Y347197D01*
X622388Y347162D01*
X622464Y347119D01*
X622593Y347074D01*
X622719Y347020D01*
X622803Y347000D01*
X622885Y346971D01*
X623021Y346949D01*
X623154Y346918D01*
X623240Y346914D01*
X623326Y346900D01*
X623463Y346903D01*
X623600Y346896D01*
X623686Y346908D01*
X623773Y346909D01*
X623907Y346936D01*
X624043Y346954D01*
X624126Y346980D01*
X624211Y346998D01*
X624338Y347048D01*
X624468Y347090D01*
X624545Y347130D01*
X624626Y347162D01*
X624742Y347235D01*
X624863Y347299D01*
X624931Y347353D01*
X625005Y347399D01*
X625107Y347490D01*
X625214Y347575D01*
X625272Y347640D01*
X625336Y347698D01*
X625420Y347807D01*
X625511Y347909D01*
X625556Y347983D01*
X625609Y348052D01*
X625672Y348174D01*
X625743Y348291D01*
X625774Y348372D01*
X625814Y348449D01*
X625854Y348580D01*
X625903Y348708D01*
X625920Y348793D01*
X625945Y348876D01*
X625961Y349012D01*
X625987Y349146D01*
X625994Y349283D01*
X625998Y349320D01*
X625997Y349343D01*
X625999Y349394D01*
X625999Y373500D01*
X625995Y373550D01*
X625997Y373600D01*
X625975Y373772D01*
X625959Y373945D01*
X625946Y373993D01*
X625940Y374043D01*
X625887Y374208D01*
X625841Y374376D01*
X625819Y374421D01*
X625804Y374468D01*
X625723Y374622D01*
X625648Y374778D01*
X625618Y374819D01*
X625595Y374863D01*
X625488Y375000D01*
X625386Y375140D01*
X625350Y375175D01*
X625319Y375214D01*
X625189Y375330D01*
X625064Y375450D01*
X625022Y375477D01*
X624984Y375511D01*
X624836Y375601D01*
X624692Y375697D01*
X624646Y375717D01*
X624603Y375743D01*
X624441Y375805D01*
X624281Y375874D01*
X624233Y375885D01*
X624186Y375903D01*
X624015Y375936D01*
X623846Y375975D01*
X623796Y375978D01*
X623747Y375987D01*
X623500Y375999D01*
X16500Y375999D01*
X16450Y375995D01*
X16400Y375997D01*
X16228Y375975D01*
X16055Y375959D01*
X16007Y375946D01*
X15957Y375940D01*
X15792Y375887D01*
X15624Y375841D01*
X15579Y375819D01*
X15532Y375804D01*
X15378Y375723D01*
X15222Y375648D01*
X15181Y375618D01*
X15137Y375595D01*
X15000Y375488D01*
X14860Y375386D01*
X14825Y375350D01*
X14786Y375319D01*
X14670Y375189D01*
X14550Y375064D01*
X14523Y375022D01*
X14489Y374984D01*
X14399Y374836D01*
X14303Y374692D01*
X14283Y374646D01*
X14257Y374603D01*
X14195Y374441D01*
X14126Y374281D01*
X14115Y374233D01*
X14097Y374186D01*
X14064Y374015D01*
X14025Y373846D01*
X14022Y373796D01*
X14013Y373747D01*
X14001Y373500D01*
X14001Y-43500D01*
X14005Y-43550D01*
X14003Y-43600D01*
X14025Y-43772D01*
X14041Y-43945D01*
X14054Y-43993D01*
X14060Y-44043D01*
X14113Y-44208D01*
X14159Y-44376D01*
X14181Y-44421D01*
X14196Y-44468D01*
X14277Y-44622D01*
X14352Y-44778D01*
X14382Y-44819D01*
X14405Y-44863D01*
X14512Y-45000D01*
X14614Y-45140D01*
X14650Y-45175D01*
X14681Y-45214D01*
X14811Y-45330D01*
X14936Y-45450D01*
X14978Y-45477D01*
X15016Y-45511D01*
X15164Y-45601D01*
X15308Y-45697D01*
X15354Y-45717D01*
X15397Y-45743D01*
X15559Y-45805D01*
X15719Y-45874D01*
X15767Y-45885D01*
X15814Y-45903D01*
X15985Y-45936D01*
X16154Y-45975D01*
X16204Y-45978D01*
X16253Y-45987D01*
X16500Y-45999D01*
X569881Y-45999D01*
X569990Y-45989D01*
G37*
%LPC*%
G36*
X555773Y89171D02*
X555773Y89171D01*
X550918Y91182D01*
X547202Y94898D01*
X546312Y97046D01*
X546294Y97080D01*
X546282Y97117D01*
X546191Y97278D01*
X546105Y97442D01*
X546081Y97472D01*
X546062Y97506D01*
X545945Y97648D01*
X545831Y97794D01*
X545802Y97820D01*
X545777Y97850D01*
X545636Y97969D01*
X545498Y98092D01*
X545465Y98113D01*
X545436Y98138D01*
X545275Y98230D01*
X545118Y98326D01*
X545082Y98341D01*
X545048Y98360D01*
X544874Y98422D01*
X544702Y98489D01*
X544664Y98497D01*
X544627Y98510D01*
X544445Y98540D01*
X544264Y98575D01*
X544225Y98576D01*
X544187Y98582D01*
X544002Y98579D01*
X543817Y98582D01*
X543779Y98575D01*
X543740Y98575D01*
X543559Y98539D01*
X543376Y98509D01*
X543340Y98496D01*
X543302Y98488D01*
X543130Y98421D01*
X542956Y98358D01*
X542922Y98339D01*
X542886Y98325D01*
X542729Y98228D01*
X542568Y98136D01*
X542539Y98111D01*
X542506Y98090D01*
X542368Y97967D01*
X542227Y97847D01*
X542202Y97818D01*
X542174Y97792D01*
X542060Y97645D01*
X541942Y97503D01*
X541924Y97469D01*
X541900Y97439D01*
X541777Y97224D01*
X541690Y97055D01*
X540750Y95761D01*
X539619Y94630D01*
X538325Y93690D01*
X536900Y92964D01*
X535539Y92521D01*
X535539Y109960D01*
X535537Y109988D01*
X535539Y110040D01*
X535539Y127479D01*
X536900Y127036D01*
X538325Y126310D01*
X539619Y125370D01*
X540750Y124239D01*
X541690Y122945D01*
X541777Y122776D01*
X541797Y122743D01*
X541813Y122708D01*
X541869Y122624D01*
X541889Y122587D01*
X541922Y122544D01*
X542014Y122398D01*
X542040Y122369D01*
X542062Y122337D01*
X542191Y122204D01*
X542315Y122068D01*
X542346Y122044D01*
X542373Y122016D01*
X542524Y121908D01*
X542670Y121797D01*
X542705Y121779D01*
X542736Y121756D01*
X542904Y121677D01*
X543068Y121593D01*
X543105Y121582D01*
X543140Y121565D01*
X543319Y121517D01*
X543495Y121463D01*
X543534Y121459D01*
X543571Y121449D01*
X543756Y121433D01*
X543939Y121412D01*
X543978Y121415D01*
X544016Y121411D01*
X544200Y121429D01*
X544385Y121441D01*
X544423Y121450D01*
X544461Y121454D01*
X544639Y121503D01*
X544819Y121548D01*
X544854Y121564D01*
X544891Y121574D01*
X545058Y121655D01*
X545226Y121731D01*
X545258Y121753D01*
X545293Y121770D01*
X545442Y121879D01*
X545595Y121983D01*
X545622Y122010D01*
X545653Y122033D01*
X545781Y122167D01*
X545912Y122297D01*
X545935Y122329D01*
X545961Y122357D01*
X546063Y122512D01*
X546169Y122663D01*
X546185Y122698D01*
X546207Y122730D01*
X546312Y122954D01*
X547202Y125102D01*
X550918Y128818D01*
X555773Y130829D01*
X559282Y130829D01*
X559332Y130833D01*
X559382Y130831D01*
X559554Y130853D01*
X559727Y130869D01*
X559775Y130882D01*
X559825Y130888D01*
X559990Y130941D01*
X560158Y130987D01*
X560203Y131009D01*
X560250Y131024D01*
X560404Y131105D01*
X560560Y131180D01*
X560601Y131210D01*
X560645Y131233D01*
X560782Y131340D01*
X560922Y131442D01*
X560957Y131478D01*
X560996Y131509D01*
X561112Y131639D01*
X561232Y131764D01*
X561259Y131806D01*
X561293Y131844D01*
X561383Y131992D01*
X561479Y132136D01*
X561499Y132182D01*
X561525Y132225D01*
X561587Y132387D01*
X561656Y132547D01*
X561667Y132595D01*
X561685Y132642D01*
X561718Y132813D01*
X561757Y132982D01*
X561760Y133032D01*
X561769Y133081D01*
X561781Y133328D01*
X561781Y142499D01*
X563013Y145472D01*
X569292Y151751D01*
X569379Y151856D01*
X569474Y151954D01*
X569522Y152027D01*
X569578Y152094D01*
X569646Y152212D01*
X569721Y152326D01*
X569756Y152406D01*
X569799Y152482D01*
X569844Y152611D01*
X569898Y152737D01*
X569918Y152821D01*
X569947Y152903D01*
X569969Y153039D01*
X570000Y153172D01*
X570004Y153258D01*
X570018Y153344D01*
X570015Y153481D01*
X570022Y153618D01*
X570010Y153704D01*
X570009Y153791D01*
X569982Y153925D01*
X569964Y154061D01*
X569938Y154144D01*
X569920Y154229D01*
X569870Y154356D01*
X569828Y154486D01*
X569788Y154563D01*
X569756Y154644D01*
X569683Y154760D01*
X569619Y154881D01*
X569565Y154949D01*
X569519Y155023D01*
X569428Y155125D01*
X569343Y155232D01*
X569278Y155290D01*
X569220Y155354D01*
X569111Y155438D01*
X569009Y155529D01*
X568934Y155574D01*
X568866Y155627D01*
X568744Y155690D01*
X568627Y155761D01*
X568546Y155792D01*
X568469Y155832D01*
X568338Y155872D01*
X568210Y155921D01*
X568125Y155938D01*
X568042Y155963D01*
X567906Y155979D01*
X567772Y156005D01*
X567635Y156012D01*
X567598Y156016D01*
X567575Y156015D01*
X567524Y156017D01*
X561736Y156017D01*
X560756Y156423D01*
X560579Y156479D01*
X560402Y156540D01*
X560365Y156545D01*
X560330Y156557D01*
X560145Y156580D01*
X559961Y156608D01*
X559924Y156607D01*
X559887Y156612D01*
X559700Y156602D01*
X559514Y156597D01*
X559478Y156589D01*
X559441Y156587D01*
X559259Y156544D01*
X559077Y156506D01*
X559029Y156489D01*
X559006Y156484D01*
X558973Y156469D01*
X558844Y156423D01*
X557864Y156017D01*
X549036Y156017D01*
X546982Y156868D01*
X545410Y158440D01*
X544559Y160494D01*
X544559Y183038D01*
X545410Y185092D01*
X546982Y186664D01*
X549036Y187515D01*
X557864Y187515D01*
X558844Y187109D01*
X559022Y187053D01*
X559198Y186992D01*
X559235Y186987D01*
X559270Y186975D01*
X559455Y186952D01*
X559639Y186924D01*
X559676Y186925D01*
X559713Y186920D01*
X559899Y186930D01*
X560086Y186935D01*
X560122Y186943D01*
X560159Y186945D01*
X560341Y186988D01*
X560523Y187026D01*
X560571Y187043D01*
X560594Y187048D01*
X560628Y187063D01*
X560756Y187109D01*
X561736Y187515D01*
X570564Y187515D01*
X571544Y187109D01*
X571722Y187053D01*
X571898Y186992D01*
X571935Y186987D01*
X571970Y186975D01*
X572155Y186952D01*
X572339Y186924D01*
X572376Y186925D01*
X572413Y186920D01*
X572599Y186930D01*
X572786Y186935D01*
X572822Y186943D01*
X572859Y186945D01*
X573041Y186988D01*
X573223Y187026D01*
X573271Y187043D01*
X573294Y187048D01*
X573328Y187063D01*
X573456Y187109D01*
X574436Y187515D01*
X583264Y187515D01*
X585318Y186664D01*
X586783Y185199D01*
X586926Y185079D01*
X587066Y184955D01*
X587097Y184936D01*
X587126Y184912D01*
X587288Y184820D01*
X587447Y184723D01*
X587482Y184710D01*
X587514Y184692D01*
X587690Y184630D01*
X587864Y184563D01*
X587901Y184556D01*
X587936Y184543D01*
X588120Y184514D01*
X588303Y184479D01*
X588353Y184476D01*
X588377Y184473D01*
X588414Y184474D01*
X588550Y184467D01*
X589051Y184467D01*
X589051Y171766D01*
X589051Y159031D01*
X588993Y159025D01*
X588945Y159012D01*
X588895Y159006D01*
X588730Y158953D01*
X588562Y158907D01*
X588517Y158885D01*
X588470Y158870D01*
X588316Y158789D01*
X588160Y158714D01*
X588119Y158684D01*
X588075Y158661D01*
X587938Y158554D01*
X587798Y158452D01*
X587763Y158416D01*
X587724Y158385D01*
X587608Y158255D01*
X587488Y158130D01*
X587461Y158088D01*
X587427Y158050D01*
X587337Y157902D01*
X587241Y157758D01*
X587221Y157712D01*
X587195Y157669D01*
X587133Y157507D01*
X587064Y157347D01*
X587053Y157299D01*
X587035Y157252D01*
X587002Y157081D01*
X586963Y156912D01*
X586960Y156862D01*
X586951Y156813D01*
X586939Y156566D01*
X586939Y148261D01*
X585707Y145288D01*
X578691Y138272D01*
X578571Y138128D01*
X578447Y137989D01*
X578428Y137957D01*
X578404Y137929D01*
X578312Y137767D01*
X578215Y137607D01*
X578202Y137573D01*
X578184Y137540D01*
X578122Y137364D01*
X578055Y137190D01*
X578048Y137154D01*
X578035Y137119D01*
X578006Y136935D01*
X577971Y136752D01*
X577968Y136701D01*
X577965Y136678D01*
X577966Y136641D01*
X577959Y136504D01*
X577959Y133238D01*
X577967Y133145D01*
X577966Y133051D01*
X577987Y132923D01*
X577999Y132793D01*
X578023Y132703D01*
X578039Y132610D01*
X578083Y132488D01*
X578117Y132362D01*
X578158Y132278D01*
X578189Y132190D01*
X578254Y132077D01*
X578310Y131960D01*
X578365Y131884D01*
X578412Y131803D01*
X578496Y131703D01*
X578572Y131598D01*
X578640Y131533D01*
X578700Y131461D01*
X578800Y131378D01*
X578894Y131288D01*
X578972Y131236D01*
X579045Y131177D01*
X579158Y131113D01*
X579266Y131041D01*
X579352Y131004D01*
X579434Y130958D01*
X579557Y130915D01*
X579677Y130864D01*
X579768Y130843D01*
X579856Y130812D01*
X579985Y130792D01*
X580112Y130763D01*
X580205Y130758D01*
X580298Y130744D01*
X580428Y130747D01*
X580558Y130741D01*
X580651Y130753D01*
X580744Y130755D01*
X580872Y130781D01*
X581001Y130798D01*
X581090Y130827D01*
X581100Y130829D01*
X586427Y130829D01*
X591282Y128818D01*
X594998Y125102D01*
X597009Y120247D01*
X597009Y99753D01*
X594998Y94898D01*
X591282Y91182D01*
X586427Y89171D01*
X581173Y89171D01*
X576318Y91182D01*
X572867Y94633D01*
X572829Y94665D01*
X572795Y94702D01*
X572658Y94808D01*
X572524Y94919D01*
X572481Y94944D01*
X572441Y94974D01*
X572287Y95054D01*
X572136Y95140D01*
X572089Y95157D01*
X572044Y95180D01*
X571879Y95230D01*
X571715Y95288D01*
X571665Y95296D01*
X571617Y95311D01*
X571445Y95331D01*
X571274Y95359D01*
X571223Y95358D01*
X571174Y95364D01*
X571000Y95353D01*
X570827Y95350D01*
X570778Y95340D01*
X570728Y95337D01*
X570559Y95296D01*
X570389Y95262D01*
X570343Y95243D01*
X570294Y95231D01*
X570135Y95161D01*
X569974Y95097D01*
X569931Y95070D01*
X569886Y95050D01*
X569742Y94952D01*
X569595Y94861D01*
X569558Y94827D01*
X569516Y94799D01*
X569333Y94633D01*
X565882Y91182D01*
X561027Y89171D01*
X555773Y89171D01*
G37*
%LPD*%
%LPC*%
G36*
X594049Y174265D02*
X594049Y174265D01*
X594049Y184467D01*
X595186Y184467D01*
X595833Y184294D01*
X596412Y183959D01*
X596885Y183486D01*
X597220Y182907D01*
X597393Y182260D01*
X597393Y174265D01*
X594049Y174265D01*
G37*
%LPD*%
%LPC*%
G36*
X529049Y174265D02*
X529049Y174265D01*
X529049Y184467D01*
X530186Y184467D01*
X530833Y184294D01*
X531412Y183959D01*
X531885Y183486D01*
X532220Y182907D01*
X532393Y182260D01*
X532393Y174265D01*
X529049Y174265D01*
G37*
%LPD*%
%LPC*%
G36*
X594049Y159065D02*
X594049Y159065D01*
X594049Y169267D01*
X597393Y169267D01*
X597393Y161272D01*
X597220Y160625D01*
X596885Y160046D01*
X596412Y159573D01*
X595833Y159238D01*
X595186Y159065D01*
X594049Y159065D01*
G37*
%LPD*%
%LPC*%
G36*
X529049Y159065D02*
X529049Y159065D01*
X529049Y169267D01*
X532393Y169267D01*
X532393Y161272D01*
X532220Y160625D01*
X531885Y160046D01*
X531412Y159573D01*
X530833Y159238D01*
X530186Y159065D01*
X529049Y159065D01*
G37*
%LPD*%
D10*
X153800Y223380D02*
X153800Y238620D01*
X179200Y238620D02*
X179200Y223380D01*
X204600Y223380D02*
X204600Y238620D01*
X230000Y238620D02*
X230000Y223380D01*
X255400Y223380D02*
X255400Y238620D01*
X280800Y238620D02*
X280800Y223380D01*
X306200Y223380D02*
X306200Y238620D01*
X331600Y238620D02*
X331600Y223380D01*
X357000Y223380D02*
X357000Y238620D01*
X382400Y238620D02*
X382400Y223380D01*
X407800Y223380D02*
X407800Y238620D01*
X433200Y238620D02*
X433200Y223380D01*
X433200Y78620D02*
X433200Y63380D01*
X407800Y63380D02*
X407800Y78620D01*
X382400Y78620D02*
X382400Y63380D01*
X357000Y63380D02*
X357000Y78620D01*
X331600Y78620D02*
X331600Y63380D01*
X306200Y63380D02*
X306200Y78620D01*
X280800Y78620D02*
X280800Y63380D01*
X255400Y63380D02*
X255400Y78620D01*
X230000Y78620D02*
X230000Y63380D01*
X204600Y63380D02*
X204600Y78620D01*
X179200Y78620D02*
X179200Y63380D01*
X153800Y63380D02*
X153800Y78620D01*
X423380Y203900D02*
X438620Y203900D01*
X438620Y178500D02*
X423380Y178500D01*
X423380Y153100D02*
X438620Y153100D01*
X98700Y282380D02*
X98700Y297620D01*
X124100Y297620D02*
X124100Y282380D01*
X149500Y282380D02*
X149500Y297620D01*
X174900Y297620D02*
X174900Y282380D01*
X200300Y282380D02*
X200300Y297620D01*
X225700Y297620D02*
X225700Y282380D01*
X251100Y282380D02*
X251100Y297620D01*
X276500Y297620D02*
X276500Y282380D01*
X301900Y282380D02*
X301900Y297620D01*
X327300Y297620D02*
X327300Y282380D01*
X352700Y282380D02*
X352700Y297620D01*
X378100Y297620D02*
X378100Y282380D01*
X403500Y282380D02*
X403500Y297620D01*
X428900Y297620D02*
X428900Y282380D01*
X454300Y282380D02*
X454300Y297620D01*
X479700Y297620D02*
X479700Y282380D01*
X505100Y282380D02*
X505100Y297620D01*
X530500Y297620D02*
X530500Y282380D01*
X555900Y282380D02*
X555900Y297620D01*
X581300Y297620D02*
X581300Y282380D01*
X101200Y117620D02*
X101200Y102380D01*
X126600Y102380D02*
X126600Y117620D01*
X152000Y117620D02*
X152000Y102380D01*
X177400Y102380D02*
X177400Y117620D01*
X202800Y117620D02*
X202800Y102380D01*
X228200Y102380D02*
X228200Y117620D01*
X253600Y117620D02*
X253600Y102380D01*
X279000Y102380D02*
X279000Y117620D01*
X304400Y117620D02*
X304400Y102380D01*
X329800Y102380D02*
X329800Y117620D01*
X355200Y117620D02*
X355200Y102380D01*
X380600Y102380D02*
X380600Y117620D01*
X406000Y117620D02*
X406000Y102380D01*
X431400Y102380D02*
X431400Y117620D01*
X456800Y117620D02*
X456800Y102380D01*
X482200Y102380D02*
X482200Y117620D01*
X507600Y117620D02*
X507600Y102380D01*
X533000Y102380D02*
X533000Y117620D01*
X558400Y117620D02*
X558400Y102380D01*
X583800Y102380D02*
X583800Y117620D01*
X577380Y68300D02*
X592620Y68300D01*
X592620Y42900D02*
X577380Y42900D01*
X577380Y17500D02*
X592620Y17500D01*
X592620Y-7900D02*
X577380Y-7900D01*
X577380Y-33300D02*
X592620Y-33300D01*
X519400Y327380D02*
X519400Y342620D01*
X544800Y342620D02*
X544800Y327380D01*
X570200Y327380D02*
X570200Y342620D01*
X595600Y342620D02*
X595600Y327380D01*
D11*
X553450Y233234D03*
X553450Y171766D03*
X566150Y233234D03*
X578850Y233234D03*
X566150Y171766D03*
X578850Y171766D03*
X591550Y233234D03*
X591550Y171766D03*
X488450Y233234D03*
X488450Y171766D03*
X501150Y233234D03*
X513850Y233234D03*
X501150Y171766D03*
X513850Y171766D03*
X526550Y233234D03*
X526550Y171766D03*
D12*
X153800Y231000D02*
X126300Y231000D01*
X70000Y174700D01*
X70000Y77500D01*
X122500Y25000D01*
X454964Y25000D01*
X507371Y68300D02*
X585000Y68300D01*
X507371Y68300D02*
X454964Y25000D01*
D13*
X355200Y154420D02*
X407800Y207020D01*
X355200Y154420D02*
X355200Y110000D01*
X407800Y207020D02*
X407800Y231000D01*
X595600Y318262D02*
X595600Y335000D01*
X611008Y302854D02*
X611008Y272146D01*
X611008Y302854D02*
X595600Y318262D01*
X596534Y257672D02*
X582672Y257672D01*
X596534Y257672D02*
X611008Y272146D01*
X582672Y257672D02*
X578850Y253850D01*
X578850Y233234D01*
X489760Y234544D02*
X488450Y233234D01*
X489760Y234544D02*
X489760Y246744D01*
X587807Y266672D02*
X597008Y275874D01*
X597008Y304127D01*
X509688Y266672D02*
X489760Y246744D01*
X509688Y266672D02*
X587807Y266672D01*
X570200Y330935D02*
X570200Y335000D01*
X570200Y330935D02*
X597008Y304127D01*
D14*
X530000Y251776D03*
D13*
X529572Y252204D01*
X518134Y252204D01*
X513850Y247920D01*
X513850Y233234D01*
X501150Y233234D02*
X501150Y213850D01*
X507500Y207500D01*
X526550Y207500D01*
X526550Y233234D01*
X526550Y207500D02*
X587500Y207500D01*
X591550Y211550D02*
X591550Y233234D01*
X591550Y211550D02*
X587500Y207500D01*
X530870Y348390D02*
X539030Y356550D01*
X591550Y234960D02*
X591550Y233234D01*
X591550Y234960D02*
X620008Y263418D01*
X530870Y346470D02*
X519400Y335000D01*
X530870Y346470D02*
X530870Y348390D01*
X539030Y356550D02*
X601370Y356550D01*
X620008Y337912D01*
X620008Y263418D01*
X482200Y150516D02*
X482200Y110000D01*
X482200Y150516D02*
X488450Y156766D01*
X488450Y171766D01*
X569870Y140890D02*
X569870Y121470D01*
X558400Y110000D01*
X578850Y149870D02*
X578850Y171766D01*
X578850Y149870D02*
X569870Y140890D01*
X513850Y116250D02*
X513850Y171766D01*
X513850Y116250D02*
X507600Y110000D01*
X251100Y268600D02*
X251100Y290000D01*
D14*
X469305Y241805D03*
D13*
X466643Y241805D01*
X445120Y263328D01*
X256372Y263328D02*
X251100Y268600D01*
X256372Y263328D02*
X445120Y263328D01*
X445127Y219608D02*
X454328Y210407D01*
X444592Y219608D02*
X433200Y231000D01*
X444592Y219608D02*
X445127Y219608D01*
X454328Y210407D02*
X454328Y146608D01*
X443548Y135828D01*
X392500Y135828D01*
X380600Y123928D02*
X380600Y110000D01*
X380600Y123928D02*
X392500Y135828D01*
X105000Y0D02*
X52500Y52500D01*
X52500Y192500D01*
X220000Y257500D02*
X225700Y263200D01*
X225700Y290000D01*
X117500Y257500D02*
X52500Y192500D01*
X117500Y257500D02*
X220000Y257500D01*
X105000Y0D02*
X347340Y0D01*
X358180Y10840D02*
X375000Y10840D01*
D14*
X375000Y10840D03*
D13*
X358180Y10840D02*
X347340Y0D01*
M02*
